{"glyphs":{"0":{"ha":842,"x_min":108,"x_max":836,"o":"m 372 -15 q 253 15 303 -15 q 171 97 203 46 q 124 213 139 149 q 108 344 108 278 q 135 531 108 439 q 209 705 163 624 q 316 848 256 786 q 444 945 376 910 q 581 981 513 981 q 696 949 647 981 q 775 863 744 917 q 821 746 806 810 q 836 618 836 682 q 813 448 836 536 q 748 278 790 360 q 648 129 706 196 q 520 24 590 63 q 372 -15 450 -15 m 357 19 q 458 61 413 19 q 542 172 504 103 q 607 324 579 240 q 653 492 635 407 q 682 653 672 578 q 692 778 692 728 q 665 903 692 863 q 590 944 639 944 q 492 902 538 944 q 408 789 446 860 q 342 633 371 718 q 293 460 313 547 q 263 299 274 374 q 253 175 253 224 q 267 80 253 114 q 306 33 282 46 q 357 19 331 19 z "},"1":{"ha":500,"x_min":3,"x_max":499,"o":"m 138 0 l 343 981 l 499 981 l 288 0 l 138 0 m 3 0 l 3 35 l 467 35 l 467 0 l 3 0 m 171 946 l 171 981 l 489 981 l 489 946 l 171 946 z "},"2":{"ha":747,"x_min":21,"x_max":761,"o":"m 21 0 l 38 81 l 371 368 q 492 494 443 431 q 568 624 542 557 q 594 764 594 692 q 558 898 594 850 q 451 946 521 946 q 350 921 397 946 q 274 862 303 896 q 246 801 246 828 q 264 772 246 779 q 305 760 282 764 q 346 742 328 756 q 364 697 364 729 q 342 642 364 663 q 288 622 319 622 q 244 633 267 622 q 205 671 221 644 q 189 742 189 697 q 225 860 189 806 q 327 947 261 914 q 485 981 393 981 q 628 953 565 981 q 726 877 690 926 q 761 760 761 828 q 713 618 761 686 q 557 463 664 550 l 153 129 l 153 124 l 524 124 q 574 133 554 124 q 609 172 593 143 q 642 261 625 201 l 676 261 l 613 0 l 21 0 z "},"3":{"ha":757,"x_min":49,"x_max":757,"o":"m 303 -18 q 159 8 215 -18 q 76 73 103 33 q 49 156 49 113 q 73 228 49 200 q 139 256 97 256 q 194 235 174 256 q 215 183 215 215 q 202 143 215 157 q 172 122 189 129 q 142 107 156 114 q 129 86 129 100 q 152 53 129 69 q 212 27 175 38 q 289 17 249 17 q 409 49 361 17 q 485 129 457 81 q 524 232 513 178 q 536 329 536 286 q 487 466 536 428 q 347 504 438 504 q 332 501 342 504 q 311 494 322 497 q 286 492 300 492 q 256 500 265 492 q 246 521 246 508 q 258 542 246 535 q 283 550 269 550 q 317 546 296 550 q 365 542 339 542 q 469 570 425 542 q 544 643 514 599 q 588 736 574 688 q 603 825 603 785 q 570 918 603 883 q 467 953 538 953 q 376 935 415 953 q 338 889 338 917 q 346 866 338 875 q 363 847 354 857 q 372 817 372 838 q 352 767 372 788 q 300 747 332 747 q 251 765 274 747 q 229 821 229 782 q 265 906 229 868 q 361 965 300 943 q 496 988 422 988 q 640 959 582 988 q 728 886 699 931 q 757 793 757 842 q 683 642 757 715 q 474 529 610 568 l 474 522 q 588 491 533 522 q 676 408 642 460 q 711 293 711 357 q 681 182 711 238 q 597 81 651 126 q 467 9 542 36 q 303 -18 393 -18 z "},"4":{"ha":767,"x_min":25,"x_max":785,"o":"m 49 276 l 25 311 l 644 981 l 668 946 l 524 785 l 518 785 l 86 311 l 86 306 l 49 276 m 233 0 l 233 35 l 643 35 l 643 0 l 233 0 m 25 272 l 25 311 l 732 311 l 732 272 l 25 272 m 688 150 l 750 401 l 785 401 l 722 150 l 688 150 m 358 0 l 535 840 l 644 981 l 719 981 l 508 0 l 358 0 z "},"5":{"ha":807,"x_min":72,"x_max":838,"o":"m 324 -11 q 177 19 232 -11 q 97 90 122 49 q 72 167 72 132 q 83 215 72 192 q 115 251 94 238 q 165 265 136 265 q 224 244 201 265 q 247 192 247 224 q 235 151 247 167 q 205 126 222 136 q 175 107 188 115 q 163 89 163 99 q 199 50 163 75 q 308 25 236 25 q 438 58 386 25 q 519 142 489 90 q 563 249 550 193 q 576 351 576 306 q 549 470 576 428 q 478 531 522 513 q 385 549 435 549 q 298 538 344 549 q 207 508 251 528 l 192 522 l 322 981 l 647 981 q 722 985 696 981 q 763 1003 747 989 q 796 1047 778 1017 l 838 1047 l 743 857 l 331 857 l 247 571 l 253 565 q 346 588 304 581 q 429 594 388 594 q 604 561 531 594 q 718 471 678 528 q 758 342 758 414 q 723 209 758 272 q 626 96 688 146 q 488 17 565 46 q 324 -11 410 -11 z "},"6":{"ha":826,"x_min":100,"x_max":808,"o":"m 389 -18 q 234 24 299 -18 q 135 140 169 67 q 100 307 100 214 q 142 517 100 414 q 258 710 185 619 q 423 869 331 800 q 615 976 515 938 q 808 1015 714 1015 l 808 981 q 637 933 715 971 q 497 838 558 894 q 396 714 436 781 q 340 579 356 647 l 344 575 q 444 626 400 611 q 535 642 488 642 q 674 608 614 642 q 767 517 733 575 q 800 385 800 460 q 767 241 800 313 q 678 110 735 169 q 547 17 621 51 q 389 -18 472 -18 m 378 17 q 485 48 440 17 q 560 129 529 79 q 608 238 590 179 q 633 353 625 297 q 640 450 640 408 q 614 569 640 531 q 526 607 588 607 q 418 578 475 607 q 304 489 361 550 q 279 409 292 457 q 258 306 267 361 q 249 197 249 251 q 281 58 249 99 q 378 17 314 17 z "},"7":{"ha":697,"x_min":140,"x_max":851,"o":"m 332 -14 q 273 8 297 -14 q 249 83 249 31 q 256 131 249 106 q 283 197 263 157 q 347 302 304 238 q 458 464 389 367 l 733 851 l 733 857 l 363 857 q 285 847 315 857 q 231 808 254 838 q 182 719 207 779 l 140 719 l 267 981 l 851 981 l 847 946 l 551 525 q 476 402 503 457 q 438 305 449 347 q 426 229 426 263 q 431 167 426 201 q 435 108 435 133 q 408 19 435 53 q 332 -14 381 -14 z "},"8":{"ha":847,"x_min":79,"x_max":857,"o":"m 393 -18 q 228 14 299 -18 q 118 100 157 46 q 79 221 79 154 q 109 333 79 281 q 192 427 139 386 q 316 491 246 468 q 467 514 386 514 q 637 481 564 514 q 750 392 710 447 q 790 274 790 338 q 760 166 790 218 q 675 72 729 114 q 549 6 621 31 q 393 -18 476 -18 m 385 17 q 500 49 454 17 q 573 129 546 81 q 611 230 600 178 q 622 324 622 282 q 588 443 622 401 q 489 485 554 485 q 367 442 421 485 q 281 329 313 400 q 250 175 250 258 q 283 54 250 92 q 385 17 317 17 m 574 496 l 401 504 l 401 510 q 267 590 317 533 q 217 717 217 647 q 246 819 217 771 q 326 903 275 867 q 442 961 376 940 q 578 982 507 982 q 726 953 664 982 q 823 876 789 924 q 857 771 857 828 q 821 656 857 713 q 721 557 785 599 q 574 501 657 515 l 574 496 m 496 514 q 597 546 557 514 q 660 626 636 578 q 693 724 683 674 q 703 813 703 775 q 674 917 703 882 q 588 953 644 953 q 500 931 540 953 q 431 869 460 908 q 385 778 401 829 q 368 671 368 728 q 402 552 368 590 q 496 514 436 514 z "},"9":{"ha":826,"x_min":139,"x_max":847,"o":"m 139 -18 l 139 17 q 310 65 232 28 q 450 160 389 103 q 551 283 511 217 q 607 418 592 350 l 603 422 q 504 371 547 386 q 413 356 461 356 q 274 389 333 356 q 181 481 214 422 q 147 613 147 539 q 180 757 147 686 q 269 887 213 828 q 401 981 326 946 q 558 1015 475 1015 q 713 973 649 1015 q 813 858 778 931 q 847 690 847 785 q 805 481 847 583 q 690 288 763 378 q 524 128 617 197 q 333 21 432 60 q 139 -18 233 -18 m 421 390 q 530 419 474 390 q 643 508 586 449 q 669 588 656 540 q 690 691 682 636 q 699 800 699 746 q 666 940 699 899 q 569 981 633 981 q 463 949 507 981 q 388 868 418 918 q 340 759 357 818 q 315 644 322 700 q 307 547 307 589 q 334 428 307 467 q 421 390 361 390 z "},"A":{"ha":813,"x_min":-126,"x_max":747,"o":"m -25 28 l 685 1061 l 533 765 l 29 28 l -25 28 m -126 0 l -126 35 l 171 35 l 171 0 l -126 0 m 374 0 l 374 35 l 747 35 l 747 0 l 374 0 m 229 343 l 229 382 l 603 382 l 603 343 l 229 343 m 467 14 l 535 760 l 529 760 l 685 1061 l 714 1061 l 638 14 l 467 14 z "},"Á":{"ha":813,"x_min":-126,"x_max":949,"o":"m -25 28 l 685 1061 l 533 765 l 29 28 l -25 28 m -126 0 l -126 35 l 171 35 l 171 0 l -126 0 m 374 0 l 374 35 l 747 35 l 747 0 l 374 0 m 229 343 l 229 382 l 603 382 l 603 343 l 229 343 m 467 14 l 535 760 l 529 760 l 685 1061 l 714 1061 l 638 14 l 467 14 m 539 1169 l 778 1314 q 849 1353 822 1342 q 896 1364 875 1364 q 934 1350 919 1364 q 949 1310 949 1336 q 926 1257 949 1279 q 853 1224 903 1235 l 611 1169 l 539 1169 z "},"Ă":{"ha":813,"x_min":-126,"x_max":997,"o":"m -25 28 l 685 1061 l 533 765 l 29 28 l -25 28 m -126 0 l -126 35 l 171 35 l 171 0 l -126 0 m 374 0 l 374 35 l 747 35 l 747 0 l 374 0 m 229 343 l 229 382 l 603 382 l 603 343 l 229 343 m 467 14 l 535 760 l 529 760 l 685 1061 l 714 1061 l 638 14 l 467 14 m 742 1169 q 592 1222 642 1169 q 563 1360 542 1275 l 610 1360 q 626 1306 610 1325 q 675 1278 643 1286 q 751 1271 707 1271 q 848 1281 807 1271 q 915 1310 889 1290 q 950 1360 942 1329 l 997 1360 q 915 1224 981 1279 q 742 1169 849 1169 z "},"Ắ":{"ha":813,"x_min":-126,"x_max":1125,"o":"m -25 28 l 685 1061 l 533 765 l 29 28 l -25 28 m -126 0 l -126 35 l 171 35 l 171 0 l -126 0 m 374 0 l 374 35 l 747 35 l 747 0 l 374 0 m 229 343 l 229 382 l 603 382 l 603 343 l 229 343 m 467 14 l 535 760 l 529 760 l 685 1061 l 714 1061 l 638 14 l 467 14 m 738 1149 q 608 1190 647 1149 q 588 1308 569 1232 l 631 1308 q 642 1262 631 1276 q 681 1244 654 1247 q 747 1240 707 1240 q 832 1246 797 1240 q 887 1266 867 1251 q 915 1308 907 1281 l 957 1308 q 890 1192 943 1235 q 738 1149 836 1149 m 715 1332 l 954 1476 q 1025 1515 999 1504 q 1072 1526 1051 1526 q 1110 1513 1096 1526 q 1125 1472 1125 1499 q 1102 1419 1125 1442 q 1029 1386 1079 1397 l 788 1332 l 715 1332 z "},"Ặ":{"ha":813,"x_min":-126,"x_max":997,"o":"m -25 28 l 685 1061 l 533 765 l 29 28 l -25 28 m -126 0 l -126 35 l 171 35 l 171 0 l -126 0 m 374 0 l 374 35 l 747 35 l 747 0 l 374 0 m 229 343 l 229 382 l 603 382 l 603 343 l 229 343 m 467 14 l 535 760 l 529 760 l 685 1061 l 714 1061 l 638 14 l 467 14 m 290 -282 q 224 -255 251 -282 q 197 -189 197 -228 q 224 -122 197 -149 q 290 -94 251 -94 q 358 -122 331 -94 q 385 -189 385 -149 q 358 -255 385 -228 q 290 -282 331 -282 m 742 1169 q 592 1222 642 1169 q 563 1360 542 1275 l 610 1360 q 626 1306 610 1325 q 675 1278 643 1286 q 751 1271 707 1271 q 848 1281 807 1271 q 915 1310 889 1290 q 950 1360 942 1329 l 997 1360 q 915 1224 981 1279 q 742 1169 849 1169 z "},"Ằ":{"ha":813,"x_min":-126,"x_max":957,"o":"m -25 28 l 685 1061 l 533 765 l 29 28 l -25 28 m -126 0 l -126 35 l 171 35 l 171 0 l -126 0 m 374 0 l 374 35 l 747 35 l 747 0 l 374 0 m 229 343 l 229 382 l 603 382 l 603 343 l 229 343 m 467 14 l 535 760 l 529 760 l 685 1061 l 714 1061 l 638 14 l 467 14 m 738 1149 q 608 1190 647 1149 q 588 1308 569 1232 l 631 1308 q 642 1262 631 1276 q 681 1244 654 1247 q 747 1240 707 1240 q 832 1246 797 1240 q 887 1266 867 1251 q 915 1308 907 1281 l 957 1308 q 890 1192 943 1235 q 738 1149 836 1149 m 761 1344 l 531 1406 q 489 1428 503 1413 q 475 1465 475 1443 q 496 1517 475 1494 q 550 1539 517 1539 q 585 1528 568 1539 q 642 1489 603 1518 l 835 1344 l 761 1344 z "},"Ẳ":{"ha":813,"x_min":-126,"x_max":951,"o":"m -25 28 l 685 1061 l 533 765 l 29 28 l -25 28 m -126 0 l -126 35 l 171 35 l 171 0 l -126 0 m 374 0 l 374 35 l 747 35 l 747 0 l 374 0 m 229 343 l 229 382 l 603 382 l 603 343 l 229 343 m 467 14 l 535 760 l 529 760 l 685 1061 l 714 1061 l 638 14 l 467 14 m 732 1149 q 603 1190 642 1149 q 582 1308 564 1232 l 625 1308 q 637 1262 625 1276 q 675 1244 649 1247 q 742 1240 701 1240 q 826 1246 792 1240 q 881 1266 861 1251 q 910 1308 901 1281 l 951 1308 q 884 1192 938 1235 q 732 1149 831 1149 m 743 1311 q 765 1353 749 1336 q 797 1383 781 1369 q 815 1414 813 1397 q 808 1465 822 1454 q 772 1476 794 1476 q 735 1467 751 1476 q 715 1442 718 1457 q 717 1430 714 1433 q 724 1421 721 1426 q 725 1403 728 1415 q 710 1381 724 1389 q 675 1372 697 1372 q 639 1386 651 1372 q 631 1421 626 1400 q 688 1507 642 1482 q 781 1532 735 1532 q 876 1504 843 1532 q 897 1417 908 1476 q 878 1382 893 1396 q 844 1357 864 1368 q 807 1335 825 1346 q 781 1311 789 1325 l 743 1311 z "},"Ẵ":{"ha":813,"x_min":-126,"x_max":1076,"o":"m -25 28 l 685 1061 l 533 765 l 29 28 l -25 28 m -126 0 l -126 35 l 171 35 l 171 0 l -126 0 m 374 0 l 374 35 l 747 35 l 747 0 l 374 0 m 229 343 l 229 382 l 603 382 l 603 343 l 229 343 m 467 14 l 535 760 l 529 760 l 685 1061 l 714 1061 l 638 14 l 467 14 m 736 1149 q 607 1190 646 1149 q 586 1308 568 1232 l 629 1308 q 641 1262 629 1276 q 679 1244 653 1247 q 746 1240 706 1240 q 831 1246 796 1240 q 885 1266 865 1251 q 914 1308 906 1281 l 956 1308 q 888 1192 942 1235 q 736 1149 835 1149 m 565 1343 q 606 1433 579 1393 q 670 1494 633 1472 q 749 1517 707 1517 q 816 1500 789 1517 q 869 1467 843 1483 q 926 1450 894 1450 q 990 1474 964 1450 q 1029 1521 1015 1497 l 1076 1521 q 1000 1388 1050 1431 q 892 1344 950 1344 q 821 1361 849 1344 q 769 1394 793 1378 q 711 1411 744 1411 q 650 1392 676 1411 q 610 1343 624 1372 l 565 1343 z "},"Â":{"ha":813,"x_min":-126,"x_max":983,"o":"m -25 28 l 685 1061 l 533 765 l 29 28 l -25 28 m -126 0 l -126 35 l 171 35 l 171 0 l -126 0 m 374 0 l 374 35 l 747 35 l 747 0 l 374 0 m 229 343 l 229 382 l 603 382 l 603 343 l 229 343 m 467 14 l 535 760 l 529 760 l 685 1061 l 714 1061 l 638 14 l 467 14 m 535 1169 l 756 1364 l 842 1364 l 983 1169 l 924 1169 l 776 1254 l 593 1169 l 535 1169 z "},"Ấ":{"ha":813,"x_min":-126,"x_max":976,"o":"m -25 28 l 685 1061 l 533 765 l 29 28 l -25 28 m -126 0 l -126 35 l 171 35 l 171 0 l -126 0 m 374 0 l 374 35 l 747 35 l 747 0 l 374 0 m 229 343 l 229 382 l 603 382 l 603 343 l 229 343 m 467 14 l 535 760 l 529 760 l 685 1061 l 714 1061 l 638 14 l 467 14 m 536 1142 l 715 1281 l 801 1281 l 929 1142 l 869 1142 l 750 1199 l 594 1142 l 536 1142 m 567 1328 l 806 1472 q 876 1511 850 1500 q 924 1522 903 1522 q 962 1508 947 1522 q 976 1468 976 1494 q 953 1415 976 1438 q 881 1382 931 1393 l 639 1328 l 567 1328 z "},"Ậ":{"ha":813,"x_min":-126,"x_max":983,"o":"m -25 28 l 685 1061 l 533 765 l 29 28 l -25 28 m -126 0 l -126 35 l 171 35 l 171 0 l -126 0 m 374 0 l 374 35 l 747 35 l 747 0 l 374 0 m 229 343 l 229 382 l 603 382 l 603 343 l 229 343 m 467 14 l 535 760 l 529 760 l 685 1061 l 714 1061 l 638 14 l 467 14 m 290 -282 q 224 -255 251 -282 q 197 -189 197 -228 q 224 -122 197 -149 q 290 -94 251 -94 q 358 -122 331 -94 q 385 -189 385 -149 q 358 -255 385 -228 q 290 -282 331 -282 m 535 1169 l 756 1364 l 842 1364 l 983 1169 l 924 1169 l 776 1254 l 593 1169 l 535 1169 z "},"Ầ":{"ha":813,"x_min":-126,"x_max":974,"o":"m -25 28 l 685 1061 l 533 765 l 29 28 l -25 28 m -126 0 l -126 35 l 171 35 l 171 0 l -126 0 m 374 0 l 374 35 l 747 35 l 747 0 l 374 0 m 229 343 l 229 382 l 603 382 l 603 343 l 229 343 m 467 14 l 535 760 l 529 760 l 685 1061 l 714 1061 l 638 14 l 467 14 m 542 1142 l 721 1281 l 807 1281 l 935 1142 l 875 1142 l 756 1199 l 600 1142 l 542 1142 m 900 1344 l 669 1406 q 628 1428 642 1413 q 614 1465 614 1443 q 635 1517 614 1494 q 689 1539 656 1539 q 724 1528 707 1539 q 781 1489 742 1518 l 974 1344 l 900 1344 z "},"Ẩ":{"ha":813,"x_min":-126,"x_max":1042,"o":"m -25 28 l 685 1061 l 533 765 l 29 28 l -25 28 m -126 0 l -126 35 l 171 35 l 171 0 l -126 0 m 374 0 l 374 35 l 747 35 l 747 0 l 374 0 m 229 343 l 229 382 l 603 382 l 603 343 l 229 343 m 467 14 l 535 760 l 529 760 l 685 1061 l 714 1061 l 638 14 l 467 14 m 533 1142 l 713 1281 l 799 1281 l 926 1142 l 867 1142 l 747 1199 l 592 1142 l 533 1142 m 876 1256 q 898 1297 882 1281 q 930 1328 914 1314 q 949 1358 946 1342 q 942 1410 956 1399 q 906 1421 928 1421 q 868 1411 885 1421 q 849 1386 851 1401 q 851 1374 847 1378 q 858 1365 854 1371 q 858 1347 861 1360 q 844 1325 857 1333 q 808 1317 831 1317 q 772 1331 785 1317 q 764 1365 760 1344 q 822 1451 775 1426 q 914 1476 868 1476 q 1009 1449 976 1476 q 1031 1361 1042 1421 q 1012 1326 1026 1340 q 978 1301 997 1313 q 940 1280 958 1290 q 914 1256 922 1269 l 876 1256 z "},"Ẫ":{"ha":813,"x_min":-126,"x_max":1054,"o":"m -25 28 l 685 1061 l 533 765 l 29 28 l -25 28 m -126 0 l -126 35 l 171 35 l 171 0 l -126 0 m 374 0 l 374 35 l 747 35 l 747 0 l 374 0 m 229 343 l 229 382 l 603 382 l 603 343 l 229 343 m 467 14 l 535 760 l 529 760 l 685 1061 l 714 1061 l 638 14 l 467 14 m 536 1142 l 715 1281 l 801 1281 l 929 1142 l 869 1142 l 750 1199 l 594 1142 l 536 1142 m 543 1318 q 584 1408 557 1368 q 648 1469 611 1447 q 726 1492 685 1492 q 794 1475 767 1492 q 847 1442 821 1458 q 904 1425 872 1425 q 967 1449 942 1425 q 1007 1496 993 1472 l 1054 1496 q 978 1363 1028 1406 q 869 1319 928 1319 q 799 1336 826 1319 q 747 1369 771 1353 q 689 1386 722 1386 q 628 1367 654 1386 q 588 1318 601 1347 l 543 1318 z "},"Ȁ":{"ha":813,"x_min":-126,"x_max":1065,"o":"m -25 28 l 685 1061 l 533 765 l 29 28 l -25 28 m -126 0 l -126 35 l 171 35 l 171 0 l -126 0 m 374 0 l 374 35 l 747 35 l 747 0 l 374 0 m 229 343 l 229 382 l 603 382 l 603 343 l 229 343 m 467 14 l 535 760 l 529 760 l 685 1061 l 714 1061 l 638 14 l 467 14 m 992 1169 l 761 1231 q 719 1253 733 1238 q 706 1290 706 1268 q 726 1342 706 1319 q 781 1364 747 1364 q 816 1353 799 1364 q 872 1314 833 1343 l 1065 1169 l 992 1169 m 708 1169 l 478 1231 q 436 1253 450 1238 q 422 1290 422 1268 q 443 1342 422 1319 q 497 1364 464 1364 q 533 1353 515 1364 q 589 1314 550 1343 l 782 1169 l 708 1169 z "},"Ä":{"ha":813,"x_min":-126,"x_max":994,"o":"m -25 28 l 685 1061 l 533 765 l 29 28 l -25 28 m -126 0 l -126 35 l 171 35 l 171 0 l -126 0 m 374 0 l 374 35 l 747 35 l 747 0 l 374 0 m 229 343 l 229 382 l 603 382 l 603 343 l 229 343 m 467 14 l 535 760 l 529 760 l 685 1061 l 714 1061 l 638 14 l 467 14 m 907 1164 q 845 1189 871 1164 q 819 1250 819 1214 q 845 1311 819 1286 q 907 1336 871 1336 q 969 1311 943 1336 q 994 1250 994 1286 q 969 1189 994 1214 q 907 1164 943 1164 m 607 1164 q 544 1189 569 1164 q 519 1250 519 1214 q 544 1311 519 1286 q 607 1336 569 1336 q 669 1311 643 1336 q 694 1250 694 1286 q 669 1189 694 1214 q 607 1164 643 1164 z "},"Ạ":{"ha":813,"x_min":-126,"x_max":747,"o":"m -25 28 l 685 1061 l 533 765 l 29 28 l -25 28 m -126 0 l -126 35 l 171 35 l 171 0 l -126 0 m 374 0 l 374 35 l 747 35 l 747 0 l 374 0 m 229 343 l 229 382 l 603 382 l 603 343 l 229 343 m 467 14 l 535 760 l 529 760 l 685 1061 l 714 1061 l 638 14 l 467 14 m 290 -282 q 224 -255 251 -282 q 197 -189 197 -228 q 224 -122 197 -149 q 290 -94 251 -94 q 358 -122 331 -94 q 385 -189 385 -149 q 358 -255 385 -228 q 290 -282 331 -282 z "},"À":{"ha":813,"x_min":-126,"x_max":924,"o":"m -25 28 l 685 1061 l 533 765 l 29 28 l -25 28 m -126 0 l -126 35 l 171 35 l 171 0 l -126 0 m 374 0 l 374 35 l 747 35 l 747 0 l 374 0 m 229 343 l 229 382 l 603 382 l 603 343 l 229 343 m 467 14 l 535 760 l 529 760 l 685 1061 l 714 1061 l 638 14 l 467 14 m 850 1169 l 619 1231 q 578 1253 592 1238 q 564 1290 564 1268 q 585 1342 564 1319 q 639 1364 606 1364 q 674 1353 657 1364 q 731 1314 692 1343 l 924 1169 l 850 1169 z "},"Ả":{"ha":813,"x_min":-126,"x_max":913,"o":"m -25 28 l 685 1061 l 533 765 l 29 28 l -25 28 m -126 0 l -126 35 l 171 35 l 171 0 l -126 0 m 374 0 l 374 35 l 747 35 l 747 0 l 374 0 m 229 343 l 229 382 l 603 382 l 603 343 l 229 343 m 467 14 l 535 760 l 529 760 l 685 1061 l 714 1061 l 638 14 l 467 14 m 747 1142 q 762 1174 751 1161 q 785 1199 772 1188 q 807 1222 797 1211 q 819 1244 817 1232 q 813 1296 826 1285 q 776 1307 799 1307 q 739 1297 756 1307 q 719 1272 722 1288 q 722 1260 718 1264 q 728 1251 725 1257 q 729 1233 732 1246 q 715 1211 728 1219 q 679 1203 701 1203 q 643 1217 656 1203 q 635 1251 631 1231 q 667 1317 643 1293 q 722 1352 690 1342 q 785 1363 754 1363 q 880 1335 847 1363 q 901 1247 913 1307 q 883 1213 897 1226 q 849 1188 868 1199 q 811 1166 829 1176 q 785 1142 793 1156 l 747 1142 z "},"Ȃ":{"ha":813,"x_min":-126,"x_max":953,"o":"m -25 28 l 685 1061 l 533 765 l 29 28 l -25 28 m -126 0 l -126 35 l 171 35 l 171 0 l -126 0 m 374 0 l 374 35 l 747 35 l 747 0 l 374 0 m 229 343 l 229 382 l 603 382 l 603 343 l 229 343 m 467 14 l 535 760 l 529 760 l 685 1061 l 714 1061 l 638 14 l 467 14 m 513 1169 q 594 1305 528 1250 q 763 1360 661 1360 q 903 1317 853 1360 q 953 1213 953 1274 q 947 1169 953 1192 l 900 1169 q 863 1240 900 1222 q 758 1258 826 1258 q 624 1237 675 1258 q 560 1169 574 1215 l 513 1169 z "},"Ā":{"ha":813,"x_min":-126,"x_max":996,"o":"m -25 28 l 685 1061 l 533 765 l 29 28 l -25 28 m -126 0 l -126 35 l 171 35 l 171 0 l -126 0 m 374 0 l 374 35 l 747 35 l 747 0 l 374 0 m 229 343 l 229 382 l 603 382 l 603 343 l 229 343 m 467 14 l 535 760 l 529 760 l 685 1061 l 714 1061 l 638 14 l 467 14 m 531 1189 l 551 1281 l 996 1281 l 975 1189 l 531 1189 z "},"Ą":{"ha":813,"x_min":-126,"x_max":747,"o":"m -25 28 l 685 1061 l 533 765 l 29 28 l -25 28 m -126 0 l -126 35 l 171 35 l 171 0 l -126 0 m 374 0 l 374 35 l 747 35 l 747 0 l 374 0 m 229 343 l 229 382 l 603 382 l 603 343 l 229 343 m 467 14 l 535 760 l 529 760 l 685 1061 l 714 1061 l 638 14 l 467 14 m 447 -339 q 370 -316 400 -339 q 340 -256 340 -293 q 411 -125 340 -197 q 600 8 482 -53 l 650 0 q 506 -116 557 -57 q 456 -226 456 -175 q 469 -267 456 -253 q 508 -282 483 -282 q 544 -275 525 -282 q 588 -253 563 -268 l 604 -275 q 533 -321 576 -303 q 447 -339 490 -339 z "},"Å":{"ha":813,"x_min":-126,"x_max":856,"o":"m -25 28 l 685 1061 l 533 765 l 29 28 l -25 28 m -126 0 l -126 35 l 171 35 l 171 0 l -126 0 m 374 0 l 374 35 l 747 35 l 747 0 l 374 0 m 229 343 l 229 382 l 603 382 l 603 343 l 229 343 m 467 14 l 535 760 l 529 760 l 685 1061 l 714 1061 l 638 14 l 467 14 m 754 1142 q 682 1172 713 1142 q 651 1246 651 1203 q 682 1317 651 1288 q 754 1346 713 1346 q 826 1317 796 1346 q 856 1246 856 1289 q 826 1172 856 1203 q 754 1142 797 1142 m 754 1188 q 794 1203 778 1188 q 810 1242 810 1218 q 793 1283 810 1267 q 754 1300 776 1300 q 715 1283 732 1300 q 697 1242 697 1267 q 715 1203 697 1218 q 754 1188 732 1188 z "},"Ǻ":{"ha":813,"x_min":-126,"x_max":1157,"o":"m -25 28 l 685 1061 l 533 765 l 29 28 l -25 28 m -126 0 l -126 35 l 171 35 l 171 0 l -126 0 m 374 0 l 374 35 l 747 35 l 747 0 l 374 0 m 229 343 l 229 382 l 603 382 l 603 343 l 229 343 m 467 14 l 535 760 l 529 760 l 685 1061 l 714 1061 l 638 14 l 467 14 m 725 1075 q 653 1106 683 1075 q 622 1179 622 1136 q 653 1250 622 1221 q 725 1279 683 1279 q 797 1251 767 1279 q 826 1179 826 1222 q 797 1106 826 1136 q 725 1075 768 1075 m 725 1121 q 765 1136 749 1121 q 781 1175 781 1151 q 764 1217 781 1200 q 725 1233 747 1233 q 685 1217 703 1233 q 668 1175 668 1200 q 685 1136 668 1151 q 725 1121 703 1121 m 747 1246 l 986 1390 q 1057 1429 1031 1418 q 1104 1440 1083 1440 q 1142 1426 1128 1440 q 1157 1386 1157 1413 q 1134 1333 1157 1356 q 1061 1300 1111 1311 l 819 1246 l 747 1246 z "},"Ã":{"ha":813,"x_min":-126,"x_max":1022,"o":"m -25 28 l 685 1061 l 533 765 l 29 28 l -25 28 m -126 0 l -126 35 l 171 35 l 171 0 l -126 0 m 374 0 l 374 35 l 747 35 l 747 0 l 374 0 m 229 343 l 229 382 l 603 382 l 603 343 l 229 343 m 467 14 l 535 760 l 529 760 l 685 1061 l 714 1061 l 638 14 l 467 14 m 511 1168 q 552 1258 525 1218 q 616 1319 579 1297 q 694 1342 653 1342 q 762 1325 735 1342 q 815 1292 789 1308 q 872 1275 840 1275 q 935 1299 910 1275 q 975 1346 961 1322 l 1022 1346 q 946 1213 996 1256 q 838 1169 896 1169 q 767 1186 794 1169 q 715 1219 739 1203 q 657 1236 690 1236 q 596 1217 622 1236 q 556 1168 569 1197 l 511 1168 z "},"Æ":{"ha":1314,"x_min":-157,"x_max":1329,"o":"m -56 28 l 632 1029 l 675 1019 l -1 28 l -56 28 m -157 0 l -157 35 l 140 35 l 140 0 l -157 0 m 199 343 l 199 382 l 572 382 l 572 343 l 199 343 m 343 0 l 343 35 l 889 35 q 1003 58 951 35 q 1103 144 1054 82 q 1204 322 1151 206 l 1246 322 l 1163 0 l 343 0 m 476 0 l 704 1047 l 867 1047 l 633 0 l 476 0 m 939 314 q 929 447 939 401 q 890 508 919 492 q 803 525 861 525 l 682 525 l 682 560 l 825 560 q 917 575 881 560 q 981 630 954 590 q 1028 742 1007 669 l 1063 742 l 981 314 l 939 314 m 1249 768 q 1231 918 1249 865 q 1161 992 1213 971 q 1011 1013 1110 1013 l 469 1013 l 469 1047 l 1329 1047 l 1290 768 l 1249 768 z "},"Ǽ":{"ha":1314,"x_min":-157,"x_max":1329,"o":"m -56 28 l 632 1029 l 675 1019 l -1 28 l -56 28 m -157 0 l -157 35 l 140 35 l 140 0 l -157 0 m 199 343 l 199 382 l 572 382 l 572 343 l 199 343 m 343 0 l 343 35 l 889 35 q 1003 58 951 35 q 1103 144 1054 82 q 1204 322 1151 206 l 1246 322 l 1163 0 l 343 0 m 476 0 l 704 1047 l 867 1047 l 633 0 l 476 0 m 939 314 q 929 447 939 401 q 890 508 919 492 q 803 525 861 525 l 682 525 l 682 560 l 825 560 q 917 575 881 560 q 981 630 954 590 q 1028 742 1007 669 l 1063 742 l 981 314 l 939 314 m 1249 768 q 1231 918 1249 865 q 1161 992 1213 971 q 1011 1013 1110 1013 l 469 1013 l 469 1047 l 1329 1047 l 1290 768 l 1249 768 m 757 1169 l 996 1314 q 1067 1353 1040 1342 q 1114 1364 1093 1364 q 1152 1350 1138 1364 q 1167 1310 1167 1336 q 1144 1257 1167 1279 q 1071 1224 1121 1235 l 829 1169 l 757 1169 z "},"B":{"ha":936,"x_min":-10,"x_max":944,"o":"m -10 0 l -10 35 l 481 35 q 588 71 539 35 q 668 173 638 107 q 699 328 699 239 q 653 479 699 433 q 525 525 608 525 l 321 525 l 321 561 l 504 561 q 560 556 521 561 q 631 543 600 550 q 763 490 708 531 q 848 392 818 449 q 878 275 878 336 q 836 135 878 197 q 715 36 794 72 q 519 0 635 0 l -10 0 m 110 0 l 338 1047 l 500 1047 l 267 0 l 110 0 m 279 525 l 279 560 l 554 560 q 669 597 621 560 q 742 699 717 633 q 768 846 768 764 q 731 972 768 931 q 588 1013 694 1013 l 200 1013 l 200 1047 l 588 1047 q 855 982 765 1047 q 944 814 944 917 q 886 664 944 729 q 723 562 828 599 q 476 525 618 525 l 279 525 z "},"C":{"ha":963,"x_min":110,"x_max":1000,"o":"m 483 -18 q 281 40 365 -18 q 153 193 197 97 q 110 400 110 289 q 140 590 110 494 q 225 769 171 685 q 352 920 279 854 q 511 1024 425 986 q 689 1063 597 1063 q 801 1042 753 1063 q 897 975 850 1021 l 965 1047 l 1000 1047 l 935 751 l 900 751 q 871 897 900 836 q 792 990 842 957 q 679 1022 742 1022 q 558 986 613 1022 q 463 888 504 950 q 390 749 421 826 q 340 590 360 672 q 311 429 321 507 q 301 288 301 351 q 351 83 301 139 q 493 26 400 26 q 610 48 549 26 q 737 126 672 69 q 864 286 801 182 l 899 286 l 825 0 l 790 0 l 749 68 q 625 6 692 29 q 483 -18 558 -18 z "},"Ć":{"ha":963,"x_min":110,"x_max":1000,"o":"m 483 -18 q 281 40 365 -18 q 153 193 197 97 q 110 400 110 289 q 140 590 110 494 q 225 769 171 685 q 352 920 279 854 q 511 1024 425 986 q 689 1063 597 1063 q 801 1042 753 1063 q 897 975 850 1021 l 965 1047 l 1000 1047 l 935 751 l 900 751 q 871 897 900 836 q 792 990 842 957 q 679 1022 742 1022 q 558 986 613 1022 q 463 888 504 950 q 390 749 421 826 q 340 590 360 672 q 311 429 321 507 q 301 288 301 351 q 351 83 301 139 q 493 26 400 26 q 610 48 549 26 q 737 126 672 69 q 864 286 801 182 l 899 286 l 825 0 l 790 0 l 749 68 q 625 6 692 29 q 483 -18 558 -18 m 513 1169 l 751 1314 q 822 1353 796 1342 q 869 1364 849 1364 q 908 1350 893 1364 q 922 1310 922 1336 q 899 1257 922 1279 q 826 1224 876 1235 l 585 1169 l 513 1169 z "},"Č":{"ha":963,"x_min":110,"x_max":1000,"o":"m 483 -18 q 281 40 365 -18 q 153 193 197 97 q 110 400 110 289 q 140 590 110 494 q 225 769 171 685 q 352 920 279 854 q 511 1024 425 986 q 689 1063 597 1063 q 801 1042 753 1063 q 897 975 850 1021 l 965 1047 l 1000 1047 l 935 751 l 900 751 q 871 897 900 836 q 792 990 842 957 q 679 1022 742 1022 q 558 986 613 1022 q 463 888 504 950 q 390 749 421 826 q 340 590 360 672 q 311 429 321 507 q 301 288 301 351 q 351 83 301 139 q 493 26 400 26 q 610 48 549 26 q 737 126 672 69 q 864 286 801 182 l 899 286 l 825 0 l 790 0 l 749 68 q 625 6 692 29 q 483 -18 558 -18 m 672 1169 l 531 1364 l 590 1364 l 738 1279 l 921 1364 l 981 1364 l 758 1169 l 672 1169 z "},"Ç":{"ha":963,"x_min":110,"x_max":1000,"o":"m 483 -18 q 281 40 365 -18 q 153 193 197 97 q 110 400 110 289 q 140 590 110 494 q 225 769 171 685 q 352 920 279 854 q 511 1024 425 986 q 689 1063 597 1063 q 801 1042 753 1063 q 897 975 850 1021 l 965 1047 l 1000 1047 l 935 751 l 900 751 q 871 897 900 836 q 792 990 842 957 q 679 1022 742 1022 q 558 986 613 1022 q 463 888 504 950 q 390 749 421 826 q 340 590 360 672 q 311 429 321 507 q 301 288 301 351 q 351 83 301 139 q 493 26 400 26 q 610 48 549 26 q 737 126 672 69 q 864 286 801 182 l 899 286 l 825 0 l 790 0 l 749 68 q 625 6 692 29 q 483 -18 558 -18 m 397 -314 q 332 -306 358 -314 q 294 -290 306 -297 l 318 -256 q 349 -266 326 -261 q 392 -271 371 -271 q 463 -251 432 -271 q 494 -192 494 -232 q 474 -144 494 -161 q 407 -125 453 -126 l 489 14 l 531 14 l 471 -92 l 497 -92 q 581 -116 551 -92 q 611 -181 611 -140 q 576 -256 611 -226 q 492 -299 542 -285 q 397 -314 443 -314 z "},"Ĉ":{"ha":963,"x_min":110,"x_max":1000,"o":"m 483 -18 q 281 40 365 -18 q 153 193 197 97 q 110 400 110 289 q 140 590 110 494 q 225 769 171 685 q 352 920 279 854 q 511 1024 425 986 q 689 1063 597 1063 q 801 1042 753 1063 q 897 975 850 1021 l 965 1047 l 1000 1047 l 935 751 l 900 751 q 871 897 900 836 q 792 990 842 957 q 679 1022 742 1022 q 558 986 613 1022 q 463 888 504 950 q 390 749 421 826 q 340 590 360 672 q 311 429 321 507 q 301 288 301 351 q 351 83 301 139 q 493 26 400 26 q 610 48 549 26 q 737 126 672 69 q 864 286 801 182 l 899 286 l 825 0 l 790 0 l 749 68 q 625 6 692 29 q 483 -18 558 -18 m 508 1169 l 729 1364 l 815 1364 l 957 1169 l 897 1169 l 750 1254 l 567 1169 l 508 1169 z "},"Ċ":{"ha":963,"x_min":110,"x_max":1000,"o":"m 483 -18 q 281 40 365 -18 q 153 193 197 97 q 110 400 110 289 q 140 590 110 494 q 225 769 171 685 q 352 920 279 854 q 511 1024 425 986 q 689 1063 597 1063 q 801 1042 753 1063 q 897 975 850 1021 l 965 1047 l 1000 1047 l 935 751 l 900 751 q 871 897 900 836 q 792 990 842 957 q 679 1022 742 1022 q 558 986 613 1022 q 463 888 504 950 q 390 749 421 826 q 340 590 360 672 q 311 429 321 507 q 301 288 301 351 q 351 83 301 139 q 493 26 400 26 q 610 48 549 26 q 737 126 672 69 q 864 286 801 182 l 899 286 l 825 0 l 790 0 l 749 68 q 625 6 692 29 q 483 -18 558 -18 m 725 1149 q 659 1176 686 1149 q 632 1242 632 1203 q 659 1309 632 1282 q 725 1336 686 1336 q 792 1309 765 1336 q 819 1242 819 1282 q 792 1176 819 1203 q 725 1149 765 1149 z "},"D":{"ha":1061,"x_min":-19,"x_max":1035,"o":"m -19 0 l -19 38 l 417 38 q 593 85 513 38 q 733 222 674 133 q 824 429 792 310 q 857 692 857 549 q 840 841 857 779 q 789 940 824 903 q 701 995 754 978 q 578 1013 649 1013 l 190 1013 l 190 1047 l 578 1047 q 824 994 722 1047 q 981 843 926 942 q 1035 608 1035 744 q 990 368 1035 479 q 865 174 946 257 q 675 46 785 92 q 433 0 565 0 l -19 0 m 100 0 l 328 1047 l 490 1047 l 257 0 l 100 0 z "},"Ǳ":{"ha":1963,"x_min":-19,"x_max":2036,"o":"m -19 0 l -19 38 l 417 38 q 593 85 513 38 q 733 222 674 133 q 824 429 792 310 q 857 692 857 549 q 840 841 857 779 q 789 940 824 903 q 701 995 754 978 q 578 1013 649 1013 l 190 1013 l 190 1047 l 578 1047 q 824 994 722 1047 q 981 843 926 942 q 1035 608 1035 744 q 990 368 1035 479 q 865 174 946 257 q 675 46 785 92 q 433 0 565 0 l -19 0 m 100 0 l 328 1047 l 490 1047 l 257 0 l 100 0 m 1074 35 l 1833 1007 l 1833 1013 l 2036 1013 l 1268 40 l 1268 35 l 1074 35 m 1074 0 l 1074 35 l 1551 35 q 1665 58 1614 35 q 1765 144 1717 82 q 1867 322 1814 206 l 1908 322 l 1825 0 l 1074 0 m 1269 753 l 1353 1047 l 2036 1047 l 2036 1013 l 1626 1013 q 1513 992 1565 1013 q 1413 915 1461 971 q 1311 753 1364 858 l 1269 753 z "},"Ǆ":{"ha":1963,"x_min":-19,"x_max":2036,"o":"m -19 0 l -19 38 l 417 38 q 593 85 513 38 q 733 222 674 133 q 824 429 792 310 q 857 692 857 549 q 840 841 857 779 q 789 940 824 903 q 701 995 754 978 q 578 1013 649 1013 l 190 1013 l 190 1047 l 578 1047 q 824 994 722 1047 q 981 843 926 942 q 1035 608 1035 744 q 990 368 1035 479 q 865 174 946 257 q 675 46 785 92 q 433 0 565 0 l -19 0 m 100 0 l 328 1047 l 490 1047 l 257 0 l 100 0 m 1074 35 l 1833 1007 l 1833 1013 l 2036 1013 l 1268 40 l 1268 35 l 1074 35 m 1074 0 l 1074 35 l 1551 35 q 1665 58 1614 35 q 1765 144 1717 82 q 1867 322 1814 206 l 1908 322 l 1825 0 l 1074 0 m 1269 753 l 1353 1047 l 2036 1047 l 2036 1013 l 1626 1013 q 1513 992 1565 1013 q 1413 915 1461 971 q 1311 753 1364 858 l 1269 753 m 1661 1169 l 1519 1364 l 1579 1364 l 1726 1279 l 1910 1364 l 1969 1364 l 1747 1169 l 1661 1169 z "},"Ð":{"ha":1061,"x_min":-19,"x_max":1035,"o":"m -19 0 l -19 38 l 417 38 q 593 85 513 38 q 733 222 674 133 q 824 429 792 310 q 857 692 857 549 q 840 841 857 779 q 789 940 824 903 q 701 995 754 978 q 578 1013 649 1013 l 190 1013 l 190 1047 l 578 1047 q 824 994 722 1047 q 981 843 926 942 q 1035 608 1035 744 q 990 368 1035 479 q 865 174 946 257 q 675 46 785 92 q 433 0 565 0 l -19 0 m 100 0 l 328 1047 l 490 1047 l 257 0 l 100 0 m 22 510 l 22 558 l 529 558 l 529 510 l 22 510 z "},"Ď":{"ha":1061,"x_min":-19,"x_max":1035,"o":"m -19 0 l -19 38 l 417 38 q 593 85 513 38 q 733 222 674 133 q 824 429 792 310 q 857 692 857 549 q 840 841 857 779 q 789 940 824 903 q 701 995 754 978 q 578 1013 649 1013 l 190 1013 l 190 1047 l 578 1047 q 824 994 722 1047 q 981 843 926 942 q 1035 608 1035 744 q 990 368 1035 479 q 865 174 946 257 q 675 46 785 92 q 433 0 565 0 l -19 0 m 100 0 l 328 1047 l 490 1047 l 257 0 l 100 0 m 679 1169 l 538 1364 l 597 1364 l 744 1279 l 928 1364 l 988 1364 l 765 1169 l 679 1169 z "},"Đ":{"ha":1061,"x_min":-19,"x_max":1035,"o":"m -19 0 l -19 38 l 417 38 q 593 85 513 38 q 733 222 674 133 q 824 429 792 310 q 857 692 857 549 q 840 841 857 779 q 789 940 824 903 q 701 995 754 978 q 578 1013 649 1013 l 190 1013 l 190 1047 l 578 1047 q 824 994 722 1047 q 981 843 926 942 q 1035 608 1035 744 q 990 368 1035 479 q 865 174 946 257 q 675 46 785 92 q 433 0 565 0 l -19 0 m 100 0 l 328 1047 l 490 1047 l 257 0 l 100 0 m 22 510 l 22 558 l 529 558 l 529 510 l 22 510 z "},"Ḍ":{"ha":1061,"x_min":-19,"x_max":1035,"o":"m -19 0 l -19 38 l 417 38 q 593 85 513 38 q 733 222 674 133 q 824 429 792 310 q 857 692 857 549 q 840 841 857 779 q 789 940 824 903 q 701 995 754 978 q 578 1013 649 1013 l 190 1013 l 190 1047 l 578 1047 q 824 994 722 1047 q 981 843 926 942 q 1035 608 1035 744 q 990 368 1035 479 q 865 174 946 257 q 675 46 785 92 q 433 0 565 0 l -19 0 m 100 0 l 328 1047 l 490 1047 l 257 0 l 100 0 m 414 -282 q 348 -255 375 -282 q 321 -189 321 -228 q 348 -122 321 -149 q 414 -94 375 -94 q 481 -122 454 -94 q 508 -189 508 -149 q 481 -255 508 -228 q 414 -282 454 -282 z "},"ǲ":{"ha":1719,"x_min":-19,"x_max":1690,"o":"m -19 0 l -19 38 l 417 38 q 593 85 513 38 q 733 222 674 133 q 824 429 792 310 q 857 692 857 549 q 840 841 857 779 q 789 940 824 903 q 701 995 754 978 q 578 1013 649 1013 l 190 1013 l 190 1047 l 578 1047 q 824 994 722 1047 q 981 843 926 942 q 1035 608 1035 744 q 990 368 1035 479 q 865 174 946 257 q 675 46 785 92 q 433 0 565 0 l -19 0 m 100 0 l 328 1047 l 490 1047 l 257 0 l 100 0 m 1114 -11 q 1092 -2 1099 -11 q 1085 21 1085 7 q 1105 72 1085 42 q 1181 156 1125 101 l 1532 492 l 1529 496 q 1432 477 1476 483 q 1349 471 1388 471 q 1287 475 1317 471 q 1225 492 1257 479 l 1175 399 l 1151 408 l 1254 625 l 1275 625 q 1374 597 1333 607 q 1449 581 1415 586 q 1521 574 1483 575 q 1611 572 1558 572 q 1629 582 1625 572 q 1635 603 1633 592 q 1642 625 1636 615 q 1665 635 1647 635 q 1690 613 1690 635 q 1681 590 1690 606 q 1626 531 1671 574 l 1246 167 l 1246 161 q 1335 151 1290 161 q 1419 129 1379 142 q 1492 107 1458 117 q 1547 97 1525 97 q 1587 110 1575 97 q 1599 138 1599 124 q 1587 157 1599 153 q 1560 164 1575 161 q 1534 175 1546 167 q 1522 206 1522 183 q 1538 244 1522 232 q 1572 257 1554 257 q 1617 230 1601 257 q 1632 167 1632 203 q 1604 74 1632 115 q 1531 7 1576 32 q 1431 -18 1485 -18 q 1326 3 1376 -18 q 1234 44 1275 24 q 1168 65 1193 65 q 1144 53 1146 65 q 1147 27 1143 42 q 1147 1 1151 13 q 1114 -11 1143 -11 z "},"ǅ":{"ha":1719,"x_min":-19,"x_max":1772,"o":"m -19 0 l -19 38 l 417 38 q 593 85 513 38 q 733 222 674 133 q 824 429 792 310 q 857 692 857 549 q 840 841 857 779 q 789 940 824 903 q 701 995 754 978 q 578 1013 649 1013 l 190 1013 l 190 1047 l 578 1047 q 824 994 722 1047 q 981 843 926 942 q 1035 608 1035 744 q 990 368 1035 479 q 865 174 946 257 q 675 46 785 92 q 433 0 565 0 l -19 0 m 100 0 l 328 1047 l 490 1047 l 257 0 l 100 0 m 1114 -11 q 1092 -2 1099 -11 q 1085 21 1085 7 q 1105 72 1085 42 q 1181 156 1125 101 l 1532 492 l 1529 496 q 1432 477 1476 483 q 1349 471 1388 471 q 1287 475 1317 471 q 1225 492 1257 479 l 1175 399 l 1151 408 l 1254 625 l 1275 625 q 1374 597 1333 607 q 1449 581 1415 586 q 1521 574 1483 575 q 1611 572 1558 572 q 1629 582 1625 572 q 1635 603 1633 592 q 1642 625 1636 615 q 1665 635 1647 635 q 1690 613 1690 635 q 1681 590 1690 606 q 1626 531 1671 574 l 1246 167 l 1246 161 q 1335 151 1290 161 q 1419 129 1379 142 q 1492 107 1458 117 q 1547 97 1525 97 q 1587 110 1575 97 q 1599 138 1599 124 q 1587 157 1599 153 q 1560 164 1575 161 q 1534 175 1546 167 q 1522 206 1522 183 q 1538 244 1522 232 q 1572 257 1554 257 q 1617 230 1601 257 q 1632 167 1632 203 q 1604 74 1632 115 q 1531 7 1576 32 q 1431 -18 1485 -18 q 1326 3 1376 -18 q 1234 44 1275 24 q 1168 65 1193 65 q 1144 53 1146 65 q 1147 27 1143 42 q 1147 1 1151 13 q 1114 -11 1143 -11 m 1444 728 l 1322 1006 l 1382 1006 l 1515 858 l 1713 1006 l 1772 1006 l 1531 728 l 1444 728 z "},"E":{"ha":919,"x_min":-51,"x_max":935,"o":"m 82 0 l 310 1047 l 472 1047 l 239 0 l 82 0 m -51 0 l -51 35 l 494 35 q 608 58 557 35 q 708 144 660 82 q 810 322 757 206 l 851 322 l 768 0 l -51 0 m 544 314 q 535 447 544 401 q 496 508 525 492 q 408 525 467 525 l 288 525 l 288 560 l 431 560 q 523 575 486 560 q 586 630 560 590 q 633 742 613 669 l 668 742 l 586 314 l 544 314 m 854 768 q 836 918 854 865 q 767 992 818 971 q 617 1013 715 1013 l 158 1013 l 158 1047 l 935 1047 l 896 768 l 854 768 z "},"É":{"ha":919,"x_min":-51,"x_max":935,"o":"m 82 0 l 310 1047 l 472 1047 l 239 0 l 82 0 m -51 0 l -51 35 l 494 35 q 608 58 557 35 q 708 144 660 82 q 810 322 757 206 l 851 322 l 768 0 l -51 0 m 544 314 q 535 447 544 401 q 496 508 525 492 q 408 525 467 525 l 288 525 l 288 560 l 431 560 q 523 575 486 560 q 586 630 560 590 q 633 742 613 669 l 668 742 l 586 314 l 544 314 m 854 768 q 836 918 854 865 q 767 992 818 971 q 617 1013 715 1013 l 158 1013 l 158 1047 l 935 1047 l 896 768 l 854 768 m 401 1169 l 640 1314 q 711 1353 685 1342 q 758 1364 738 1364 q 797 1350 782 1364 q 811 1310 811 1336 q 788 1257 811 1279 q 715 1224 765 1235 l 474 1169 l 401 1169 z "},"Ĕ":{"ha":919,"x_min":-51,"x_max":935,"o":"m 82 0 l 310 1047 l 472 1047 l 239 0 l 82 0 m -51 0 l -51 35 l 494 35 q 608 58 557 35 q 708 144 660 82 q 810 322 757 206 l 851 322 l 768 0 l -51 0 m 544 314 q 535 447 544 401 q 496 508 525 492 q 408 525 467 525 l 288 525 l 288 560 l 431 560 q 523 575 486 560 q 586 630 560 590 q 633 742 613 669 l 668 742 l 586 314 l 544 314 m 854 768 q 836 918 854 865 q 767 992 818 971 q 617 1013 715 1013 l 158 1013 l 158 1047 l 935 1047 l 896 768 l 854 768 m 604 1169 q 454 1222 504 1169 q 425 1360 404 1275 l 472 1360 q 489 1306 472 1325 q 538 1278 506 1286 q 614 1271 569 1271 q 710 1281 669 1271 q 778 1310 751 1290 q 813 1360 804 1329 l 860 1360 q 777 1224 843 1279 q 604 1169 711 1169 z "},"Ě":{"ha":919,"x_min":-51,"x_max":935,"o":"m 82 0 l 310 1047 l 472 1047 l 239 0 l 82 0 m -51 0 l -51 35 l 494 35 q 608 58 557 35 q 708 144 660 82 q 810 322 757 206 l 851 322 l 768 0 l -51 0 m 544 314 q 535 447 544 401 q 496 508 525 492 q 408 525 467 525 l 288 525 l 288 560 l 431 560 q 523 575 486 560 q 586 630 560 590 q 633 742 613 669 l 668 742 l 586 314 l 544 314 m 854 768 q 836 918 854 865 q 767 992 818 971 q 617 1013 715 1013 l 158 1013 l 158 1047 l 935 1047 l 896 768 l 854 768 m 561 1169 l 419 1364 l 479 1364 l 626 1279 l 810 1364 l 869 1364 l 647 1169 l 561 1169 z "},"Ê":{"ha":919,"x_min":-51,"x_max":935,"o":"m 82 0 l 310 1047 l 472 1047 l 239 0 l 82 0 m -51 0 l -51 35 l 494 35 q 608 58 557 35 q 708 144 660 82 q 810 322 757 206 l 851 322 l 768 0 l -51 0 m 544 314 q 535 447 544 401 q 496 508 525 492 q 408 525 467 525 l 288 525 l 288 560 l 431 560 q 523 575 486 560 q 586 630 560 590 q 633 742 613 669 l 668 742 l 586 314 l 544 314 m 854 768 q 836 918 854 865 q 767 992 818 971 q 617 1013 715 1013 l 158 1013 l 158 1047 l 935 1047 l 896 768 l 854 768 m 397 1169 l 618 1364 l 704 1364 l 846 1169 l 786 1169 l 639 1254 l 456 1169 l 397 1169 z "},"Ế":{"ha":919,"x_min":-51,"x_max":935,"o":"m 82 0 l 310 1047 l 472 1047 l 239 0 l 82 0 m -51 0 l -51 35 l 494 35 q 608 58 557 35 q 708 144 660 82 q 810 322 757 206 l 851 322 l 768 0 l -51 0 m 544 314 q 535 447 544 401 q 496 508 525 492 q 408 525 467 525 l 288 525 l 288 560 l 431 560 q 523 575 486 560 q 586 630 560 590 q 633 742 613 669 l 668 742 l 586 314 l 544 314 m 854 768 q 836 918 854 865 q 767 992 818 971 q 617 1013 715 1013 l 158 1013 l 158 1047 l 935 1047 l 896 768 l 854 768 m 399 1142 l 578 1281 l 664 1281 l 792 1142 l 732 1142 l 613 1199 l 457 1142 l 399 1142 m 429 1328 l 668 1472 q 739 1511 713 1500 q 786 1522 765 1522 q 824 1508 810 1522 q 839 1468 839 1494 q 816 1415 839 1438 q 743 1382 793 1393 l 501 1328 l 429 1328 z "},"Ệ":{"ha":919,"x_min":-51,"x_max":935,"o":"m 82 0 l 310 1047 l 472 1047 l 239 0 l 82 0 m -51 0 l -51 35 l 494 35 q 608 58 557 35 q 708 144 660 82 q 810 322 757 206 l 851 322 l 768 0 l -51 0 m 544 314 q 535 447 544 401 q 496 508 525 492 q 408 525 467 525 l 288 525 l 288 560 l 431 560 q 523 575 486 560 q 586 630 560 590 q 633 742 613 669 l 668 742 l 586 314 l 544 314 m 854 768 q 836 918 854 865 q 767 992 818 971 q 617 1013 715 1013 l 158 1013 l 158 1047 l 935 1047 l 896 768 l 854 768 m 343 -282 q 277 -255 304 -282 q 250 -189 250 -228 q 277 -122 250 -149 q 343 -94 304 -94 q 410 -122 383 -94 q 438 -189 438 -149 q 410 -255 438 -228 q 343 -282 383 -282 m 369 1183 l 590 1378 l 676 1378 l 818 1183 l 758 1183 l 611 1268 l 428 1183 l 369 1183 z "},"Ề":{"ha":919,"x_min":-51,"x_max":935,"o":"m 82 0 l 310 1047 l 472 1047 l 239 0 l 82 0 m -51 0 l -51 35 l 494 35 q 608 58 557 35 q 708 144 660 82 q 810 322 757 206 l 851 322 l 768 0 l -51 0 m 544 314 q 535 447 544 401 q 496 508 525 492 q 408 525 467 525 l 288 525 l 288 560 l 431 560 q 523 575 486 560 q 586 630 560 590 q 633 742 613 669 l 668 742 l 586 314 l 544 314 m 854 768 q 836 918 854 865 q 767 992 818 971 q 617 1013 715 1013 l 158 1013 l 158 1047 l 935 1047 l 896 768 l 854 768 m 404 1142 l 583 1281 l 669 1281 l 797 1142 l 738 1142 l 618 1199 l 463 1142 l 404 1142 m 763 1344 l 532 1406 q 490 1428 504 1413 q 476 1465 476 1443 q 497 1517 476 1494 q 551 1539 518 1539 q 587 1528 569 1539 q 643 1489 604 1518 l 836 1344 l 763 1344 z "},"Ể":{"ha":919,"x_min":-51,"x_max":935,"o":"m 82 0 l 310 1047 l 472 1047 l 239 0 l 82 0 m -51 0 l -51 35 l 494 35 q 608 58 557 35 q 708 144 660 82 q 810 322 757 206 l 851 322 l 768 0 l -51 0 m 544 314 q 535 447 544 401 q 496 508 525 492 q 408 525 467 525 l 288 525 l 288 560 l 431 560 q 523 575 486 560 q 586 630 560 590 q 633 742 613 669 l 668 742 l 586 314 l 544 314 m 854 768 q 836 918 854 865 q 767 992 818 971 q 617 1013 715 1013 l 158 1013 l 158 1047 l 935 1047 l 896 768 l 854 768 m 396 1142 l 575 1281 l 661 1281 l 789 1142 l 729 1142 l 610 1199 l 454 1142 l 396 1142 m 739 1256 q 760 1297 744 1281 q 792 1328 776 1314 q 811 1358 808 1342 q 804 1410 818 1399 q 768 1421 790 1421 q 731 1411 747 1421 q 711 1386 714 1401 q 713 1374 710 1378 q 720 1365 717 1371 q 721 1347 724 1360 q 706 1325 719 1333 q 671 1317 693 1317 q 635 1331 647 1317 q 626 1365 622 1344 q 684 1451 638 1426 q 776 1476 731 1476 q 872 1449 839 1476 q 893 1361 904 1421 q 874 1326 889 1340 q 840 1301 860 1313 q 803 1280 821 1290 q 776 1256 785 1269 l 739 1256 z "},"Ễ":{"ha":919,"x_min":-51,"x_max":935,"o":"m 82 0 l 310 1047 l 472 1047 l 239 0 l 82 0 m -51 0 l -51 35 l 494 35 q 608 58 557 35 q 708 144 660 82 q 810 322 757 206 l 851 322 l 768 0 l -51 0 m 544 314 q 535 447 544 401 q 496 508 525 492 q 408 525 467 525 l 288 525 l 288 560 l 431 560 q 523 575 486 560 q 586 630 560 590 q 633 742 613 669 l 668 742 l 586 314 l 544 314 m 854 768 q 836 918 854 865 q 767 992 818 971 q 617 1013 715 1013 l 158 1013 l 158 1047 l 935 1047 l 896 768 l 854 768 m 399 1142 l 578 1281 l 664 1281 l 792 1142 l 732 1142 l 613 1199 l 457 1142 l 399 1142 m 406 1318 q 447 1408 419 1368 q 510 1469 474 1447 q 589 1492 547 1492 q 656 1475 629 1492 q 709 1442 683 1458 q 767 1425 735 1425 q 830 1449 804 1425 q 869 1496 856 1472 l 917 1496 q 840 1363 890 1406 q 732 1319 790 1319 q 661 1336 689 1319 q 609 1369 633 1353 q 551 1386 585 1386 q 490 1367 517 1386 q 450 1318 464 1347 l 406 1318 z "},"Ȅ":{"ha":919,"x_min":-51,"x_max":935,"o":"m 82 0 l 310 1047 l 472 1047 l 239 0 l 82 0 m -51 0 l -51 35 l 494 35 q 608 58 557 35 q 708 144 660 82 q 810 322 757 206 l 851 322 l 768 0 l -51 0 m 544 314 q 535 447 544 401 q 496 508 525 492 q 408 525 467 525 l 288 525 l 288 560 l 431 560 q 523 575 486 560 q 586 630 560 590 q 633 742 613 669 l 668 742 l 586 314 l 544 314 m 854 768 q 836 918 854 865 q 767 992 818 971 q 617 1013 715 1013 l 158 1013 l 158 1047 l 935 1047 l 896 768 l 854 768 m 854 1169 l 624 1231 q 582 1253 596 1238 q 568 1290 568 1268 q 589 1342 568 1319 q 643 1364 610 1364 q 678 1353 661 1364 q 735 1314 696 1343 l 928 1169 l 854 1169 m 571 1169 l 340 1231 q 299 1253 313 1238 q 285 1290 285 1268 q 306 1342 285 1319 q 360 1364 326 1364 q 395 1353 378 1364 q 451 1314 413 1343 l 644 1169 l 571 1169 z "},"Ë":{"ha":919,"x_min":-51,"x_max":935,"o":"m 82 0 l 310 1047 l 472 1047 l 239 0 l 82 0 m -51 0 l -51 35 l 494 35 q 608 58 557 35 q 708 144 660 82 q 810 322 757 206 l 851 322 l 768 0 l -51 0 m 544 314 q 535 447 544 401 q 496 508 525 492 q 408 525 467 525 l 288 525 l 288 560 l 431 560 q 523 575 486 560 q 586 630 560 590 q 633 742 613 669 l 668 742 l 586 314 l 544 314 m 854 768 q 836 918 854 865 q 767 992 818 971 q 617 1013 715 1013 l 158 1013 l 158 1047 l 935 1047 l 896 768 l 854 768 m 769 1164 q 708 1189 733 1164 q 682 1250 682 1214 q 708 1311 682 1286 q 769 1336 733 1336 q 831 1311 806 1336 q 857 1250 857 1286 q 831 1189 857 1214 q 769 1164 806 1164 m 469 1164 q 407 1189 432 1164 q 382 1250 382 1214 q 407 1311 382 1286 q 469 1336 432 1336 q 531 1311 506 1336 q 557 1250 557 1286 q 531 1189 557 1214 q 469 1164 506 1164 z "},"Ė":{"ha":919,"x_min":-51,"x_max":935,"o":"m 82 0 l 310 1047 l 472 1047 l 239 0 l 82 0 m -51 0 l -51 35 l 494 35 q 608 58 557 35 q 708 144 660 82 q 810 322 757 206 l 851 322 l 768 0 l -51 0 m 544 314 q 535 447 544 401 q 496 508 525 492 q 408 525 467 525 l 288 525 l 288 560 l 431 560 q 523 575 486 560 q 586 630 560 590 q 633 742 613 669 l 668 742 l 586 314 l 544 314 m 854 768 q 836 918 854 865 q 767 992 818 971 q 617 1013 715 1013 l 158 1013 l 158 1047 l 935 1047 l 896 768 l 854 768 m 614 1149 q 548 1176 575 1149 q 521 1242 521 1203 q 548 1309 521 1282 q 614 1336 575 1336 q 681 1309 654 1336 q 708 1242 708 1282 q 681 1176 708 1203 q 614 1149 654 1149 z "},"Ẹ":{"ha":919,"x_min":-51,"x_max":935,"o":"m 82 0 l 310 1047 l 472 1047 l 239 0 l 82 0 m -51 0 l -51 35 l 494 35 q 608 58 557 35 q 708 144 660 82 q 810 322 757 206 l 851 322 l 768 0 l -51 0 m 544 314 q 535 447 544 401 q 496 508 525 492 q 408 525 467 525 l 288 525 l 288 560 l 431 560 q 523 575 486 560 q 586 630 560 590 q 633 742 613 669 l 668 742 l 586 314 l 544 314 m 854 768 q 836 918 854 865 q 767 992 818 971 q 617 1013 715 1013 l 158 1013 l 158 1047 l 935 1047 l 896 768 l 854 768 m 385 -282 q 319 -255 346 -282 q 292 -189 292 -228 q 319 -122 292 -149 q 385 -94 346 -94 q 452 -122 425 -94 q 479 -189 479 -149 q 452 -255 479 -228 q 385 -282 425 -282 z "},"È":{"ha":919,"x_min":-51,"x_max":935,"o":"m 82 0 l 310 1047 l 472 1047 l 239 0 l 82 0 m -51 0 l -51 35 l 494 35 q 608 58 557 35 q 708 144 660 82 q 810 322 757 206 l 851 322 l 768 0 l -51 0 m 544 314 q 535 447 544 401 q 496 508 525 492 q 408 525 467 525 l 288 525 l 288 560 l 431 560 q 523 575 486 560 q 586 630 560 590 q 633 742 613 669 l 668 742 l 586 314 l 544 314 m 854 768 q 836 918 854 865 q 767 992 818 971 q 617 1013 715 1013 l 158 1013 l 158 1047 l 935 1047 l 896 768 l 854 768 m 713 1169 l 482 1231 q 440 1253 454 1238 q 426 1290 426 1268 q 447 1342 426 1319 q 501 1364 468 1364 q 537 1353 519 1364 q 593 1314 554 1343 l 786 1169 l 713 1169 z "},"Ẻ":{"ha":919,"x_min":-51,"x_max":935,"o":"m 82 0 l 310 1047 l 472 1047 l 239 0 l 82 0 m -51 0 l -51 35 l 494 35 q 608 58 557 35 q 708 144 660 82 q 810 322 757 206 l 851 322 l 768 0 l -51 0 m 544 314 q 535 447 544 401 q 496 508 525 492 q 408 525 467 525 l 288 525 l 288 560 l 431 560 q 523 575 486 560 q 586 630 560 590 q 633 742 613 669 l 668 742 l 586 314 l 544 314 m 854 768 q 836 918 854 865 q 767 992 818 971 q 617 1013 715 1013 l 158 1013 l 158 1047 l 935 1047 l 896 768 l 854 768 m 610 1142 q 624 1174 614 1161 q 647 1199 635 1188 q 669 1222 660 1211 q 682 1244 679 1232 q 675 1296 689 1285 q 639 1307 661 1307 q 601 1297 618 1307 q 582 1272 585 1288 q 584 1260 581 1264 q 591 1251 588 1257 q 592 1233 594 1246 q 577 1211 590 1219 q 542 1203 564 1203 q 506 1217 518 1203 q 497 1251 493 1231 q 529 1317 506 1293 q 585 1352 553 1342 q 647 1363 617 1363 q 742 1335 710 1363 q 764 1247 775 1307 q 745 1213 760 1226 q 711 1188 731 1199 q 674 1166 692 1176 q 647 1142 656 1156 l 610 1142 z "},"Ȇ":{"ha":919,"x_min":-51,"x_max":935,"o":"m 82 0 l 310 1047 l 472 1047 l 239 0 l 82 0 m -51 0 l -51 35 l 494 35 q 608 58 557 35 q 708 144 660 82 q 810 322 757 206 l 851 322 l 768 0 l -51 0 m 544 314 q 535 447 544 401 q 496 508 525 492 q 408 525 467 525 l 288 525 l 288 560 l 431 560 q 523 575 486 560 q 586 630 560 590 q 633 742 613 669 l 668 742 l 586 314 l 544 314 m 854 768 q 836 918 854 865 q 767 992 818 971 q 617 1013 715 1013 l 158 1013 l 158 1047 l 935 1047 l 896 768 l 854 768 m 375 1169 q 457 1305 390 1250 q 625 1360 524 1360 q 765 1317 715 1360 q 815 1213 815 1274 q 810 1169 815 1192 l 763 1169 q 726 1240 763 1222 q 621 1258 689 1258 q 487 1237 538 1258 q 422 1169 436 1215 l 375 1169 z "},"Ē":{"ha":919,"x_min":-51,"x_max":935,"o":"m 82 0 l 310 1047 l 472 1047 l 239 0 l 82 0 m -51 0 l -51 35 l 494 35 q 608 58 557 35 q 708 144 660 82 q 810 322 757 206 l 851 322 l 768 0 l -51 0 m 544 314 q 535 447 544 401 q 496 508 525 492 q 408 525 467 525 l 288 525 l 288 560 l 431 560 q 523 575 486 560 q 586 630 560 590 q 633 742 613 669 l 668 742 l 586 314 l 544 314 m 854 768 q 836 918 854 865 q 767 992 818 971 q 617 1013 715 1013 l 158 1013 l 158 1047 l 935 1047 l 896 768 l 854 768 m 393 1189 l 414 1281 l 858 1281 l 838 1189 l 393 1189 z "},"Ę":{"ha":919,"x_min":-51,"x_max":935,"o":"m 82 0 l 310 1047 l 472 1047 l 239 0 l 82 0 m -51 0 l -51 35 l 494 35 q 608 58 557 35 q 708 144 660 82 q 810 322 757 206 l 851 322 l 768 0 l -51 0 m 544 314 q 535 447 544 401 q 496 508 525 492 q 408 525 467 525 l 288 525 l 288 560 l 431 560 q 523 575 486 560 q 586 630 560 590 q 633 742 613 669 l 668 742 l 586 314 l 544 314 m 854 768 q 836 918 854 865 q 767 992 818 971 q 617 1013 715 1013 l 158 1013 l 158 1047 l 935 1047 l 896 768 l 854 768 m 464 -322 q 387 -299 417 -322 q 357 -239 357 -276 q 428 -108 357 -181 q 617 25 499 -36 l 667 17 q 523 -99 574 -40 q 472 -210 472 -158 q 486 -251 472 -236 q 525 -265 500 -265 q 560 -258 542 -265 q 604 -236 579 -251 l 621 -258 q 550 -304 593 -286 q 464 -322 507 -322 z "},"Ẽ":{"ha":919,"x_min":-51,"x_max":935,"o":"m 82 0 l 310 1047 l 472 1047 l 239 0 l 82 0 m -51 0 l -51 35 l 494 35 q 608 58 557 35 q 708 144 660 82 q 810 322 757 206 l 851 322 l 768 0 l -51 0 m 544 314 q 535 447 544 401 q 496 508 525 492 q 408 525 467 525 l 288 525 l 288 560 l 431 560 q 523 575 486 560 q 586 630 560 590 q 633 742 613 669 l 668 742 l 586 314 l 544 314 m 854 768 q 836 918 854 865 q 767 992 818 971 q 617 1013 715 1013 l 158 1013 l 158 1047 l 935 1047 l 896 768 l 854 768 m 374 1168 q 415 1258 388 1218 q 478 1319 442 1297 q 557 1342 515 1342 q 624 1325 597 1342 q 677 1292 651 1308 q 735 1275 703 1275 q 798 1299 772 1275 q 838 1346 824 1322 l 885 1346 q 808 1213 858 1256 q 700 1169 758 1169 q 629 1186 657 1169 q 577 1219 601 1203 q 519 1236 553 1236 q 458 1217 485 1236 q 418 1168 432 1197 l 374 1168 z "},"Ə":{"ha":1013,"x_min":90,"x_max":1015,"o":"m 421 -18 q 258 15 333 -18 q 137 111 183 49 q 90 263 90 174 q 150 435 90 361 q 315 551 210 510 q 556 592 419 592 q 636 589 593 592 q 718 582 679 586 q 786 574 757 578 q 826 567 815 569 l 822 515 q 735 533 779 528 q 647 539 692 539 q 438 496 515 539 q 326 381 360 453 q 293 218 293 308 q 331 71 293 114 q 438 28 369 28 q 578 73 515 28 q 689 194 642 118 q 769 365 736 271 q 817 559 801 460 q 833 747 833 658 q 815 901 833 843 q 756 986 796 960 q 653 1013 715 1013 q 494 976 574 1013 q 344 874 415 939 q 218 724 274 808 l 171 756 q 396 978 269 896 q 657 1060 522 1060 q 812 1026 744 1060 q 924 933 879 992 q 992 799 969 874 q 1015 642 1015 724 q 984 447 1015 543 q 897 267 953 351 q 765 119 840 183 q 603 19 690 56 q 421 -18 515 -18 z "},"F":{"ha":882,"x_min":3,"x_max":989,"o":"m 136 0 l 364 1047 l 526 1047 l 293 0 l 136 0 m 3 0 l 3 35 l 446 35 l 446 0 l 3 0 m 583 311 q 574 444 583 399 q 535 506 564 489 q 447 522 506 522 l 326 522 l 326 557 l 469 557 q 560 572 524 557 q 622 626 596 588 q 668 733 647 664 l 703 733 l 625 311 l 583 311 m 904 735 q 886 908 904 849 q 818 990 868 968 q 671 1013 768 1013 l 213 1013 l 213 1047 l 989 1047 l 946 735 l 904 735 z "},"G":{"ha":1040,"x_min":117,"x_max":1081,"o":"m 521 -18 q 358 12 426 -18 q 242 91 289 42 q 168 201 196 140 q 128 322 140 261 q 117 436 117 383 q 144 610 117 522 q 224 779 172 699 q 349 924 276 860 q 513 1025 422 988 q 707 1063 603 1063 q 823 1044 769 1063 q 932 975 876 1026 l 1000 1047 l 1035 1047 l 969 751 l 935 751 q 903 897 935 836 q 819 990 872 957 q 701 1022 767 1022 q 576 986 632 1022 q 476 888 519 950 q 400 749 432 826 q 348 590 368 672 q 318 428 328 507 q 308 285 308 349 q 331 129 308 186 q 397 49 353 72 q 504 26 440 26 q 626 56 578 26 q 706 158 675 86 q 760 356 738 231 l 975 356 q 872 144 940 226 q 712 22 803 61 q 521 -18 621 -18 m 613 351 l 613 386 l 1081 386 l 1081 351 l 613 351 z "},"Ǵ":{"ha":1040,"x_min":117,"x_max":1081,"o":"m 521 -18 q 358 12 426 -18 q 242 91 289 42 q 168 201 196 140 q 128 322 140 261 q 117 436 117 383 q 144 610 117 522 q 224 779 172 699 q 349 924 276 860 q 513 1025 422 988 q 707 1063 603 1063 q 823 1044 769 1063 q 932 975 876 1026 l 1000 1047 l 1035 1047 l 969 751 l 935 751 q 903 897 935 836 q 819 990 872 957 q 701 1022 767 1022 q 576 986 632 1022 q 476 888 519 950 q 400 749 432 826 q 348 590 368 672 q 318 428 328 507 q 308 285 308 349 q 331 129 308 186 q 397 49 353 72 q 504 26 440 26 q 626 56 578 26 q 706 158 675 86 q 760 356 738 231 l 975 356 q 872 144 940 226 q 712 22 803 61 q 521 -18 621 -18 m 613 351 l 613 386 l 1081 386 l 1081 351 l 613 351 m 510 1169 l 749 1314 q 819 1353 793 1342 q 867 1364 846 1364 q 905 1350 890 1364 q 919 1310 919 1336 q 897 1257 919 1279 q 824 1224 874 1235 l 582 1169 l 510 1169 z "},"Ğ":{"ha":1040,"x_min":117,"x_max":1081,"o":"m 521 -18 q 358 12 426 -18 q 242 91 289 42 q 168 201 196 140 q 128 322 140 261 q 117 436 117 383 q 144 610 117 522 q 224 779 172 699 q 349 924 276 860 q 513 1025 422 988 q 707 1063 603 1063 q 823 1044 769 1063 q 932 975 876 1026 l 1000 1047 l 1035 1047 l 969 751 l 935 751 q 903 897 935 836 q 819 990 872 957 q 701 1022 767 1022 q 576 986 632 1022 q 476 888 519 950 q 400 749 432 826 q 348 590 368 672 q 318 428 328 507 q 308 285 308 349 q 331 129 308 186 q 397 49 353 72 q 504 26 440 26 q 626 56 578 26 q 706 158 675 86 q 760 356 738 231 l 975 356 q 872 144 940 226 q 712 22 803 61 q 521 -18 621 -18 m 613 351 l 613 386 l 1081 386 l 1081 351 l 613 351 m 713 1169 q 563 1222 613 1169 q 533 1360 513 1275 l 581 1360 q 597 1306 581 1325 q 646 1278 614 1286 q 722 1271 678 1271 q 819 1281 778 1271 q 886 1310 860 1290 q 921 1360 913 1329 l 968 1360 q 885 1224 951 1279 q 713 1169 819 1169 z "},"Ĝ":{"ha":1040,"x_min":117,"x_max":1081,"o":"m 521 -18 q 358 12 426 -18 q 242 91 289 42 q 168 201 196 140 q 128 322 140 261 q 117 436 117 383 q 144 610 117 522 q 224 779 172 699 q 349 924 276 860 q 513 1025 422 988 q 707 1063 603 1063 q 823 1044 769 1063 q 932 975 876 1026 l 1000 1047 l 1035 1047 l 969 751 l 935 751 q 903 897 935 836 q 819 990 872 957 q 701 1022 767 1022 q 576 986 632 1022 q 476 888 519 950 q 400 749 432 826 q 348 590 368 672 q 318 428 328 507 q 308 285 308 349 q 331 129 308 186 q 397 49 353 72 q 504 26 440 26 q 626 56 578 26 q 706 158 675 86 q 760 356 738 231 l 975 356 q 872 144 940 226 q 712 22 803 61 q 521 -18 621 -18 m 613 351 l 613 386 l 1081 386 l 1081 351 l 613 351 m 506 1169 l 726 1364 l 813 1364 l 954 1169 l 894 1169 l 747 1254 l 564 1169 l 506 1169 z "},"Ģ":{"ha":1040,"x_min":117,"x_max":1081,"o":"m 521 -18 q 358 12 426 -18 q 242 91 289 42 q 168 201 196 140 q 128 322 140 261 q 117 436 117 383 q 144 610 117 522 q 224 779 172 699 q 349 924 276 860 q 513 1025 422 988 q 707 1063 603 1063 q 823 1044 769 1063 q 932 975 876 1026 l 1000 1047 l 1035 1047 l 969 751 l 935 751 q 903 897 935 836 q 819 990 872 957 q 701 1022 767 1022 q 576 986 632 1022 q 476 888 519 950 q 400 749 432 826 q 348 590 368 672 q 318 428 328 507 q 308 285 308 349 q 331 129 308 186 q 397 49 353 72 q 504 26 440 26 q 626 56 578 26 q 706 158 675 86 q 760 356 738 231 l 975 356 q 872 144 940 226 q 712 22 803 61 q 521 -18 621 -18 m 613 351 l 613 386 l 1081 386 l 1081 351 l 613 351 m 308 -431 l 290 -399 q 426 -321 389 -357 q 463 -258 463 -285 q 457 -240 463 -246 q 447 -235 451 -235 q 433 -244 440 -235 q 413 -262 425 -253 q 379 -271 401 -271 q 333 -251 350 -271 q 315 -201 315 -232 q 344 -135 315 -158 q 410 -112 374 -112 q 465 -128 442 -112 q 500 -171 488 -144 q 513 -228 513 -197 q 463 -340 513 -286 q 308 -431 414 -393 z "},"Ġ":{"ha":1040,"x_min":117,"x_max":1081,"o":"m 521 -18 q 358 12 426 -18 q 242 91 289 42 q 168 201 196 140 q 128 322 140 261 q 117 436 117 383 q 144 610 117 522 q 224 779 172 699 q 349 924 276 860 q 513 1025 422 988 q 707 1063 603 1063 q 823 1044 769 1063 q 932 975 876 1026 l 1000 1047 l 1035 1047 l 969 751 l 935 751 q 903 897 935 836 q 819 990 872 957 q 701 1022 767 1022 q 576 986 632 1022 q 476 888 519 950 q 400 749 432 826 q 348 590 368 672 q 318 428 328 507 q 308 285 308 349 q 331 129 308 186 q 397 49 353 72 q 504 26 440 26 q 626 56 578 26 q 706 158 675 86 q 760 356 738 231 l 975 356 q 872 144 940 226 q 712 22 803 61 q 521 -18 621 -18 m 613 351 l 613 386 l 1081 386 l 1081 351 l 613 351 m 722 1149 q 656 1176 683 1149 q 629 1242 629 1203 q 656 1309 629 1282 q 722 1336 683 1336 q 790 1309 763 1336 q 817 1242 817 1282 q 790 1176 817 1203 q 722 1149 763 1149 z "},"H":{"ha":1093,"x_min":-1,"x_max":1217,"o":"m 711 0 l 939 1047 l 1101 1047 l 868 0 l 711 0 m -1 0 l -1 35 l 400 35 l 400 0 l -1 0 m 599 0 l 599 35 l 1010 35 l 1010 0 l 599 0 m 104 0 l 332 1047 l 494 1047 l 261 0 l 104 0 m 267 524 l 267 563 l 876 563 l 876 524 l 267 524 m 211 1013 l 211 1047 l 613 1047 l 613 1013 l 211 1013 m 806 1013 l 806 1047 l 1217 1047 l 1217 1013 l 806 1013 z "},"Ħ":{"ha":1093,"x_min":-1,"x_max":1217,"o":"m 122 761 l 122 803 l 1190 803 l 1190 761 l 122 761 m 711 0 l 939 1047 l 1101 1047 l 868 0 l 711 0 m -1 0 l -1 35 l 400 35 l 400 0 l -1 0 m 599 0 l 599 35 l 1010 35 l 1010 0 l 599 0 m 104 0 l 332 1047 l 494 1047 l 261 0 l 104 0 m 267 524 l 267 563 l 876 563 l 876 524 l 267 524 m 211 1013 l 211 1047 l 613 1047 l 613 1013 l 211 1013 m 806 1013 l 806 1047 l 1217 1047 l 1217 1013 l 806 1013 z "},"Ĥ":{"ha":1093,"x_min":-1,"x_max":1217,"o":"m 711 0 l 939 1047 l 1101 1047 l 868 0 l 711 0 m -1 0 l -1 35 l 400 35 l 400 0 l -1 0 m 599 0 l 599 35 l 1010 35 l 1010 0 l 599 0 m 104 0 l 332 1047 l 494 1047 l 261 0 l 104 0 m 267 524 l 267 563 l 876 563 l 876 524 l 267 524 m 211 1013 l 211 1047 l 613 1047 l 613 1013 l 211 1013 m 806 1013 l 806 1047 l 1217 1047 l 1217 1013 l 806 1013 m 532 1169 l 753 1364 l 839 1364 l 981 1169 l 921 1169 l 774 1254 l 590 1169 l 532 1169 z "},"Ḥ":{"ha":1093,"x_min":-1,"x_max":1217,"o":"m 711 0 l 939 1047 l 1101 1047 l 868 0 l 711 0 m -1 0 l -1 35 l 400 35 l 400 0 l -1 0 m 599 0 l 599 35 l 1010 35 l 1010 0 l 599 0 m 104 0 l 332 1047 l 494 1047 l 261 0 l 104 0 m 267 524 l 267 563 l 876 563 l 876 524 l 267 524 m 211 1013 l 211 1047 l 613 1047 l 613 1013 l 211 1013 m 806 1013 l 806 1047 l 1217 1047 l 1217 1013 l 806 1013 m 431 -282 q 365 -255 392 -282 q 338 -189 338 -228 q 365 -122 338 -149 q 431 -94 392 -94 q 498 -122 471 -94 q 525 -189 525 -149 q 498 -255 525 -228 q 431 -282 471 -282 z "},"I":{"ha":500,"x_min":-8,"x_max":617,"o":"m 111 0 l 339 1047 l 501 1047 l 268 0 l 111 0 m -8 0 l -8 35 l 421 35 l 421 0 l -8 0 m 201 1013 l 201 1047 l 617 1047 l 617 1013 l 201 1013 z "},"Ĳ":{"ha":1011,"x_min":-8,"x_max":1153,"o":"m 111 0 l 339 1047 l 501 1047 l 268 0 l 111 0 m -8 0 l -8 35 l 421 35 l 421 0 l -8 0 m 201 1013 l 201 1047 l 617 1047 l 617 1013 l 201 1013 m 542 -140 q 449 -123 486 -140 q 392 -76 411 -106 q 372 -11 372 -47 q 397 58 372 33 q 457 83 422 83 q 513 60 493 83 q 532 10 532 38 q 524 -22 532 -10 q 509 -45 517 -35 q 501 -69 501 -56 q 551 -99 501 -99 q 574 -94 561 -99 q 603 -72 588 -90 q 636 -14 619 -54 q 668 99 653 26 l 875 1047 l 1038 1047 l 851 211 q 776 3 822 81 q 672 -107 731 -74 q 542 -140 613 -140 m 751 1013 l 751 1047 l 1153 1047 l 1153 1013 l 751 1013 z "},"Í":{"ha":500,"x_min":-8,"x_max":649,"o":"m 111 0 l 339 1047 l 501 1047 l 268 0 l 111 0 m -8 0 l -8 35 l 421 35 l 421 0 l -8 0 m 201 1013 l 201 1047 l 617 1047 l 617 1013 l 201 1013 m 239 1169 l 478 1314 q 549 1353 522 1342 q 596 1364 575 1364 q 634 1350 619 1364 q 649 1310 649 1336 q 626 1257 649 1279 q 553 1224 603 1235 l 311 1169 l 239 1169 z "},"Ĭ":{"ha":500,"x_min":-8,"x_max":697,"o":"m 111 0 l 339 1047 l 501 1047 l 268 0 l 111 0 m -8 0 l -8 35 l 421 35 l 421 0 l -8 0 m 201 1013 l 201 1047 l 617 1047 l 617 1013 l 201 1013 m 442 1169 q 292 1222 342 1169 q 263 1360 242 1275 l 310 1360 q 326 1306 310 1325 q 375 1278 343 1286 q 451 1271 407 1271 q 548 1281 507 1271 q 615 1310 589 1290 q 650 1360 642 1329 l 697 1360 q 615 1224 681 1279 q 442 1169 549 1169 z "},"Î":{"ha":500,"x_min":-8,"x_max":683,"o":"m 111 0 l 339 1047 l 501 1047 l 268 0 l 111 0 m -8 0 l -8 35 l 421 35 l 421 0 l -8 0 m 201 1013 l 201 1047 l 617 1047 l 617 1013 l 201 1013 m 235 1169 l 456 1364 l 542 1364 l 683 1169 l 624 1169 l 476 1254 l 293 1169 l 235 1169 z "},"Ȉ":{"ha":500,"x_min":-8,"x_max":765,"o":"m 111 0 l 339 1047 l 501 1047 l 268 0 l 111 0 m -8 0 l -8 35 l 421 35 l 421 0 l -8 0 m 201 1013 l 201 1047 l 617 1047 l 617 1013 l 201 1013 m 692 1169 l 461 1231 q 419 1253 433 1238 q 406 1290 406 1268 q 426 1342 406 1319 q 481 1364 447 1364 q 516 1353 499 1364 q 572 1314 533 1343 l 765 1169 l 692 1169 m 408 1169 l 178 1231 q 136 1253 150 1238 q 122 1290 122 1268 q 143 1342 122 1319 q 197 1364 164 1364 q 233 1353 215 1364 q 289 1314 250 1343 l 482 1169 l 408 1169 z "},"Ï":{"ha":500,"x_min":-8,"x_max":694,"o":"m 111 0 l 339 1047 l 501 1047 l 268 0 l 111 0 m -8 0 l -8 35 l 421 35 l 421 0 l -8 0 m 201 1013 l 201 1047 l 617 1047 l 617 1013 l 201 1013 m 607 1164 q 545 1189 571 1164 q 519 1250 519 1214 q 545 1311 519 1286 q 607 1336 571 1336 q 669 1311 643 1336 q 694 1250 694 1286 q 669 1189 694 1214 q 607 1164 643 1164 m 307 1164 q 244 1189 269 1164 q 219 1250 219 1214 q 244 1311 219 1286 q 307 1336 269 1336 q 369 1311 343 1336 q 394 1250 394 1286 q 369 1189 394 1214 q 307 1164 343 1164 z "},"İ":{"ha":500,"x_min":-8,"x_max":617,"o":"m 111 0 l 339 1047 l 501 1047 l 268 0 l 111 0 m -8 0 l -8 35 l 421 35 l 421 0 l -8 0 m 201 1013 l 201 1047 l 617 1047 l 617 1013 l 201 1013 m 451 1149 q 385 1176 413 1149 q 358 1242 358 1203 q 385 1309 358 1282 q 451 1336 413 1336 q 519 1309 492 1336 q 546 1242 546 1282 q 519 1176 546 1203 q 451 1149 492 1149 z "},"Ị":{"ha":500,"x_min":-8,"x_max":617,"o":"m 111 0 l 339 1047 l 501 1047 l 268 0 l 111 0 m -8 0 l -8 35 l 421 35 l 421 0 l -8 0 m 201 1013 l 201 1047 l 617 1047 l 617 1013 l 201 1013 m 133 -282 q 67 -255 94 -282 q 40 -189 40 -228 q 67 -122 40 -149 q 133 -94 94 -94 q 201 -122 174 -94 q 228 -189 228 -149 q 201 -255 228 -228 q 133 -282 174 -282 z "},"Ì":{"ha":500,"x_min":-8,"x_max":624,"o":"m 111 0 l 339 1047 l 501 1047 l 268 0 l 111 0 m -8 0 l -8 35 l 421 35 l 421 0 l -8 0 m 201 1013 l 201 1047 l 617 1047 l 617 1013 l 201 1013 m 550 1169 l 319 1231 q 278 1253 292 1238 q 264 1290 264 1268 q 285 1342 264 1319 q 339 1364 306 1364 q 374 1353 357 1364 q 431 1314 392 1343 l 624 1169 l 550 1169 z "},"Ỉ":{"ha":500,"x_min":-8,"x_max":617,"o":"m 111 0 l 339 1047 l 501 1047 l 268 0 l 111 0 m -8 0 l -8 35 l 421 35 l 421 0 l -8 0 m 201 1013 l 201 1047 l 617 1047 l 617 1013 l 201 1013 m 447 1142 q 462 1174 451 1161 q 485 1199 472 1188 q 507 1222 497 1211 q 519 1244 517 1232 q 513 1296 526 1285 q 476 1307 499 1307 q 439 1297 456 1307 q 419 1272 422 1288 q 422 1260 418 1264 q 428 1251 425 1257 q 429 1233 432 1246 q 415 1211 428 1219 q 379 1203 401 1203 q 343 1217 356 1203 q 335 1251 331 1231 q 367 1317 343 1293 q 422 1352 390 1342 q 485 1363 454 1363 q 580 1335 547 1363 q 601 1247 613 1307 q 583 1213 597 1226 q 549 1188 568 1199 q 511 1166 529 1176 q 485 1142 493 1156 l 447 1142 z "},"Ȋ":{"ha":500,"x_min":-8,"x_max":653,"o":"m 111 0 l 339 1047 l 501 1047 l 268 0 l 111 0 m -8 0 l -8 35 l 421 35 l 421 0 l -8 0 m 201 1013 l 201 1047 l 617 1047 l 617 1013 l 201 1013 m 213 1169 q 294 1305 228 1250 q 463 1360 361 1360 q 603 1317 553 1360 q 653 1213 653 1274 q 647 1169 653 1192 l 600 1169 q 563 1240 600 1222 q 458 1258 526 1258 q 324 1237 375 1258 q 260 1169 274 1215 l 213 1169 z "},"Ī":{"ha":500,"x_min":-8,"x_max":696,"o":"m 111 0 l 339 1047 l 501 1047 l 268 0 l 111 0 m -8 0 l -8 35 l 421 35 l 421 0 l -8 0 m 201 1013 l 201 1047 l 617 1047 l 617 1013 l 201 1013 m 231 1189 l 251 1281 l 696 1281 l 675 1189 l 231 1189 z "},"Į":{"ha":500,"x_min":-19,"x_max":617,"o":"m 111 0 l 339 1047 l 501 1047 l 268 0 l 111 0 m -8 0 l -8 35 l 421 35 l 421 0 l -8 0 m 201 1013 l 201 1047 l 617 1047 l 617 1013 l 201 1013 m 88 -322 q 10 -299 40 -322 q -19 -239 -19 -276 q 51 -108 -19 -181 q 240 25 122 -36 l 290 17 q 147 -99 197 -40 q 96 -210 96 -158 q 110 -251 96 -236 q 149 -265 124 -265 q 184 -258 165 -265 q 228 -236 203 -251 l 244 -258 q 174 -304 217 -286 q 88 -322 131 -322 z "},"Ĩ":{"ha":500,"x_min":-8,"x_max":722,"o":"m 111 0 l 339 1047 l 501 1047 l 268 0 l 111 0 m -8 0 l -8 35 l 421 35 l 421 0 l -8 0 m 201 1013 l 201 1047 l 617 1047 l 617 1013 l 201 1013 m 211 1168 q 252 1258 225 1218 q 316 1319 279 1297 q 394 1342 353 1342 q 462 1325 435 1342 q 515 1292 489 1308 q 572 1275 540 1275 q 635 1299 610 1275 q 675 1346 661 1322 l 722 1346 q 646 1213 696 1256 q 538 1169 596 1169 q 467 1186 494 1169 q 415 1219 439 1203 q 357 1236 390 1236 q 296 1217 322 1236 q 256 1168 269 1197 l 211 1168 z "},"J":{"ha":511,"x_min":-128,"x_max":653,"o":"m 42 -140 q -51 -123 -14 -140 q -108 -76 -89 -106 q -128 -11 -128 -47 q -103 58 -128 33 q -43 83 -78 83 q 13 60 -7 83 q 32 10 32 38 q 24 -22 32 -10 q 9 -45 17 -35 q 1 -69 1 -56 q 51 -99 1 -99 q 74 -94 61 -99 q 103 -72 88 -90 q 136 -14 119 -54 q 168 99 153 26 l 375 1047 l 538 1047 l 351 211 q 276 3 322 81 q 172 -107 231 -74 q 42 -140 113 -140 m 251 1013 l 251 1047 l 653 1047 l 653 1013 l 251 1013 z "},"Ĵ":{"ha":511,"x_min":-128,"x_max":731,"o":"m 42 -140 q -51 -123 -14 -140 q -108 -76 -89 -106 q -128 -11 -128 -47 q -103 58 -128 33 q -43 83 -78 83 q 13 60 -7 83 q 32 10 32 38 q 24 -22 32 -10 q 9 -45 17 -35 q 1 -69 1 -56 q 51 -99 1 -99 q 74 -94 61 -99 q 103 -72 88 -90 q 136 -14 119 -54 q 168 99 153 26 l 375 1047 l 538 1047 l 351 211 q 276 3 322 81 q 172 -107 231 -74 q 42 -140 113 -140 m 251 1013 l 251 1047 l 653 1047 l 653 1013 l 251 1013 m 282 1169 l 503 1364 l 589 1364 l 731 1169 l 671 1169 l 524 1254 l 340 1169 l 282 1169 z "},"K":{"ha":1008,"x_min":21,"x_max":1157,"o":"m 140 0 l 368 1047 l 531 1047 l 297 0 l 140 0 m 21 0 l 21 35 l 450 35 l 450 0 l 21 0 m 581 0 l 581 35 l 1061 35 l 1061 0 l 581 0 m 751 13 l 447 549 l 585 640 l 935 13 l 751 13 m 217 1013 l 217 1047 l 660 1047 l 660 1013 l 217 1013 m 447 549 l 954 1019 l 1014 1019 l 507 549 l 447 549 m 789 1013 l 789 1047 l 1157 1047 l 1157 1013 l 789 1013 z "},"Ķ":{"ha":1008,"x_min":21,"x_max":1157,"o":"m 140 0 l 368 1047 l 531 1047 l 297 0 l 140 0 m 21 0 l 21 35 l 450 35 l 450 0 l 21 0 m 581 0 l 581 35 l 1061 35 l 1061 0 l 581 0 m 751 13 l 447 549 l 585 640 l 935 13 l 751 13 m 217 1013 l 217 1047 l 660 1047 l 660 1013 l 217 1013 m 447 549 l 954 1019 l 1014 1019 l 507 549 l 447 549 m 789 1013 l 789 1047 l 1157 1047 l 1157 1013 l 789 1013 m 292 -431 l 274 -399 q 409 -321 372 -357 q 446 -258 446 -285 q 440 -240 446 -246 q 431 -235 435 -235 q 416 -244 424 -235 q 397 -262 408 -253 q 363 -271 385 -271 q 316 -251 333 -271 q 299 -201 299 -232 q 328 -135 299 -158 q 393 -112 357 -112 q 448 -128 425 -112 q 483 -171 471 -144 q 496 -228 496 -197 q 447 -340 496 -286 q 292 -431 397 -393 z "},"L":{"ha":831,"x_min":-31,"x_max":828,"o":"m 75 0 l 303 1047 l 465 1047 l 232 0 l 75 0 m -31 0 l -31 35 l 471 35 q 585 58 533 35 q 685 144 636 82 q 786 322 733 206 l 828 322 l 744 0 l -31 0 m 179 1013 l 179 1047 l 581 1047 l 581 1013 l 179 1013 z "},"Ǉ":{"ha":1342,"x_min":-31,"x_max":1483,"o":"m 75 0 l 303 1047 l 465 1047 l 232 0 l 75 0 m -31 0 l -31 35 l 471 35 q 585 58 533 35 q 685 144 636 82 q 786 322 733 206 l 828 322 l 744 0 l -31 0 m 179 1013 l 179 1047 l 581 1047 l 581 1013 l 179 1013 m 872 -140 q 779 -123 817 -140 q 722 -76 742 -106 q 703 -11 703 -47 q 728 58 703 33 q 788 83 753 83 q 843 60 824 83 q 863 10 863 38 q 855 -22 863 -10 q 840 -45 847 -35 q 832 -69 832 -56 q 882 -99 832 -99 q 905 -94 892 -99 q 934 -72 918 -90 q 967 -14 950 -54 q 999 99 983 26 l 1206 1047 l 1368 1047 l 1182 211 q 1107 3 1153 81 q 1002 -107 1061 -74 q 872 -140 943 -140 m 1082 1013 l 1082 1047 l 1483 1047 l 1483 1013 l 1082 1013 z "},"Ĺ":{"ha":831,"x_min":-31,"x_max":828,"o":"m 75 0 l 303 1047 l 465 1047 l 232 0 l 75 0 m -31 0 l -31 35 l 471 35 q 585 58 533 35 q 685 144 636 82 q 786 322 733 206 l 828 322 l 744 0 l -31 0 m 179 1013 l 179 1047 l 581 1047 l 581 1013 l 179 1013 m 404 1169 l 643 1314 q 714 1353 688 1342 q 761 1364 740 1364 q 799 1350 785 1364 q 814 1310 814 1336 q 791 1257 814 1279 q 718 1224 768 1235 l 476 1169 l 404 1169 z "},"Ľ":{"ha":831,"x_min":-31,"x_max":944,"o":"m 75 0 l 303 1047 l 465 1047 l 232 0 l 75 0 m -31 0 l -31 35 l 471 35 q 585 58 533 35 q 685 144 636 82 q 786 322 733 206 l 828 322 l 744 0 l -31 0 m 179 1013 l 179 1047 l 581 1047 l 581 1013 l 179 1013 m 726 707 l 708 739 q 851 840 807 788 q 894 932 894 892 q 887 960 894 951 q 872 968 879 968 q 855 958 863 968 q 834 936 847 947 q 794 925 821 925 q 740 946 760 925 q 719 1001 719 967 q 747 1069 719 1042 q 822 1097 775 1097 q 888 1080 860 1097 q 930 1033 915 1063 q 944 967 944 1003 q 885 826 944 894 q 726 707 825 757 z "},"Ļ":{"ha":831,"x_min":-31,"x_max":828,"o":"m 75 0 l 303 1047 l 465 1047 l 232 0 l 75 0 m -31 0 l -31 35 l 471 35 q 585 58 533 35 q 685 144 636 82 q 786 322 733 206 l 828 322 l 744 0 l -31 0 m 179 1013 l 179 1047 l 581 1047 l 581 1013 l 179 1013 m 203 -431 l 185 -399 q 320 -321 283 -357 q 357 -258 357 -285 q 351 -240 357 -246 q 342 -235 346 -235 q 327 -244 335 -235 q 308 -262 319 -253 q 274 -271 296 -271 q 227 -251 244 -271 q 210 -201 210 -232 q 239 -135 210 -158 q 304 -112 268 -112 q 359 -128 336 -112 q 394 -171 382 -144 q 407 -228 407 -197 q 358 -340 407 -286 q 203 -431 308 -393 z "},"Ŀ":{"ha":831,"x_min":-31,"x_max":828,"o":"m 75 0 l 303 1047 l 465 1047 l 232 0 l 75 0 m -31 0 l -31 35 l 471 35 q 585 58 533 35 q 685 144 636 82 q 786 322 733 206 l 828 322 l 744 0 l -31 0 m 179 1013 l 179 1047 l 581 1047 l 581 1013 l 179 1013 m 644 454 q 578 481 606 454 q 551 547 551 508 q 578 615 551 588 q 644 642 606 642 q 712 615 685 642 q 739 547 739 588 q 712 481 739 508 q 644 454 685 454 z "},"ǈ":{"ha":1235,"x_min":-31,"x_max":1253,"o":"m 75 0 l 303 1047 l 465 1047 l 232 0 l 75 0 m -31 0 l -31 35 l 471 35 q 585 58 533 35 q 685 144 636 82 q 786 322 733 206 l 828 322 l 744 0 l -31 0 m 179 1013 l 179 1047 l 581 1047 l 581 1013 l 179 1013 m 738 -450 q 643 -423 686 -450 q 600 -349 600 -396 q 619 -299 600 -317 q 668 -282 639 -282 q 716 -300 699 -282 q 733 -342 733 -318 q 731 -365 733 -351 q 729 -386 729 -378 q 760 -408 729 -408 q 780 -403 768 -408 q 806 -381 792 -399 q 835 -322 819 -362 q 865 -211 851 -282 l 1039 625 l 1188 625 l 1010 -186 q 967 -299 996 -250 q 901 -382 939 -349 q 822 -433 864 -415 q 738 -450 779 -450 m 908 590 l 908 625 l 1171 625 l 1171 590 l 908 590 m 1158 832 q 1092 859 1119 832 q 1065 925 1065 886 q 1092 992 1065 965 q 1158 1019 1119 1019 q 1226 992 1199 1019 q 1253 925 1253 965 q 1226 859 1253 886 q 1158 832 1199 832 z "},"Ł":{"ha":831,"x_min":-31,"x_max":828,"o":"m 17 329 l 17 385 l 554 699 l 554 643 l 17 329 m 75 0 l 303 1047 l 465 1047 l 232 0 l 75 0 m -31 0 l -31 35 l 471 35 q 585 58 533 35 q 685 144 636 82 q 786 322 733 206 l 828 322 l 744 0 l -31 0 m 179 1013 l 179 1047 l 581 1047 l 581 1013 l 179 1013 z "},"M":{"ha":1221,"x_min":19,"x_max":1354,"o":"m 511 0 l 636 315 l 1054 1047 l 1108 1047 l 511 0 m 19 0 l 19 35 l 328 35 l 328 0 l 19 0 m 140 0 l 368 1047 l 410 1047 l 182 0 l 140 0 m 707 0 l 707 35 l 1146 35 l 1146 0 l 707 0 m 482 0 l 400 979 l 394 979 l 394 1047 l 567 1047 l 631 315 l 636 315 l 511 0 l 482 0 m 231 1013 l 231 1047 l 567 1047 l 567 1013 l 231 1013 m 826 0 l 1054 1047 l 1217 1047 l 983 0 l 826 0 m 1054 1013 l 1054 1047 l 1354 1047 l 1354 1013 l 1054 1013 z "},"N":{"ha":1068,"x_min":-7,"x_max":1186,"o":"m 778 -18 l 388 979 l 382 979 l 382 1047 l 554 1047 l 846 317 l 851 317 l 806 -18 l 778 -18 m -7 0 l -7 35 l 329 35 l 329 0 l -7 0 m 128 0 l 356 1047 l 397 1047 l 169 0 l 128 0 m 204 1013 l 204 1047 l 554 1047 l 554 1013 l 204 1013 m 778 -18 l 1010 1047 l 1051 1047 l 819 -18 l 778 -18 m 850 1013 l 850 1047 l 1186 1047 l 1186 1013 l 850 1013 z "},"Ǌ":{"ha":1579,"x_min":-7,"x_max":1721,"o":"m 778 -18 l 388 979 l 382 979 l 382 1047 l 554 1047 l 846 317 l 851 317 l 806 -18 l 778 -18 m -7 0 l -7 35 l 329 35 l 329 0 l -7 0 m 128 0 l 356 1047 l 397 1047 l 169 0 l 128 0 m 204 1013 l 204 1047 l 554 1047 l 554 1013 l 204 1013 m 778 -18 l 1010 1047 l 1051 1047 l 819 -18 l 778 -18 m 850 1013 l 850 1047 l 1186 1047 l 1186 1013 l 850 1013 m 1110 -140 q 1017 -123 1054 -140 q 960 -76 979 -106 q 940 -11 940 -47 q 965 58 940 33 q 1025 83 990 83 q 1081 60 1061 83 q 1100 10 1100 38 q 1092 -22 1100 -10 q 1077 -45 1085 -35 q 1069 -69 1069 -56 q 1119 -99 1069 -99 q 1142 -94 1129 -99 q 1172 -72 1156 -90 q 1204 -14 1188 -54 q 1236 99 1221 26 l 1443 1047 l 1606 1047 l 1419 211 q 1344 3 1390 81 q 1240 -107 1299 -74 q 1110 -140 1181 -140 m 1319 1013 l 1319 1047 l 1721 1047 l 1721 1013 l 1319 1013 z "},"Ń":{"ha":1068,"x_min":-7,"x_max":1186,"o":"m 778 -18 l 388 979 l 382 979 l 382 1047 l 554 1047 l 846 317 l 851 317 l 806 -18 l 778 -18 m -7 0 l -7 35 l 329 35 l 329 0 l -7 0 m 128 0 l 356 1047 l 397 1047 l 169 0 l 128 0 m 204 1013 l 204 1047 l 554 1047 l 554 1013 l 204 1013 m 778 -18 l 1010 1047 l 1051 1047 l 819 -18 l 778 -18 m 850 1013 l 850 1047 l 1186 1047 l 1186 1013 l 850 1013 m 524 1169 l 763 1314 q 833 1353 807 1342 q 881 1364 860 1364 q 919 1350 904 1364 q 933 1310 933 1336 q 910 1257 933 1279 q 838 1224 888 1235 l 596 1169 l 524 1169 z "},"Ň":{"ha":1068,"x_min":-7,"x_max":1186,"o":"m 778 -18 l 388 979 l 382 979 l 382 1047 l 554 1047 l 846 317 l 851 317 l 806 -18 l 778 -18 m -7 0 l -7 35 l 329 35 l 329 0 l -7 0 m 128 0 l 356 1047 l 397 1047 l 169 0 l 128 0 m 204 1013 l 204 1047 l 554 1047 l 554 1013 l 204 1013 m 778 -18 l 1010 1047 l 1051 1047 l 819 -18 l 778 -18 m 850 1013 l 850 1047 l 1186 1047 l 1186 1013 l 850 1013 m 683 1169 l 542 1364 l 601 1364 l 749 1279 l 932 1364 l 992 1364 l 769 1169 l 683 1169 z "},"Ņ":{"ha":1068,"x_min":-7,"x_max":1186,"o":"m 778 -18 l 388 979 l 382 979 l 382 1047 l 554 1047 l 846 317 l 851 317 l 806 -18 l 778 -18 m -7 0 l -7 35 l 329 35 l 329 0 l -7 0 m 128 0 l 356 1047 l 397 1047 l 169 0 l 128 0 m 204 1013 l 204 1047 l 554 1047 l 554 1013 l 204 1013 m 778 -18 l 1010 1047 l 1051 1047 l 819 -18 l 778 -18 m 850 1013 l 850 1047 l 1186 1047 l 1186 1013 l 850 1013 m 322 -431 l 304 -399 q 440 -321 403 -357 q 476 -258 476 -285 q 471 -240 476 -246 q 461 -235 465 -235 q 447 -244 454 -235 q 427 -262 439 -253 q 393 -271 415 -271 q 347 -251 364 -271 q 329 -201 329 -232 q 358 -135 329 -158 q 424 -112 388 -112 q 478 -128 456 -112 q 514 -171 501 -144 q 526 -228 526 -197 q 477 -340 526 -286 q 322 -431 428 -393 z "},"Ṅ":{"ha":1068,"x_min":-7,"x_max":1186,"o":"m 778 -18 l 388 979 l 382 979 l 382 1047 l 554 1047 l 846 317 l 851 317 l 806 -18 l 778 -18 m -7 0 l -7 35 l 329 35 l 329 0 l -7 0 m 128 0 l 356 1047 l 397 1047 l 169 0 l 128 0 m 204 1013 l 204 1047 l 554 1047 l 554 1013 l 204 1013 m 778 -18 l 1010 1047 l 1051 1047 l 819 -18 l 778 -18 m 850 1013 l 850 1047 l 1186 1047 l 1186 1013 l 850 1013 m 736 1149 q 670 1176 697 1149 q 643 1242 643 1203 q 670 1309 643 1282 q 736 1336 697 1336 q 803 1309 776 1336 q 831 1242 831 1282 q 803 1176 831 1203 q 736 1149 776 1149 z "},"ǋ":{"ha":1472,"x_min":-7,"x_max":1490,"o":"m 778 -18 l 388 979 l 382 979 l 382 1047 l 554 1047 l 846 317 l 851 317 l 806 -18 l 778 -18 m -7 0 l -7 35 l 329 35 l 329 0 l -7 0 m 128 0 l 356 1047 l 397 1047 l 169 0 l 128 0 m 204 1013 l 204 1047 l 554 1047 l 554 1013 l 204 1013 m 778 -18 l 1010 1047 l 1051 1047 l 819 -18 l 778 -18 m 850 1013 l 850 1047 l 1186 1047 l 1186 1013 l 850 1013 m 975 -450 q 881 -423 924 -450 q 838 -349 838 -396 q 857 -299 838 -317 q 906 -282 876 -282 q 953 -300 936 -282 q 971 -342 971 -318 q 969 -365 971 -351 q 967 -386 967 -378 q 997 -408 967 -408 q 1017 -403 1006 -408 q 1043 -381 1029 -399 q 1073 -322 1057 -362 q 1103 -211 1089 -282 l 1276 625 l 1425 625 l 1247 -186 q 1205 -299 1233 -250 q 1139 -382 1176 -349 q 1059 -433 1101 -415 q 975 -450 1017 -450 m 1146 590 l 1146 625 l 1408 625 l 1408 590 l 1146 590 m 1396 832 q 1330 859 1357 832 q 1303 925 1303 886 q 1330 992 1303 965 q 1396 1019 1357 1019 q 1463 992 1436 1019 q 1490 925 1490 965 q 1463 859 1490 886 q 1396 832 1436 832 z "},"Ñ":{"ha":1068,"x_min":-7,"x_max":1186,"o":"m 778 -18 l 388 979 l 382 979 l 382 1047 l 554 1047 l 846 317 l 851 317 l 806 -18 l 778 -18 m -7 0 l -7 35 l 329 35 l 329 0 l -7 0 m 128 0 l 356 1047 l 397 1047 l 169 0 l 128 0 m 204 1013 l 204 1047 l 554 1047 l 554 1013 l 204 1013 m 778 -18 l 1010 1047 l 1051 1047 l 819 -18 l 778 -18 m 850 1013 l 850 1047 l 1186 1047 l 1186 1013 l 850 1013 m 496 1168 q 537 1258 510 1218 q 601 1319 564 1297 q 679 1342 638 1342 q 747 1325 719 1342 q 799 1292 774 1308 q 857 1275 825 1275 q 920 1299 894 1275 q 960 1346 946 1322 l 1007 1346 q 931 1213 981 1256 q 822 1169 881 1169 q 751 1186 779 1169 q 699 1219 724 1203 q 642 1236 675 1236 q 581 1217 607 1236 q 540 1168 554 1197 l 496 1168 z "},"Ŋ":{"ha":1068,"x_min":-7,"x_max":1186,"o":"m 633 -219 q 560 -202 593 -219 q 508 -156 526 -185 q 489 -89 489 -126 q 514 -21 489 -46 q 574 4 539 4 q 629 -19 610 4 q 649 -67 649 -42 q 641 -96 649 -83 q 626 -120 633 -108 q 618 -149 618 -132 q 628 -172 618 -164 q 656 -179 638 -179 q 695 -167 672 -179 q 742 -112 718 -156 q 788 26 767 -68 l 1004 1024 l 1046 1024 l 831 49 q 788 -92 813 -32 q 727 -186 764 -153 q 633 -219 690 -219 m -7 0 l -7 35 l 329 35 l 329 0 l -7 0 m 128 0 l 356 1047 l 397 1047 l 169 0 l 128 0 m 796 65 l 388 979 l 382 979 l 382 1047 l 554 1047 l 863 397 l 868 397 l 824 65 l 796 65 m 204 1013 l 204 1047 l 554 1047 l 554 1013 l 204 1013 m 850 1013 l 850 1047 l 1186 1047 l 1186 1013 l 850 1013 z "},"O":{"ha":1068,"x_min":100,"x_max":1085,"o":"m 476 -15 q 313 18 383 -15 q 194 109 242 51 q 124 239 147 167 q 100 389 100 311 q 135 584 100 488 q 231 767 169 681 q 371 919 292 853 q 540 1022 450 985 q 719 1060 629 1060 q 875 1026 807 1060 q 990 934 943 992 q 1060 805 1036 876 q 1085 660 1085 733 q 1056 485 1085 578 q 973 304 1026 393 q 844 143 919 215 q 676 28 769 71 q 476 -15 583 -15 m 485 26 q 626 64 564 26 q 735 164 689 101 q 814 304 782 226 q 866 465 846 382 q 895 624 886 547 q 904 760 904 700 q 889 893 904 842 q 849 973 874 944 q 791 1012 824 1001 q 722 1022 758 1022 q 583 986 646 1022 q 474 889 521 950 q 392 751 426 828 q 335 591 357 674 q 302 431 313 508 q 292 289 292 353 q 335 96 292 165 q 485 26 379 26 z "},"Ó":{"ha":1068,"x_min":100,"x_max":1085,"o":"m 476 -15 q 313 18 383 -15 q 194 109 242 51 q 124 239 147 167 q 100 389 100 311 q 135 584 100 488 q 231 767 169 681 q 371 919 292 853 q 540 1022 450 985 q 719 1060 629 1060 q 875 1026 807 1060 q 990 934 943 992 q 1060 805 1036 876 q 1085 660 1085 733 q 1056 485 1085 578 q 973 304 1026 393 q 844 143 919 215 q 676 28 769 71 q 476 -15 583 -15 m 485 26 q 626 64 564 26 q 735 164 689 101 q 814 304 782 226 q 866 465 846 382 q 895 624 886 547 q 904 760 904 700 q 889 893 904 842 q 849 973 874 944 q 791 1012 824 1001 q 722 1022 758 1022 q 583 986 646 1022 q 474 889 521 950 q 392 751 426 828 q 335 591 357 674 q 302 431 313 508 q 292 289 292 353 q 335 96 292 165 q 485 26 379 26 m 560 1169 l 799 1314 q 869 1353 843 1342 q 917 1364 896 1364 q 955 1350 940 1364 q 969 1310 969 1336 q 947 1257 969 1279 q 874 1224 924 1235 l 632 1169 l 560 1169 z "},"Ŏ":{"ha":1068,"x_min":100,"x_max":1085,"o":"m 476 -15 q 313 18 383 -15 q 194 109 242 51 q 124 239 147 167 q 100 389 100 311 q 135 584 100 488 q 231 767 169 681 q 371 919 292 853 q 540 1022 450 985 q 719 1060 629 1060 q 875 1026 807 1060 q 990 934 943 992 q 1060 805 1036 876 q 1085 660 1085 733 q 1056 485 1085 578 q 973 304 1026 393 q 844 143 919 215 q 676 28 769 71 q 476 -15 583 -15 m 485 26 q 626 64 564 26 q 735 164 689 101 q 814 304 782 226 q 866 465 846 382 q 895 624 886 547 q 904 760 904 700 q 889 893 904 842 q 849 973 874 944 q 791 1012 824 1001 q 722 1022 758 1022 q 583 986 646 1022 q 474 889 521 950 q 392 751 426 828 q 335 591 357 674 q 302 431 313 508 q 292 289 292 353 q 335 96 292 165 q 485 26 379 26 m 763 1169 q 613 1222 663 1169 q 583 1360 563 1275 l 631 1360 q 647 1306 631 1325 q 696 1278 664 1286 q 772 1271 728 1271 q 869 1281 828 1271 q 936 1310 910 1290 q 971 1360 963 1329 l 1018 1360 q 935 1224 1001 1279 q 763 1169 869 1169 z "},"Ô":{"ha":1068,"x_min":100,"x_max":1085,"o":"m 476 -15 q 313 18 383 -15 q 194 109 242 51 q 124 239 147 167 q 100 389 100 311 q 135 584 100 488 q 231 767 169 681 q 371 919 292 853 q 540 1022 450 985 q 719 1060 629 1060 q 875 1026 807 1060 q 990 934 943 992 q 1060 805 1036 876 q 1085 660 1085 733 q 1056 485 1085 578 q 973 304 1026 393 q 844 143 919 215 q 676 28 769 71 q 476 -15 583 -15 m 485 26 q 626 64 564 26 q 735 164 689 101 q 814 304 782 226 q 866 465 846 382 q 895 624 886 547 q 904 760 904 700 q 889 893 904 842 q 849 973 874 944 q 791 1012 824 1001 q 722 1022 758 1022 q 583 986 646 1022 q 474 889 521 950 q 392 751 426 828 q 335 591 357 674 q 302 431 313 508 q 292 289 292 353 q 335 96 292 165 q 485 26 379 26 m 556 1169 l 776 1364 l 863 1364 l 1004 1169 l 944 1169 l 797 1254 l 614 1169 l 556 1169 z "},"Ố":{"ha":1068,"x_min":100,"x_max":1085,"o":"m 476 -15 q 313 18 383 -15 q 194 109 242 51 q 124 239 147 167 q 100 389 100 311 q 135 584 100 488 q 231 767 169 681 q 371 919 292 853 q 540 1022 450 985 q 719 1060 629 1060 q 875 1026 807 1060 q 990 934 943 992 q 1060 805 1036 876 q 1085 660 1085 733 q 1056 485 1085 578 q 973 304 1026 393 q 844 143 919 215 q 676 28 769 71 q 476 -15 583 -15 m 485 26 q 626 64 564 26 q 735 164 689 101 q 814 304 782 226 q 866 465 846 382 q 895 624 886 547 q 904 760 904 700 q 889 893 904 842 q 849 973 874 944 q 791 1012 824 1001 q 722 1022 758 1022 q 583 986 646 1022 q 474 889 521 950 q 392 751 426 828 q 335 591 357 674 q 302 431 313 508 q 292 289 292 353 q 335 96 292 165 q 485 26 379 26 m 557 1142 l 736 1281 l 822 1281 l 950 1142 l 890 1142 l 771 1199 l 615 1142 l 557 1142 m 588 1328 l 826 1472 q 897 1511 871 1500 q 944 1522 924 1522 q 983 1508 968 1522 q 997 1468 997 1494 q 974 1415 997 1438 q 901 1382 951 1393 l 660 1328 l 588 1328 z "},"Ộ":{"ha":1068,"x_min":100,"x_max":1085,"o":"m 476 -15 q 313 18 383 -15 q 194 109 242 51 q 124 239 147 167 q 100 389 100 311 q 135 584 100 488 q 231 767 169 681 q 371 919 292 853 q 540 1022 450 985 q 719 1060 629 1060 q 875 1026 807 1060 q 990 934 943 992 q 1060 805 1036 876 q 1085 660 1085 733 q 1056 485 1085 578 q 973 304 1026 393 q 844 143 919 215 q 676 28 769 71 q 476 -15 583 -15 m 485 26 q 626 64 564 26 q 735 164 689 101 q 814 304 782 226 q 866 465 846 382 q 895 624 886 547 q 904 760 904 700 q 889 893 904 842 q 849 973 874 944 q 791 1012 824 1001 q 722 1022 758 1022 q 583 986 646 1022 q 474 889 521 950 q 392 751 426 828 q 335 591 357 674 q 302 431 313 508 q 292 289 292 353 q 335 96 292 165 q 485 26 379 26 m 418 -282 q 352 -255 379 -282 q 325 -189 325 -228 q 352 -122 325 -149 q 418 -94 379 -94 q 485 -122 458 -94 q 513 -189 513 -149 q 485 -255 513 -228 q 418 -282 458 -282 m 556 1169 l 776 1364 l 863 1364 l 1004 1169 l 944 1169 l 797 1254 l 614 1169 l 556 1169 z "},"Ồ":{"ha":1068,"x_min":100,"x_max":1085,"o":"m 476 -15 q 313 18 383 -15 q 194 109 242 51 q 124 239 147 167 q 100 389 100 311 q 135 584 100 488 q 231 767 169 681 q 371 919 292 853 q 540 1022 450 985 q 719 1060 629 1060 q 875 1026 807 1060 q 990 934 943 992 q 1060 805 1036 876 q 1085 660 1085 733 q 1056 485 1085 578 q 973 304 1026 393 q 844 143 919 215 q 676 28 769 71 q 476 -15 583 -15 m 485 26 q 626 64 564 26 q 735 164 689 101 q 814 304 782 226 q 866 465 846 382 q 895 624 886 547 q 904 760 904 700 q 889 893 904 842 q 849 973 874 944 q 791 1012 824 1001 q 722 1022 758 1022 q 583 986 646 1022 q 474 889 521 950 q 392 751 426 828 q 335 591 357 674 q 302 431 313 508 q 292 289 292 353 q 335 96 292 165 q 485 26 379 26 m 563 1142 l 742 1281 l 828 1281 l 956 1142 l 896 1142 l 776 1199 l 621 1142 l 563 1142 m 921 1344 l 690 1406 q 649 1428 663 1413 q 635 1465 635 1443 q 656 1517 635 1494 q 710 1539 676 1539 q 745 1528 728 1539 q 801 1489 763 1518 l 994 1344 l 921 1344 z "},"Ổ":{"ha":1068,"x_min":100,"x_max":1085,"o":"m 476 -15 q 313 18 383 -15 q 194 109 242 51 q 124 239 147 167 q 100 389 100 311 q 135 584 100 488 q 231 767 169 681 q 371 919 292 853 q 540 1022 450 985 q 719 1060 629 1060 q 875 1026 807 1060 q 990 934 943 992 q 1060 805 1036 876 q 1085 660 1085 733 q 1056 485 1085 578 q 973 304 1026 393 q 844 143 919 215 q 676 28 769 71 q 476 -15 583 -15 m 485 26 q 626 64 564 26 q 735 164 689 101 q 814 304 782 226 q 866 465 846 382 q 895 624 886 547 q 904 760 904 700 q 889 893 904 842 q 849 973 874 944 q 791 1012 824 1001 q 722 1022 758 1022 q 583 986 646 1022 q 474 889 521 950 q 392 751 426 828 q 335 591 357 674 q 302 431 313 508 q 292 289 292 353 q 335 96 292 165 q 485 26 379 26 m 554 1142 l 733 1281 l 819 1281 l 947 1142 l 888 1142 l 768 1199 l 613 1142 l 554 1142 m 897 1256 q 919 1297 903 1281 q 951 1328 935 1314 q 969 1358 967 1342 q 963 1410 976 1399 q 926 1421 949 1421 q 889 1411 906 1421 q 869 1386 872 1401 q 872 1374 868 1378 q 878 1365 875 1371 q 879 1347 882 1360 q 865 1325 878 1333 q 829 1317 851 1317 q 793 1331 806 1317 q 785 1365 781 1344 q 842 1451 796 1426 q 935 1476 889 1476 q 1030 1449 997 1476 q 1051 1361 1063 1421 q 1033 1326 1047 1340 q 999 1301 1018 1313 q 961 1280 979 1290 q 935 1256 943 1269 l 897 1256 z "},"Ỗ":{"ha":1068,"x_min":100,"x_max":1085,"o":"m 476 -15 q 313 18 383 -15 q 194 109 242 51 q 124 239 147 167 q 100 389 100 311 q 135 584 100 488 q 231 767 169 681 q 371 919 292 853 q 540 1022 450 985 q 719 1060 629 1060 q 875 1026 807 1060 q 990 934 943 992 q 1060 805 1036 876 q 1085 660 1085 733 q 1056 485 1085 578 q 973 304 1026 393 q 844 143 919 215 q 676 28 769 71 q 476 -15 583 -15 m 485 26 q 626 64 564 26 q 735 164 689 101 q 814 304 782 226 q 866 465 846 382 q 895 624 886 547 q 904 760 904 700 q 889 893 904 842 q 849 973 874 944 q 791 1012 824 1001 q 722 1022 758 1022 q 583 986 646 1022 q 474 889 521 950 q 392 751 426 828 q 335 591 357 674 q 302 431 313 508 q 292 289 292 353 q 335 96 292 165 q 485 26 379 26 m 557 1142 l 736 1281 l 822 1281 l 950 1142 l 890 1142 l 771 1199 l 615 1142 l 557 1142 m 564 1318 q 605 1408 578 1368 q 669 1469 632 1447 q 747 1492 706 1492 q 815 1475 788 1492 q 867 1442 842 1458 q 925 1425 893 1425 q 988 1449 963 1425 q 1028 1496 1014 1472 l 1075 1496 q 999 1363 1049 1406 q 890 1319 949 1319 q 819 1336 847 1319 q 767 1369 792 1353 q 710 1386 743 1386 q 649 1367 675 1386 q 608 1318 622 1347 l 564 1318 z "},"Ȍ":{"ha":1068,"x_min":100,"x_max":1086,"o":"m 476 -15 q 313 18 383 -15 q 194 109 242 51 q 124 239 147 167 q 100 389 100 311 q 135 584 100 488 q 231 767 169 681 q 371 919 292 853 q 540 1022 450 985 q 719 1060 629 1060 q 875 1026 807 1060 q 990 934 943 992 q 1060 805 1036 876 q 1085 660 1085 733 q 1056 485 1085 578 q 973 304 1026 393 q 844 143 919 215 q 676 28 769 71 q 476 -15 583 -15 m 485 26 q 626 64 564 26 q 735 164 689 101 q 814 304 782 226 q 866 465 846 382 q 895 624 886 547 q 904 760 904 700 q 889 893 904 842 q 849 973 874 944 q 791 1012 824 1001 q 722 1022 758 1022 q 583 986 646 1022 q 474 889 521 950 q 392 751 426 828 q 335 591 357 674 q 302 431 313 508 q 292 289 292 353 q 335 96 292 165 q 485 26 379 26 m 1013 1169 l 782 1231 q 740 1253 754 1238 q 726 1290 726 1268 q 747 1342 726 1319 q 801 1364 768 1364 q 837 1353 819 1364 q 893 1314 854 1343 l 1086 1169 l 1013 1169 m 729 1169 l 499 1231 q 457 1253 471 1238 q 443 1290 443 1268 q 464 1342 443 1319 q 518 1364 485 1364 q 553 1353 536 1364 q 610 1314 571 1343 l 803 1169 l 729 1169 z "},"Ö":{"ha":1068,"x_min":100,"x_max":1085,"o":"m 476 -15 q 313 18 383 -15 q 194 109 242 51 q 124 239 147 167 q 100 389 100 311 q 135 584 100 488 q 231 767 169 681 q 371 919 292 853 q 540 1022 450 985 q 719 1060 629 1060 q 875 1026 807 1060 q 990 934 943 992 q 1060 805 1036 876 q 1085 660 1085 733 q 1056 485 1085 578 q 973 304 1026 393 q 844 143 919 215 q 676 28 769 71 q 476 -15 583 -15 m 485 26 q 626 64 564 26 q 735 164 689 101 q 814 304 782 226 q 866 465 846 382 q 895 624 886 547 q 904 760 904 700 q 889 893 904 842 q 849 973 874 944 q 791 1012 824 1001 q 722 1022 758 1022 q 583 986 646 1022 q 474 889 521 950 q 392 751 426 828 q 335 591 357 674 q 302 431 313 508 q 292 289 292 353 q 335 96 292 165 q 485 26 379 26 m 928 1164 q 866 1189 892 1164 q 840 1250 840 1214 q 866 1311 840 1286 q 928 1336 892 1336 q 990 1311 964 1336 q 1015 1250 1015 1286 q 990 1189 1015 1214 q 928 1164 964 1164 m 628 1164 q 565 1189 590 1164 q 540 1250 540 1214 q 565 1311 540 1286 q 628 1336 590 1336 q 690 1311 664 1336 q 715 1250 715 1286 q 690 1189 715 1214 q 628 1164 664 1164 z "},"Ọ":{"ha":1068,"x_min":100,"x_max":1085,"o":"m 476 -15 q 313 18 383 -15 q 194 109 242 51 q 124 239 147 167 q 100 389 100 311 q 135 584 100 488 q 231 767 169 681 q 371 919 292 853 q 540 1022 450 985 q 719 1060 629 1060 q 875 1026 807 1060 q 990 934 943 992 q 1060 805 1036 876 q 1085 660 1085 733 q 1056 485 1085 578 q 973 304 1026 393 q 844 143 919 215 q 676 28 769 71 q 476 -15 583 -15 m 485 26 q 626 64 564 26 q 735 164 689 101 q 814 304 782 226 q 866 465 846 382 q 895 624 886 547 q 904 760 904 700 q 889 893 904 842 q 849 973 874 944 q 791 1012 824 1001 q 722 1022 758 1022 q 583 986 646 1022 q 474 889 521 950 q 392 751 426 828 q 335 591 357 674 q 302 431 313 508 q 292 289 292 353 q 335 96 292 165 q 485 26 379 26 m 418 -282 q 352 -255 379 -282 q 325 -189 325 -228 q 352 -122 325 -149 q 418 -94 379 -94 q 485 -122 458 -94 q 513 -189 513 -149 q 485 -255 513 -228 q 418 -282 458 -282 z "},"Ò":{"ha":1068,"x_min":100,"x_max":1085,"o":"m 476 -15 q 313 18 383 -15 q 194 109 242 51 q 124 239 147 167 q 100 389 100 311 q 135 584 100 488 q 231 767 169 681 q 371 919 292 853 q 540 1022 450 985 q 719 1060 629 1060 q 875 1026 807 1060 q 990 934 943 992 q 1060 805 1036 876 q 1085 660 1085 733 q 1056 485 1085 578 q 973 304 1026 393 q 844 143 919 215 q 676 28 769 71 q 476 -15 583 -15 m 485 26 q 626 64 564 26 q 735 164 689 101 q 814 304 782 226 q 866 465 846 382 q 895 624 886 547 q 904 760 904 700 q 889 893 904 842 q 849 973 874 944 q 791 1012 824 1001 q 722 1022 758 1022 q 583 986 646 1022 q 474 889 521 950 q 392 751 426 828 q 335 591 357 674 q 302 431 313 508 q 292 289 292 353 q 335 96 292 165 q 485 26 379 26 m 871 1169 l 640 1231 q 599 1253 613 1238 q 585 1290 585 1268 q 606 1342 585 1319 q 660 1364 626 1364 q 695 1353 678 1364 q 751 1314 713 1343 l 944 1169 l 871 1169 z "},"Ỏ":{"ha":1068,"x_min":100,"x_max":1085,"o":"m 476 -15 q 313 18 383 -15 q 194 109 242 51 q 124 239 147 167 q 100 389 100 311 q 135 584 100 488 q 231 767 169 681 q 371 919 292 853 q 540 1022 450 985 q 719 1060 629 1060 q 875 1026 807 1060 q 990 934 943 992 q 1060 805 1036 876 q 1085 660 1085 733 q 1056 485 1085 578 q 973 304 1026 393 q 844 143 919 215 q 676 28 769 71 q 476 -15 583 -15 m 485 26 q 626 64 564 26 q 735 164 689 101 q 814 304 782 226 q 866 465 846 382 q 895 624 886 547 q 904 760 904 700 q 889 893 904 842 q 849 973 874 944 q 791 1012 824 1001 q 722 1022 758 1022 q 583 986 646 1022 q 474 889 521 950 q 392 751 426 828 q 335 591 357 674 q 302 431 313 508 q 292 289 292 353 q 335 96 292 165 q 485 26 379 26 m 768 1142 q 783 1174 772 1161 q 806 1199 793 1188 q 828 1222 818 1211 q 840 1244 838 1232 q 833 1296 847 1285 q 797 1307 819 1307 q 760 1297 776 1307 q 740 1272 743 1288 q 742 1260 739 1264 q 749 1251 746 1257 q 750 1233 753 1246 q 735 1211 749 1219 q 700 1203 722 1203 q 664 1217 676 1203 q 656 1251 651 1231 q 688 1317 664 1293 q 743 1352 711 1342 q 806 1363 775 1363 q 901 1335 868 1363 q 922 1247 933 1307 q 903 1213 918 1226 q 869 1188 889 1199 q 832 1166 850 1176 q 806 1142 814 1156 l 768 1142 z "},"Ơ":{"ha":1068,"x_min":100,"x_max":1085,"o":"m 476 -15 q 313 18 383 -15 q 194 109 242 51 q 124 239 147 167 q 100 389 100 311 q 135 584 100 488 q 231 767 169 681 q 371 919 292 853 q 540 1022 450 985 q 719 1060 629 1060 q 875 1026 807 1060 q 990 934 943 992 q 1060 805 1036 876 q 1085 660 1085 733 q 1056 485 1085 578 q 973 304 1026 393 q 844 143 919 215 q 676 28 769 71 q 476 -15 583 -15 m 485 26 q 626 64 564 26 q 735 164 689 101 q 814 304 782 226 q 866 465 846 382 q 895 624 886 547 q 904 760 904 700 q 889 893 904 842 q 849 973 874 944 q 791 1012 824 1001 q 722 1022 758 1022 q 583 986 646 1022 q 474 889 521 950 q 392 751 426 828 q 335 591 357 674 q 302 431 313 508 q 292 289 292 353 q 335 96 292 165 q 485 26 379 26 m 801 1013 l 806 1050 q 867 1056 843 1050 q 905 1076 890 1063 q 928 1110 919 1089 q 944 1160 938 1131 l 1033 1160 q 998 1070 1022 1103 q 927 1025 974 1038 q 801 1013 881 1013 z "},"Ớ":{"ha":1068,"x_min":100,"x_max":1085,"o":"m 476 -15 q 313 18 383 -15 q 194 109 242 51 q 124 239 147 167 q 100 389 100 311 q 135 584 100 488 q 231 767 169 681 q 371 919 292 853 q 540 1022 450 985 q 719 1060 629 1060 q 875 1026 807 1060 q 990 934 943 992 q 1060 805 1036 876 q 1085 660 1085 733 q 1056 485 1085 578 q 973 304 1026 393 q 844 143 919 215 q 676 28 769 71 q 476 -15 583 -15 m 485 26 q 626 64 564 26 q 735 164 689 101 q 814 304 782 226 q 866 465 846 382 q 895 624 886 547 q 904 760 904 700 q 889 893 904 842 q 849 973 874 944 q 791 1012 824 1001 q 722 1022 758 1022 q 583 986 646 1022 q 474 889 521 950 q 392 751 426 828 q 335 591 357 674 q 302 431 313 508 q 292 289 292 353 q 335 96 292 165 q 485 26 379 26 m 801 1013 l 806 1050 q 867 1056 843 1050 q 905 1076 890 1063 q 928 1110 919 1089 q 944 1160 938 1131 l 1033 1160 q 998 1070 1022 1103 q 927 1025 974 1038 q 801 1013 881 1013 m 560 1169 l 799 1314 q 869 1353 843 1342 q 917 1364 896 1364 q 955 1350 940 1364 q 969 1310 969 1336 q 947 1257 969 1279 q 874 1224 924 1235 l 632 1169 l 560 1169 z "},"Ợ":{"ha":1068,"x_min":100,"x_max":1085,"o":"m 476 -15 q 313 18 383 -15 q 194 109 242 51 q 124 239 147 167 q 100 389 100 311 q 135 584 100 488 q 231 767 169 681 q 371 919 292 853 q 540 1022 450 985 q 719 1060 629 1060 q 875 1026 807 1060 q 990 934 943 992 q 1060 805 1036 876 q 1085 660 1085 733 q 1056 485 1085 578 q 973 304 1026 393 q 844 143 919 215 q 676 28 769 71 q 476 -15 583 -15 m 485 26 q 626 64 564 26 q 735 164 689 101 q 814 304 782 226 q 866 465 846 382 q 895 624 886 547 q 904 760 904 700 q 889 893 904 842 q 849 973 874 944 q 791 1012 824 1001 q 722 1022 758 1022 q 583 986 646 1022 q 474 889 521 950 q 392 751 426 828 q 335 591 357 674 q 302 431 313 508 q 292 289 292 353 q 335 96 292 165 q 485 26 379 26 m 801 1013 l 806 1050 q 867 1056 843 1050 q 905 1076 890 1063 q 928 1110 919 1089 q 944 1160 938 1131 l 1033 1160 q 998 1070 1022 1103 q 927 1025 974 1038 q 801 1013 881 1013 m 418 -282 q 352 -255 379 -282 q 325 -189 325 -228 q 352 -122 325 -149 q 418 -94 379 -94 q 485 -122 458 -94 q 513 -189 513 -149 q 485 -255 513 -228 q 418 -282 458 -282 z "},"Ờ":{"ha":1068,"x_min":100,"x_max":1085,"o":"m 476 -15 q 313 18 383 -15 q 194 109 242 51 q 124 239 147 167 q 100 389 100 311 q 135 584 100 488 q 231 767 169 681 q 371 919 292 853 q 540 1022 450 985 q 719 1060 629 1060 q 875 1026 807 1060 q 990 934 943 992 q 1060 805 1036 876 q 1085 660 1085 733 q 1056 485 1085 578 q 973 304 1026 393 q 844 143 919 215 q 676 28 769 71 q 476 -15 583 -15 m 485 26 q 626 64 564 26 q 735 164 689 101 q 814 304 782 226 q 866 465 846 382 q 895 624 886 547 q 904 760 904 700 q 889 893 904 842 q 849 973 874 944 q 791 1012 824 1001 q 722 1022 758 1022 q 583 986 646 1022 q 474 889 521 950 q 392 751 426 828 q 335 591 357 674 q 302 431 313 508 q 292 289 292 353 q 335 96 292 165 q 485 26 379 26 m 801 1013 l 806 1050 q 867 1056 843 1050 q 905 1076 890 1063 q 928 1110 919 1089 q 944 1160 938 1131 l 1033 1160 q 998 1070 1022 1103 q 927 1025 974 1038 q 801 1013 881 1013 m 871 1169 l 640 1231 q 599 1253 613 1238 q 585 1290 585 1268 q 606 1342 585 1319 q 660 1364 626 1364 q 695 1353 678 1364 q 751 1314 713 1343 l 944 1169 l 871 1169 z "},"Ở":{"ha":1068,"x_min":100,"x_max":1085,"o":"m 476 -15 q 313 18 383 -15 q 194 109 242 51 q 124 239 147 167 q 100 389 100 311 q 135 584 100 488 q 231 767 169 681 q 371 919 292 853 q 540 1022 450 985 q 719 1060 629 1060 q 875 1026 807 1060 q 990 934 943 992 q 1060 805 1036 876 q 1085 660 1085 733 q 1056 485 1085 578 q 973 304 1026 393 q 844 143 919 215 q 676 28 769 71 q 476 -15 583 -15 m 485 26 q 626 64 564 26 q 735 164 689 101 q 814 304 782 226 q 866 465 846 382 q 895 624 886 547 q 904 760 904 700 q 889 893 904 842 q 849 973 874 944 q 791 1012 824 1001 q 722 1022 758 1022 q 583 986 646 1022 q 474 889 521 950 q 392 751 426 828 q 335 591 357 674 q 302 431 313 508 q 292 289 292 353 q 335 96 292 165 q 485 26 379 26 m 801 1013 l 806 1050 q 867 1056 843 1050 q 905 1076 890 1063 q 928 1110 919 1089 q 944 1160 938 1131 l 1033 1160 q 998 1070 1022 1103 q 927 1025 974 1038 q 801 1013 881 1013 m 768 1142 q 783 1174 772 1161 q 806 1199 793 1188 q 828 1222 818 1211 q 840 1244 838 1232 q 833 1296 847 1285 q 797 1307 819 1307 q 760 1297 776 1307 q 740 1272 743 1288 q 742 1260 739 1264 q 749 1251 746 1257 q 750 1233 753 1246 q 735 1211 749 1219 q 700 1203 722 1203 q 664 1217 676 1203 q 656 1251 651 1231 q 688 1317 664 1293 q 743 1352 711 1342 q 806 1363 775 1363 q 901 1335 868 1363 q 922 1247 933 1307 q 903 1213 918 1226 q 869 1188 889 1199 q 832 1166 850 1176 q 806 1142 814 1156 l 768 1142 z "},"Ỡ":{"ha":1068,"x_min":100,"x_max":1085,"o":"m 476 -15 q 313 18 383 -15 q 194 109 242 51 q 124 239 147 167 q 100 389 100 311 q 135 584 100 488 q 231 767 169 681 q 371 919 292 853 q 540 1022 450 985 q 719 1060 629 1060 q 875 1026 807 1060 q 990 934 943 992 q 1060 805 1036 876 q 1085 660 1085 733 q 1056 485 1085 578 q 973 304 1026 393 q 844 143 919 215 q 676 28 769 71 q 476 -15 583 -15 m 485 26 q 626 64 564 26 q 735 164 689 101 q 814 304 782 226 q 866 465 846 382 q 895 624 886 547 q 904 760 904 700 q 889 893 904 842 q 849 973 874 944 q 791 1012 824 1001 q 722 1022 758 1022 q 583 986 646 1022 q 474 889 521 950 q 392 751 426 828 q 335 591 357 674 q 302 431 313 508 q 292 289 292 353 q 335 96 292 165 q 485 26 379 26 m 801 1013 l 806 1050 q 867 1056 843 1050 q 905 1076 890 1063 q 928 1110 919 1089 q 944 1160 938 1131 l 1033 1160 q 998 1070 1022 1103 q 927 1025 974 1038 q 801 1013 881 1013 m 532 1168 q 573 1258 546 1218 q 637 1319 600 1297 q 715 1342 674 1342 q 783 1325 756 1342 q 835 1292 810 1308 q 893 1275 861 1275 q 956 1299 931 1275 q 996 1346 982 1322 l 1043 1346 q 967 1213 1017 1256 q 858 1169 917 1169 q 788 1186 815 1169 q 735 1219 760 1203 q 678 1236 711 1236 q 617 1217 643 1236 q 576 1168 590 1197 l 532 1168 z "},"Ő":{"ha":1068,"x_min":100,"x_max":1111,"o":"m 476 -15 q 313 18 383 -15 q 194 109 242 51 q 124 239 147 167 q 100 389 100 311 q 135 584 100 488 q 231 767 169 681 q 371 919 292 853 q 540 1022 450 985 q 719 1060 629 1060 q 875 1026 807 1060 q 990 934 943 992 q 1060 805 1036 876 q 1085 660 1085 733 q 1056 485 1085 578 q 973 304 1026 393 q 844 143 919 215 q 676 28 769 71 q 476 -15 583 -15 m 485 26 q 626 64 564 26 q 735 164 689 101 q 814 304 782 226 q 866 465 846 382 q 895 624 886 547 q 904 760 904 700 q 889 893 904 842 q 849 973 874 944 q 791 1012 824 1001 q 722 1022 758 1022 q 583 986 646 1022 q 474 889 521 950 q 392 751 426 828 q 335 591 357 674 q 302 431 313 508 q 292 289 292 353 q 335 96 292 165 q 485 26 379 26 m 701 1169 l 953 1336 q 1013 1369 988 1360 q 1058 1378 1038 1378 q 1097 1365 1082 1378 q 1111 1324 1111 1351 q 1088 1272 1111 1293 q 1015 1238 1064 1251 l 774 1169 l 701 1169 m 415 1169 l 667 1336 q 726 1369 701 1360 q 772 1378 751 1378 q 810 1365 796 1378 q 825 1324 825 1351 q 801 1272 825 1293 q 729 1238 778 1251 l 488 1169 l 415 1169 z "},"Ȏ":{"ha":1068,"x_min":100,"x_max":1085,"o":"m 476 -15 q 313 18 383 -15 q 194 109 242 51 q 124 239 147 167 q 100 389 100 311 q 135 584 100 488 q 231 767 169 681 q 371 919 292 853 q 540 1022 450 985 q 719 1060 629 1060 q 875 1026 807 1060 q 990 934 943 992 q 1060 805 1036 876 q 1085 660 1085 733 q 1056 485 1085 578 q 973 304 1026 393 q 844 143 919 215 q 676 28 769 71 q 476 -15 583 -15 m 485 26 q 626 64 564 26 q 735 164 689 101 q 814 304 782 226 q 866 465 846 382 q 895 624 886 547 q 904 760 904 700 q 889 893 904 842 q 849 973 874 944 q 791 1012 824 1001 q 722 1022 758 1022 q 583 986 646 1022 q 474 889 521 950 q 392 751 426 828 q 335 591 357 674 q 302 431 313 508 q 292 289 292 353 q 335 96 292 165 q 485 26 379 26 m 533 1169 q 615 1305 549 1250 q 783 1360 682 1360 q 924 1317 874 1360 q 974 1213 974 1274 q 968 1169 974 1192 l 921 1169 q 884 1240 921 1222 q 779 1258 847 1258 q 645 1237 696 1258 q 581 1169 594 1215 l 533 1169 z "},"Ō":{"ha":1068,"x_min":100,"x_max":1085,"o":"m 476 -15 q 313 18 383 -15 q 194 109 242 51 q 124 239 147 167 q 100 389 100 311 q 135 584 100 488 q 231 767 169 681 q 371 919 292 853 q 540 1022 450 985 q 719 1060 629 1060 q 875 1026 807 1060 q 990 934 943 992 q 1060 805 1036 876 q 1085 660 1085 733 q 1056 485 1085 578 q 973 304 1026 393 q 844 143 919 215 q 676 28 769 71 q 476 -15 583 -15 m 485 26 q 626 64 564 26 q 735 164 689 101 q 814 304 782 226 q 866 465 846 382 q 895 624 886 547 q 904 760 904 700 q 889 893 904 842 q 849 973 874 944 q 791 1012 824 1001 q 722 1022 758 1022 q 583 986 646 1022 q 474 889 521 950 q 392 751 426 828 q 335 591 357 674 q 302 431 313 508 q 292 289 292 353 q 335 96 292 165 q 485 26 379 26 m 551 1189 l 572 1281 l 1017 1281 l 996 1189 l 551 1189 z "},"Ǫ":{"ha":1068,"x_min":100,"x_max":1085,"o":"m 476 -15 q 313 18 383 -15 q 194 109 242 51 q 124 239 147 167 q 100 389 100 311 q 135 584 100 488 q 231 767 169 681 q 371 919 292 853 q 540 1022 450 985 q 719 1060 629 1060 q 875 1026 807 1060 q 990 934 943 992 q 1060 805 1036 876 q 1085 660 1085 733 q 1056 485 1085 578 q 973 304 1026 393 q 844 143 919 215 q 676 28 769 71 q 476 -15 583 -15 m 485 26 q 626 64 564 26 q 735 164 689 101 q 814 304 782 226 q 866 465 846 382 q 895 624 886 547 q 904 760 904 700 q 889 893 904 842 q 849 973 874 944 q 791 1012 824 1001 q 722 1022 758 1022 q 583 986 646 1022 q 474 889 521 950 q 392 751 426 828 q 335 591 357 674 q 302 431 313 508 q 292 289 292 353 q 335 96 292 165 q 485 26 379 26 m 369 -322 q 292 -299 322 -322 q 263 -239 263 -276 q 333 -108 263 -181 q 522 25 404 -36 l 572 17 q 428 -99 479 -40 q 378 -210 378 -158 q 392 -251 378 -236 q 431 -265 406 -265 q 466 -258 447 -265 q 510 -236 485 -251 l 526 -258 q 456 -304 499 -286 q 369 -322 413 -322 z "},"Ø":{"ha":1068,"x_min":61,"x_max":1138,"o":"m 61 -74 l 206 94 q 126 229 153 151 q 100 389 100 307 q 135 584 100 488 q 231 767 169 681 q 371 919 292 853 q 540 1022 450 985 q 719 1060 629 1060 q 853 1035 793 1060 q 957 968 913 1010 l 1085 1117 l 1138 1117 l 985 939 q 1059 810 1033 883 q 1085 660 1085 736 q 1056 485 1085 578 q 973 304 1026 393 q 844 143 919 215 q 676 28 769 71 q 476 -15 583 -15 q 340 7 400 -15 q 235 68 279 29 l 113 -74 l 61 -74 m 485 26 q 638 78 567 26 q 766 217 710 131 q 858 411 822 304 q 905 630 893 518 q 899 840 917 742 l 308 154 q 370 60 328 93 q 485 26 413 26 m 297 201 l 889 889 q 849 972 875 943 q 791 1011 824 1000 q 722 1022 758 1022 q 583 986 646 1022 q 474 889 521 950 q 392 751 426 828 q 335 591 357 674 q 302 431 313 508 q 292 289 292 353 q 293 243 292 265 q 297 201 294 221 z "},"Ǿ":{"ha":1068,"x_min":61,"x_max":1138,"o":"m 61 -74 l 206 94 q 126 229 153 151 q 100 389 100 307 q 135 584 100 488 q 231 767 169 681 q 371 919 292 853 q 540 1022 450 985 q 719 1060 629 1060 q 853 1035 793 1060 q 957 968 913 1010 l 1085 1117 l 1138 1117 l 985 939 q 1059 810 1033 883 q 1085 660 1085 736 q 1056 485 1085 578 q 973 304 1026 393 q 844 143 919 215 q 676 28 769 71 q 476 -15 583 -15 q 340 7 400 -15 q 235 68 279 29 l 113 -74 l 61 -74 m 485 26 q 638 78 567 26 q 766 217 710 131 q 858 411 822 304 q 905 630 893 518 q 899 840 917 742 l 308 154 q 370 60 328 93 q 485 26 413 26 m 297 201 l 889 889 q 849 972 875 943 q 791 1011 824 1000 q 722 1022 758 1022 q 583 986 646 1022 q 474 889 521 950 q 392 751 426 828 q 335 591 357 674 q 302 431 313 508 q 292 289 292 353 q 293 243 292 265 q 297 201 294 221 m 524 1169 l 763 1314 q 833 1353 807 1342 q 881 1364 860 1364 q 919 1350 904 1364 q 933 1310 933 1336 q 910 1257 933 1279 q 838 1224 888 1235 l 596 1169 l 524 1169 z "},"Õ":{"ha":1068,"x_min":100,"x_max":1085,"o":"m 476 -15 q 313 18 383 -15 q 194 109 242 51 q 124 239 147 167 q 100 389 100 311 q 135 584 100 488 q 231 767 169 681 q 371 919 292 853 q 540 1022 450 985 q 719 1060 629 1060 q 875 1026 807 1060 q 990 934 943 992 q 1060 805 1036 876 q 1085 660 1085 733 q 1056 485 1085 578 q 973 304 1026 393 q 844 143 919 215 q 676 28 769 71 q 476 -15 583 -15 m 485 26 q 626 64 564 26 q 735 164 689 101 q 814 304 782 226 q 866 465 846 382 q 895 624 886 547 q 904 760 904 700 q 889 893 904 842 q 849 973 874 944 q 791 1012 824 1001 q 722 1022 758 1022 q 583 986 646 1022 q 474 889 521 950 q 392 751 426 828 q 335 591 357 674 q 302 431 313 508 q 292 289 292 353 q 335 96 292 165 q 485 26 379 26 m 532 1168 q 573 1258 546 1218 q 637 1319 600 1297 q 715 1342 674 1342 q 783 1325 756 1342 q 835 1292 810 1308 q 893 1275 861 1275 q 956 1299 931 1275 q 996 1346 982 1322 l 1043 1346 q 967 1213 1017 1256 q 858 1169 917 1169 q 788 1186 815 1169 q 735 1219 760 1203 q 678 1236 711 1236 q 617 1217 643 1236 q 576 1168 590 1197 l 532 1168 z "},"Œ":{"ha":1574,"x_min":100,"x_max":1589,"o":"m 476 0 q 316 33 386 0 q 198 122 246 67 q 125 249 150 178 q 100 394 100 319 q 133 586 100 492 q 226 763 167 681 q 361 910 285 846 q 524 1011 438 975 q 699 1047 611 1047 q 831 1014 772 1047 q 933 924 890 981 q 998 799 975 868 q 1021 656 1021 729 q 995 485 1021 575 q 922 310 969 396 q 807 153 874 224 q 657 42 740 83 q 476 0 574 0 m 467 42 q 601 78 542 42 q 706 174 660 114 q 783 310 751 235 q 836 468 815 386 q 867 627 857 550 q 876 765 876 704 q 852 918 876 865 q 789 990 828 971 q 706 1010 750 1010 q 572 974 632 1010 q 467 878 513 939 q 388 742 421 818 q 333 585 354 667 q 302 426 313 504 q 292 283 292 347 q 339 95 292 149 q 467 42 386 42 m 489 0 l 654 68 l 793 172 l 794 35 l 1149 35 q 1263 58 1211 35 q 1363 144 1314 82 q 1464 322 1411 206 l 1506 322 l 1422 0 l 489 0 m 736 0 l 964 1047 l 1126 1047 l 893 0 l 736 0 m 1199 314 q 1189 447 1199 401 q 1150 508 1179 492 q 1063 525 1121 525 l 942 525 l 942 560 l 1085 560 q 1177 575 1140 560 q 1240 630 1214 590 q 1288 742 1267 669 l 1322 742 l 1240 314 l 1199 314 m 1508 768 q 1490 918 1508 865 q 1421 992 1472 971 q 1271 1013 1369 1013 l 1013 1013 l 933 876 l 796 1004 l 699 1047 l 1589 1047 l 1550 768 l 1508 768 z "},"P":{"ha":893,"x_min":-35,"x_max":939,"o":"m 254 483 l 254 518 l 475 518 q 683 597 617 518 q 750 835 750 676 q 735 939 750 900 q 681 995 721 978 q 563 1013 640 1013 l 175 1013 l 175 1047 l 579 1047 q 847 974 756 1047 q 939 790 939 901 q 880 629 939 699 q 718 522 821 560 q 482 483 615 483 l 254 483 m -35 0 l -35 35 l 408 35 l 408 0 l -35 0 m 85 0 l 313 1047 l 475 1047 l 242 0 l 85 0 z "},"Þ":{"ha":864,"x_min":-39,"x_max":879,"o":"m 81 0 l 308 1047 l 471 1047 l 238 0 l 81 0 m -39 0 l -39 35 l 404 35 l 404 0 l -39 0 m 194 247 l 194 282 l 415 282 q 624 361 557 282 q 690 599 690 440 q 676 703 690 664 q 621 759 661 742 q 503 776 581 776 l 296 776 l 296 811 l 519 811 q 788 738 696 811 q 879 554 879 665 q 820 394 879 463 q 658 286 761 325 q 422 247 556 247 l 194 247 m 161 1013 l 161 1047 l 618 1047 l 618 1013 l 161 1013 z "},"Q":{"ha":1068,"x_min":100,"x_max":1085,"o":"m 476 -15 q 313 18 383 -15 q 194 109 242 51 q 124 239 147 167 q 100 389 100 311 q 135 584 100 488 q 231 767 169 681 q 371 919 292 853 q 540 1022 450 985 q 719 1060 629 1060 q 875 1026 807 1060 q 990 934 943 992 q 1060 805 1036 876 q 1085 660 1085 733 q 1056 485 1085 578 q 973 304 1026 393 q 844 143 919 215 q 676 28 769 71 q 476 -15 583 -15 m 703 -336 q 452 -265 540 -336 q 364 -56 364 -194 q 365 -24 364 -40 q 368 8 367 -8 l 599 17 q 571 -47 581 -14 q 561 -118 561 -79 q 612 -250 561 -208 q 751 -292 663 -292 q 797 -289 772 -292 q 849 -281 822 -286 l 858 -322 q 776 -333 815 -329 q 703 -336 738 -336 m 485 26 q 626 64 564 26 q 735 164 689 101 q 814 304 782 226 q 866 465 846 382 q 895 624 886 547 q 904 760 904 700 q 878 926 904 869 q 811 1002 853 982 q 722 1022 769 1022 q 583 986 646 1022 q 474 889 521 950 q 392 751 426 828 q 335 591 357 674 q 302 431 313 508 q 292 289 292 353 q 335 96 292 165 q 485 26 379 26 z "},"R":{"ha":976,"x_min":-1,"x_max":1010,"o":"m 118 0 l 346 1047 l 508 1047 l 275 0 l 118 0 m -1 0 l -1 35 l 442 35 l 442 0 l -1 0 m 879 -14 q 754 10 801 -14 q 683 74 707 35 q 651 158 660 113 q 640 247 642 203 q 636 324 639 290 q 606 449 632 401 q 538 519 581 497 q 438 542 496 542 l 608 546 l 608 540 q 724 483 681 513 q 790 414 767 453 q 822 321 813 375 q 833 192 831 267 q 841 99 836 135 q 864 48 846 64 q 924 32 882 32 q 960 37 946 32 q 988 54 975 42 l 1010 35 q 963 -1 990 13 q 879 -14 936 -14 m 288 543 l 288 578 l 544 578 q 722 650 660 578 q 783 861 783 722 q 769 950 783 917 q 715 998 756 983 q 596 1013 675 1013 l 208 1013 l 208 1047 l 613 1047 q 881 982 789 1047 q 972 813 972 917 q 853 617 972 692 q 515 543 733 543 l 288 543 z "},"Ŕ":{"ha":976,"x_min":-1,"x_max":1010,"o":"m 118 0 l 346 1047 l 508 1047 l 275 0 l 118 0 m -1 0 l -1 35 l 442 35 l 442 0 l -1 0 m 879 -14 q 754 10 801 -14 q 683 74 707 35 q 651 158 660 113 q 640 247 642 203 q 636 324 639 290 q 606 449 632 401 q 538 519 581 497 q 438 542 496 542 l 608 546 l 608 540 q 724 483 681 513 q 790 414 767 453 q 822 321 813 375 q 833 192 831 267 q 841 99 836 135 q 864 48 846 64 q 924 32 882 32 q 960 37 946 32 q 988 54 975 42 l 1010 35 q 963 -1 990 13 q 879 -14 936 -14 m 288 543 l 288 578 l 544 578 q 722 650 660 578 q 783 861 783 722 q 769 950 783 917 q 715 998 756 983 q 596 1013 675 1013 l 208 1013 l 208 1047 l 613 1047 q 881 982 789 1047 q 972 813 972 917 q 853 617 972 692 q 515 543 733 543 l 288 543 m 478 1169 l 717 1314 q 788 1353 761 1342 q 835 1364 814 1364 q 873 1350 858 1364 q 888 1310 888 1336 q 865 1257 888 1279 q 792 1224 842 1235 l 550 1169 l 478 1169 z "},"Ř":{"ha":976,"x_min":-1,"x_max":1010,"o":"m 118 0 l 346 1047 l 508 1047 l 275 0 l 118 0 m -1 0 l -1 35 l 442 35 l 442 0 l -1 0 m 879 -14 q 754 10 801 -14 q 683 74 707 35 q 651 158 660 113 q 640 247 642 203 q 636 324 639 290 q 606 449 632 401 q 538 519 581 497 q 438 542 496 542 l 608 546 l 608 540 q 724 483 681 513 q 790 414 767 453 q 822 321 813 375 q 833 192 831 267 q 841 99 836 135 q 864 48 846 64 q 924 32 882 32 q 960 37 946 32 q 988 54 975 42 l 1010 35 q 963 -1 990 13 q 879 -14 936 -14 m 288 543 l 288 578 l 544 578 q 722 650 660 578 q 783 861 783 722 q 769 950 783 917 q 715 998 756 983 q 596 1013 675 1013 l 208 1013 l 208 1047 l 613 1047 q 881 982 789 1047 q 972 813 972 917 q 853 617 972 692 q 515 543 733 543 l 288 543 m 638 1169 l 496 1364 l 556 1364 l 703 1279 l 886 1364 l 946 1364 l 724 1169 l 638 1169 z "},"Ŗ":{"ha":976,"x_min":-1,"x_max":1010,"o":"m 118 0 l 346 1047 l 508 1047 l 275 0 l 118 0 m -1 0 l -1 35 l 442 35 l 442 0 l -1 0 m 879 -14 q 754 10 801 -14 q 683 74 707 35 q 651 158 660 113 q 640 247 642 203 q 636 324 639 290 q 606 449 632 401 q 538 519 581 497 q 438 542 496 542 l 608 546 l 608 540 q 724 483 681 513 q 790 414 767 453 q 822 321 813 375 q 833 192 831 267 q 841 99 836 135 q 864 48 846 64 q 924 32 882 32 q 960 37 946 32 q 988 54 975 42 l 1010 35 q 963 -1 990 13 q 879 -14 936 -14 m 288 543 l 288 578 l 544 578 q 722 650 660 578 q 783 861 783 722 q 769 950 783 917 q 715 998 756 983 q 596 1013 675 1013 l 208 1013 l 208 1047 l 613 1047 q 881 982 789 1047 q 972 813 972 917 q 853 617 972 692 q 515 543 733 543 l 288 543 m 276 -431 l 258 -399 q 394 -321 357 -357 q 431 -258 431 -285 q 425 -240 431 -246 q 415 -235 419 -235 q 401 -244 408 -235 q 381 -262 393 -253 q 347 -271 369 -271 q 301 -251 318 -271 q 283 -201 283 -232 q 313 -135 283 -158 q 378 -112 342 -112 q 433 -128 410 -112 q 468 -171 456 -144 q 481 -228 481 -197 q 431 -340 481 -286 q 276 -431 382 -393 z "},"Ȑ":{"ha":976,"x_min":-1,"x_max":1010,"o":"m 118 0 l 346 1047 l 508 1047 l 275 0 l 118 0 m -1 0 l -1 35 l 442 35 l 442 0 l -1 0 m 879 -14 q 754 10 801 -14 q 683 74 707 35 q 651 158 660 113 q 640 247 642 203 q 636 324 639 290 q 606 449 632 401 q 538 519 581 497 q 438 542 496 542 l 608 546 l 608 540 q 724 483 681 513 q 790 414 767 453 q 822 321 813 375 q 833 192 831 267 q 841 99 836 135 q 864 48 846 64 q 924 32 882 32 q 960 37 946 32 q 988 54 975 42 l 1010 35 q 963 -1 990 13 q 879 -14 936 -14 m 288 543 l 288 578 l 544 578 q 722 650 660 578 q 783 861 783 722 q 769 950 783 917 q 715 998 756 983 q 596 1013 675 1013 l 208 1013 l 208 1047 l 613 1047 q 881 982 789 1047 q 972 813 972 917 q 853 617 972 692 q 515 543 733 543 l 288 543 m 931 1169 l 700 1231 q 658 1253 672 1238 q 644 1290 644 1268 q 665 1342 644 1319 q 719 1364 686 1364 q 755 1353 738 1364 q 811 1314 772 1343 l 1004 1169 l 931 1169 m 647 1169 l 417 1231 q 375 1253 389 1238 q 361 1290 361 1268 q 382 1342 361 1319 q 436 1364 403 1364 q 472 1353 454 1364 q 528 1314 489 1343 l 721 1169 l 647 1169 z "},"Ṛ":{"ha":976,"x_min":-1,"x_max":1010,"o":"m 118 0 l 346 1047 l 508 1047 l 275 0 l 118 0 m -1 0 l -1 35 l 442 35 l 442 0 l -1 0 m 879 -14 q 754 10 801 -14 q 683 74 707 35 q 651 158 660 113 q 640 247 642 203 q 636 324 639 290 q 606 449 632 401 q 538 519 581 497 q 438 542 496 542 l 608 546 l 608 540 q 724 483 681 513 q 790 414 767 453 q 822 321 813 375 q 833 192 831 267 q 841 99 836 135 q 864 48 846 64 q 924 32 882 32 q 960 37 946 32 q 988 54 975 42 l 1010 35 q 963 -1 990 13 q 879 -14 936 -14 m 288 543 l 288 578 l 544 578 q 722 650 660 578 q 783 861 783 722 q 769 950 783 917 q 715 998 756 983 q 596 1013 675 1013 l 208 1013 l 208 1047 l 613 1047 q 881 982 789 1047 q 972 813 972 917 q 853 617 972 692 q 515 543 733 543 l 288 543 m 372 -282 q 306 -255 333 -282 q 279 -189 279 -228 q 306 -122 279 -149 q 372 -94 333 -94 q 440 -122 413 -94 q 467 -189 467 -149 q 440 -255 467 -228 q 372 -282 413 -282 z "},"Ȓ":{"ha":976,"x_min":-1,"x_max":1010,"o":"m 118 0 l 346 1047 l 508 1047 l 275 0 l 118 0 m -1 0 l -1 35 l 442 35 l 442 0 l -1 0 m 879 -14 q 754 10 801 -14 q 683 74 707 35 q 651 158 660 113 q 640 247 642 203 q 636 324 639 290 q 606 449 632 401 q 538 519 581 497 q 438 542 496 542 l 608 546 l 608 540 q 724 483 681 513 q 790 414 767 453 q 822 321 813 375 q 833 192 831 267 q 841 99 836 135 q 864 48 846 64 q 924 32 882 32 q 960 37 946 32 q 988 54 975 42 l 1010 35 q 963 -1 990 13 q 879 -14 936 -14 m 288 543 l 288 578 l 544 578 q 722 650 660 578 q 783 861 783 722 q 769 950 783 917 q 715 998 756 983 q 596 1013 675 1013 l 208 1013 l 208 1047 l 613 1047 q 881 982 789 1047 q 972 813 972 917 q 853 617 972 692 q 515 543 733 543 l 288 543 m 451 1169 q 533 1305 467 1250 q 701 1360 600 1360 q 842 1317 792 1360 q 892 1213 892 1274 q 886 1169 892 1192 l 839 1169 q 802 1240 839 1222 q 697 1258 765 1258 q 563 1237 614 1258 q 499 1169 513 1215 l 451 1169 z "},"S":{"ha":801,"x_min":24,"x_max":826,"o":"m 372 -18 q 235 8 293 -18 q 138 75 178 33 l 58 0 l 24 0 l 86 296 l 121 296 q 382 17 161 17 q 527 52 468 17 q 617 141 586 88 q 647 246 647 194 q 615 345 647 306 q 533 415 583 385 q 427 472 483 444 q 321 535 371 500 q 239 624 271 571 q 207 754 207 676 q 242 904 207 835 q 347 1017 276 974 q 524 1060 417 1060 q 650 1038 599 1060 q 733 983 701 1017 l 792 1047 l 826 1047 l 771 771 l 736 771 q 710 904 736 847 q 637 993 685 961 q 519 1025 589 1025 q 417 1006 469 1025 q 330 949 365 986 q 294 857 294 911 q 327 768 294 804 q 410 704 360 732 q 519 648 461 676 q 627 581 576 619 q 710 485 678 542 q 743 343 743 428 q 694 155 743 236 q 561 28 644 74 q 372 -18 478 -18 z "},"Ś":{"ha":801,"x_min":24,"x_max":826,"o":"m 372 -18 q 235 8 293 -18 q 138 75 178 33 l 58 0 l 24 0 l 86 296 l 121 296 q 382 17 161 17 q 527 52 468 17 q 617 141 586 88 q 647 246 647 194 q 615 345 647 306 q 533 415 583 385 q 427 472 483 444 q 321 535 371 500 q 239 624 271 571 q 207 754 207 676 q 242 904 207 835 q 347 1017 276 974 q 524 1060 417 1060 q 650 1038 599 1060 q 733 983 701 1017 l 792 1047 l 826 1047 l 771 771 l 736 771 q 710 904 736 847 q 637 993 685 961 q 519 1025 589 1025 q 417 1006 469 1025 q 330 949 365 986 q 294 857 294 911 q 327 768 294 804 q 410 704 360 732 q 519 648 461 676 q 627 581 576 619 q 710 485 678 542 q 743 343 743 428 q 694 155 743 236 q 561 28 644 74 q 372 -18 478 -18 m 390 1169 l 629 1314 q 700 1353 674 1342 q 747 1364 726 1364 q 785 1350 771 1364 q 800 1310 800 1336 q 777 1257 800 1279 q 704 1224 754 1235 l 463 1169 l 390 1169 z "},"Š":{"ha":801,"x_min":24,"x_max":858,"o":"m 372 -18 q 235 8 293 -18 q 138 75 178 33 l 58 0 l 24 0 l 86 296 l 121 296 q 382 17 161 17 q 527 52 468 17 q 617 141 586 88 q 647 246 647 194 q 615 345 647 306 q 533 415 583 385 q 427 472 483 444 q 321 535 371 500 q 239 624 271 571 q 207 754 207 676 q 242 904 207 835 q 347 1017 276 974 q 524 1060 417 1060 q 650 1038 599 1060 q 733 983 701 1017 l 792 1047 l 826 1047 l 771 771 l 736 771 q 710 904 736 847 q 637 993 685 961 q 519 1025 589 1025 q 417 1006 469 1025 q 330 949 365 986 q 294 857 294 911 q 327 768 294 804 q 410 704 360 732 q 519 648 461 676 q 627 581 576 619 q 710 485 678 542 q 743 343 743 428 q 694 155 743 236 q 561 28 644 74 q 372 -18 478 -18 m 550 1169 l 408 1364 l 468 1364 l 615 1279 l 799 1364 l 858 1364 l 636 1169 l 550 1169 z "},"Ş":{"ha":801,"x_min":24,"x_max":826,"o":"m 372 -18 q 235 8 293 -18 q 138 75 178 33 l 58 0 l 24 0 l 86 296 l 121 296 q 382 17 161 17 q 527 52 468 17 q 617 141 586 88 q 647 246 647 194 q 615 345 647 306 q 533 415 583 385 q 427 472 483 444 q 321 535 371 500 q 239 624 271 571 q 207 754 207 676 q 242 904 207 835 q 347 1017 276 974 q 524 1060 417 1060 q 650 1038 599 1060 q 733 983 701 1017 l 792 1047 l 826 1047 l 771 771 l 736 771 q 710 904 736 847 q 637 993 685 961 q 519 1025 589 1025 q 417 1006 469 1025 q 330 949 365 986 q 294 857 294 911 q 327 768 294 804 q 410 704 360 732 q 519 648 461 676 q 627 581 576 619 q 710 485 678 542 q 743 343 743 428 q 694 155 743 236 q 561 28 644 74 q 372 -18 478 -18 m 256 -314 q 190 -306 217 -314 q 153 -290 164 -297 l 176 -256 q 207 -266 185 -261 q 250 -271 229 -271 q 322 -251 290 -271 q 353 -192 353 -232 q 332 -144 353 -161 q 265 -125 311 -126 l 347 14 l 389 14 l 329 -92 l 356 -92 q 440 -116 410 -92 q 469 -181 469 -140 q 435 -256 469 -226 q 351 -299 400 -285 q 256 -314 301 -314 z "},"Ŝ":{"ha":801,"x_min":24,"x_max":835,"o":"m 372 -18 q 235 8 293 -18 q 138 75 178 33 l 58 0 l 24 0 l 86 296 l 121 296 q 382 17 161 17 q 527 52 468 17 q 617 141 586 88 q 647 246 647 194 q 615 345 647 306 q 533 415 583 385 q 427 472 483 444 q 321 535 371 500 q 239 624 271 571 q 207 754 207 676 q 242 904 207 835 q 347 1017 276 974 q 524 1060 417 1060 q 650 1038 599 1060 q 733 983 701 1017 l 792 1047 l 826 1047 l 771 771 l 736 771 q 710 904 736 847 q 637 993 685 961 q 519 1025 589 1025 q 417 1006 469 1025 q 330 949 365 986 q 294 857 294 911 q 327 768 294 804 q 410 704 360 732 q 519 648 461 676 q 627 581 576 619 q 710 485 678 542 q 743 343 743 428 q 694 155 743 236 q 561 28 644 74 q 372 -18 478 -18 m 386 1169 l 607 1364 l 693 1364 l 835 1169 l 775 1169 l 628 1254 l 444 1169 l 386 1169 z "},"Ș":{"ha":801,"x_min":24,"x_max":826,"o":"m 372 -18 q 235 8 293 -18 q 138 75 178 33 l 58 0 l 24 0 l 86 296 l 121 296 q 382 17 161 17 q 527 52 468 17 q 617 141 586 88 q 647 246 647 194 q 615 345 647 306 q 533 415 583 385 q 427 472 483 444 q 321 535 371 500 q 239 624 271 571 q 207 754 207 676 q 242 904 207 835 q 347 1017 276 974 q 524 1060 417 1060 q 650 1038 599 1060 q 733 983 701 1017 l 792 1047 l 826 1047 l 771 771 l 736 771 q 710 904 736 847 q 637 993 685 961 q 519 1025 589 1025 q 417 1006 469 1025 q 330 949 365 986 q 294 857 294 911 q 327 768 294 804 q 410 704 360 732 q 519 648 461 676 q 627 581 576 619 q 710 485 678 542 q 743 343 743 428 q 694 155 743 236 q 561 28 644 74 q 372 -18 478 -18 m 217 -431 l 199 -399 q 334 -321 297 -357 q 371 -258 371 -285 q 365 -240 371 -246 q 356 -235 360 -235 q 341 -244 349 -235 q 322 -262 333 -253 q 288 -271 310 -271 q 241 -251 258 -271 q 224 -201 224 -232 q 253 -135 224 -158 q 318 -112 282 -112 q 373 -128 350 -112 q 408 -171 396 -144 q 421 -228 421 -197 q 372 -340 421 -286 q 217 -431 322 -393 z "},"Ṣ":{"ha":801,"x_min":24,"x_max":826,"o":"m 372 -18 q 235 8 293 -18 q 138 75 178 33 l 58 0 l 24 0 l 86 296 l 121 296 q 382 17 161 17 q 527 52 468 17 q 617 141 586 88 q 647 246 647 194 q 615 345 647 306 q 533 415 583 385 q 427 472 483 444 q 321 535 371 500 q 239 624 271 571 q 207 754 207 676 q 242 904 207 835 q 347 1017 276 974 q 524 1060 417 1060 q 650 1038 599 1060 q 733 983 701 1017 l 792 1047 l 826 1047 l 771 771 l 736 771 q 710 904 736 847 q 637 993 685 961 q 519 1025 589 1025 q 417 1006 469 1025 q 330 949 365 986 q 294 857 294 911 q 327 768 294 804 q 410 704 360 732 q 519 648 461 676 q 627 581 576 619 q 710 485 678 542 q 743 343 743 428 q 694 155 743 236 q 561 28 644 74 q 372 -18 478 -18 m 313 -282 q 247 -255 274 -282 q 219 -189 219 -228 q 247 -122 219 -149 q 313 -94 274 -94 q 380 -122 353 -94 q 407 -189 407 -149 q 380 -255 407 -228 q 313 -282 353 -282 z "},"T":{"ha":946,"x_min":122,"x_max":1061,"o":"m 333 0 l 561 1047 l 724 1047 l 490 0 l 333 0 m 186 0 l 186 35 l 657 35 l 657 0 l 186 0 m 122 713 l 222 1047 l 1061 1047 l 1015 713 l 974 713 q 959 897 974 832 q 904 987 944 961 q 785 1013 864 1013 l 478 1013 q 311 940 397 1013 q 164 713 225 867 l 122 713 z "},"Ŧ":{"ha":946,"x_min":122,"x_max":1061,"o":"m 333 0 l 561 1047 l 724 1047 l 490 0 l 333 0 m 186 0 l 186 35 l 657 35 l 657 0 l 186 0 m 122 713 l 222 1047 l 1061 1047 l 1015 713 l 974 713 q 959 897 974 832 q 904 987 944 961 q 785 1013 864 1013 l 478 1013 q 311 940 397 1013 q 164 713 225 867 l 122 713 m 268 499 l 268 547 l 775 547 l 775 499 l 268 499 z "},"Ť":{"ha":946,"x_min":122,"x_max":1061,"o":"m 333 0 l 561 1047 l 724 1047 l 490 0 l 333 0 m 186 0 l 186 35 l 657 35 l 657 0 l 186 0 m 122 713 l 222 1047 l 1061 1047 l 1015 713 l 974 713 q 959 897 974 832 q 904 987 944 961 q 785 1013 864 1013 l 478 1013 q 311 940 397 1013 q 164 713 225 867 l 122 713 m 622 1169 l 481 1364 l 540 1364 l 688 1279 l 871 1364 l 931 1364 l 708 1169 l 622 1169 z "},"Ţ":{"ha":946,"x_min":122,"x_max":1061,"o":"m 333 0 l 561 1047 l 724 1047 l 490 0 l 333 0 m 186 0 l 186 35 l 657 35 l 657 0 l 186 0 m 122 713 l 222 1047 l 1061 1047 l 1015 713 l 974 713 q 959 897 974 832 q 904 987 944 961 q 785 1013 864 1013 l 478 1013 q 311 940 397 1013 q 164 713 225 867 l 122 713 m 308 -314 q 243 -306 269 -314 q 206 -290 217 -297 l 229 -256 q 260 -266 238 -261 q 303 -271 282 -271 q 374 -251 343 -271 q 406 -192 406 -232 q 385 -144 406 -161 q 318 -125 364 -126 l 400 14 l 442 14 l 382 -92 l 408 -92 q 492 -116 463 -92 q 522 -181 522 -140 q 488 -256 522 -226 q 403 -299 453 -285 q 308 -314 354 -314 z "},"Ț":{"ha":946,"x_min":122,"x_max":1061,"o":"m 333 0 l 561 1047 l 724 1047 l 490 0 l 333 0 m 186 0 l 186 35 l 657 35 l 657 0 l 186 0 m 122 713 l 222 1047 l 1061 1047 l 1015 713 l 974 713 q 959 897 974 832 q 904 987 944 961 q 785 1013 864 1013 l 478 1013 q 311 940 397 1013 q 164 713 225 867 l 122 713 m 269 -431 l 251 -399 q 387 -321 350 -357 q 424 -258 424 -285 q 418 -240 424 -246 q 408 -235 413 -235 q 394 -244 401 -235 q 374 -262 386 -253 q 340 -271 363 -271 q 294 -251 311 -271 q 276 -201 276 -232 q 306 -135 276 -158 q 371 -112 335 -112 q 426 -128 403 -112 q 461 -171 449 -144 q 474 -228 474 -197 q 424 -340 474 -286 q 269 -431 375 -393 z "},"Ṭ":{"ha":946,"x_min":122,"x_max":1061,"o":"m 333 0 l 561 1047 l 724 1047 l 490 0 l 333 0 m 186 0 l 186 35 l 657 35 l 657 0 l 186 0 m 122 713 l 222 1047 l 1061 1047 l 1015 713 l 974 713 q 959 897 974 832 q 904 987 944 961 q 785 1013 864 1013 l 478 1013 q 311 940 397 1013 q 164 713 225 867 l 122 713 m 365 -282 q 299 -255 326 -282 q 272 -189 272 -228 q 299 -122 272 -149 q 365 -94 326 -94 q 433 -122 406 -94 q 460 -189 460 -149 q 433 -255 460 -228 q 365 -282 406 -282 z "},"U":{"ha":1017,"x_min":174,"x_max":1169,"o":"m 496 -18 q 261 48 347 -18 q 175 244 175 114 q 179 303 175 272 q 190 369 183 335 l 339 1047 l 501 1047 l 347 369 q 333 294 338 329 q 329 232 329 258 q 385 77 329 131 q 538 24 440 24 q 726 92 649 24 q 831 285 804 161 l 993 1047 l 1035 1047 l 879 321 q 817 148 858 225 q 700 26 776 71 q 496 -18 624 -18 m 174 1013 l 174 1047 l 622 1047 l 622 1013 l 174 1013 m 833 1013 l 833 1047 l 1169 1047 l 1169 1013 l 833 1013 z "},"Ú":{"ha":1017,"x_min":174,"x_max":1169,"o":"m 496 -18 q 261 48 347 -18 q 175 244 175 114 q 179 303 175 272 q 190 369 183 335 l 339 1047 l 501 1047 l 347 369 q 333 294 338 329 q 329 232 329 258 q 385 77 329 131 q 538 24 440 24 q 726 92 649 24 q 831 285 804 161 l 993 1047 l 1035 1047 l 879 321 q 817 148 858 225 q 700 26 776 71 q 496 -18 624 -18 m 174 1013 l 174 1047 l 622 1047 l 622 1013 l 174 1013 m 833 1013 l 833 1047 l 1169 1047 l 1169 1013 l 833 1013 m 553 1169 l 792 1314 q 863 1353 836 1342 q 910 1364 889 1364 q 948 1350 933 1364 q 963 1310 963 1336 q 940 1257 963 1279 q 867 1224 917 1235 l 625 1169 l 553 1169 z "},"Ŭ":{"ha":1017,"x_min":174,"x_max":1169,"o":"m 496 -18 q 261 48 347 -18 q 175 244 175 114 q 179 303 175 272 q 190 369 183 335 l 339 1047 l 501 1047 l 347 369 q 333 294 338 329 q 329 232 329 258 q 385 77 329 131 q 538 24 440 24 q 726 92 649 24 q 831 285 804 161 l 993 1047 l 1035 1047 l 879 321 q 817 148 858 225 q 700 26 776 71 q 496 -18 624 -18 m 174 1013 l 174 1047 l 622 1047 l 622 1013 l 174 1013 m 833 1013 l 833 1047 l 1169 1047 l 1169 1013 l 833 1013 m 756 1169 q 606 1222 656 1169 q 576 1360 556 1275 l 624 1360 q 640 1306 624 1325 q 689 1278 657 1286 q 765 1271 721 1271 q 862 1281 821 1271 q 929 1310 903 1290 q 964 1360 956 1329 l 1011 1360 q 928 1224 994 1279 q 756 1169 863 1169 z "},"Û":{"ha":1017,"x_min":174,"x_max":1169,"o":"m 496 -18 q 261 48 347 -18 q 175 244 175 114 q 179 303 175 272 q 190 369 183 335 l 339 1047 l 501 1047 l 347 369 q 333 294 338 329 q 329 232 329 258 q 385 77 329 131 q 538 24 440 24 q 726 92 649 24 q 831 285 804 161 l 993 1047 l 1035 1047 l 879 321 q 817 148 858 225 q 700 26 776 71 q 496 -18 624 -18 m 174 1013 l 174 1047 l 622 1047 l 622 1013 l 174 1013 m 833 1013 l 833 1047 l 1169 1047 l 1169 1013 l 833 1013 m 549 1169 l 769 1364 l 856 1364 l 997 1169 l 938 1169 l 790 1254 l 607 1169 l 549 1169 z "},"Ȕ":{"ha":1017,"x_min":174,"x_max":1169,"o":"m 496 -18 q 261 48 347 -18 q 175 244 175 114 q 179 303 175 272 q 190 369 183 335 l 339 1047 l 501 1047 l 347 369 q 333 294 338 329 q 329 232 329 258 q 385 77 329 131 q 538 24 440 24 q 726 92 649 24 q 831 285 804 161 l 993 1047 l 1035 1047 l 879 321 q 817 148 858 225 q 700 26 776 71 q 496 -18 624 -18 m 174 1013 l 174 1047 l 622 1047 l 622 1013 l 174 1013 m 833 1013 l 833 1047 l 1169 1047 l 1169 1013 l 833 1013 m 1006 1169 l 775 1231 q 733 1253 747 1238 q 719 1290 719 1268 q 740 1342 719 1319 q 794 1364 761 1364 q 830 1353 813 1364 q 886 1314 847 1343 l 1079 1169 l 1006 1169 m 722 1169 l 492 1231 q 450 1253 464 1238 q 436 1290 436 1268 q 457 1342 436 1319 q 511 1364 478 1364 q 547 1353 529 1364 q 603 1314 564 1343 l 796 1169 l 722 1169 z "},"Ü":{"ha":1017,"x_min":174,"x_max":1169,"o":"m 496 -18 q 261 48 347 -18 q 175 244 175 114 q 179 303 175 272 q 190 369 183 335 l 339 1047 l 501 1047 l 347 369 q 333 294 338 329 q 329 232 329 258 q 385 77 329 131 q 538 24 440 24 q 726 92 649 24 q 831 285 804 161 l 993 1047 l 1035 1047 l 879 321 q 817 148 858 225 q 700 26 776 71 q 496 -18 624 -18 m 174 1013 l 174 1047 l 622 1047 l 622 1013 l 174 1013 m 833 1013 l 833 1047 l 1169 1047 l 1169 1013 l 833 1013 m 921 1164 q 859 1189 885 1164 q 833 1250 833 1214 q 859 1311 833 1286 q 921 1336 885 1336 q 983 1311 957 1336 q 1008 1250 1008 1286 q 983 1189 1008 1214 q 921 1164 957 1164 m 621 1164 q 558 1189 583 1164 q 533 1250 533 1214 q 558 1311 533 1286 q 621 1336 583 1336 q 683 1311 657 1336 q 708 1250 708 1286 q 683 1189 708 1214 q 621 1164 657 1164 z "},"Ụ":{"ha":1017,"x_min":174,"x_max":1169,"o":"m 496 -18 q 261 48 347 -18 q 175 244 175 114 q 179 303 175 272 q 190 369 183 335 l 339 1047 l 501 1047 l 347 369 q 333 294 338 329 q 329 232 329 258 q 385 77 329 131 q 538 24 440 24 q 726 92 649 24 q 831 285 804 161 l 993 1047 l 1035 1047 l 879 321 q 817 148 858 225 q 700 26 776 71 q 496 -18 624 -18 m 174 1013 l 174 1047 l 622 1047 l 622 1013 l 174 1013 m 833 1013 l 833 1047 l 1169 1047 l 1169 1013 l 833 1013 m 406 -282 q 340 -255 367 -282 q 313 -189 313 -228 q 340 -122 313 -149 q 406 -94 367 -94 q 473 -122 446 -94 q 500 -189 500 -149 q 473 -255 500 -228 q 406 -282 446 -282 z "},"Ù":{"ha":1017,"x_min":174,"x_max":1169,"o":"m 496 -18 q 261 48 347 -18 q 175 244 175 114 q 179 303 175 272 q 190 369 183 335 l 339 1047 l 501 1047 l 347 369 q 333 294 338 329 q 329 232 329 258 q 385 77 329 131 q 538 24 440 24 q 726 92 649 24 q 831 285 804 161 l 993 1047 l 1035 1047 l 879 321 q 817 148 858 225 q 700 26 776 71 q 496 -18 624 -18 m 174 1013 l 174 1047 l 622 1047 l 622 1013 l 174 1013 m 833 1013 l 833 1047 l 1169 1047 l 1169 1013 l 833 1013 m 864 1169 l 633 1231 q 592 1253 606 1238 q 578 1290 578 1268 q 599 1342 578 1319 q 653 1364 619 1364 q 688 1353 671 1364 q 744 1314 706 1343 l 938 1169 l 864 1169 z "},"Ủ":{"ha":1017,"x_min":174,"x_max":1169,"o":"m 496 -18 q 261 48 347 -18 q 175 244 175 114 q 179 303 175 272 q 190 369 183 335 l 339 1047 l 501 1047 l 347 369 q 333 294 338 329 q 329 232 329 258 q 385 77 329 131 q 538 24 440 24 q 726 92 649 24 q 831 285 804 161 l 993 1047 l 1035 1047 l 879 321 q 817 148 858 225 q 700 26 776 71 q 496 -18 624 -18 m 174 1013 l 174 1047 l 622 1047 l 622 1013 l 174 1013 m 833 1013 l 833 1047 l 1169 1047 l 1169 1013 l 833 1013 m 761 1142 q 776 1174 765 1161 q 799 1199 786 1188 q 821 1222 811 1211 q 833 1244 831 1232 q 826 1296 840 1285 q 790 1307 813 1307 q 753 1297 769 1307 q 733 1272 736 1288 q 735 1260 732 1264 q 742 1251 739 1257 q 743 1233 746 1246 q 728 1211 742 1219 q 693 1203 715 1203 q 657 1217 669 1203 q 649 1251 644 1231 q 681 1317 657 1293 q 736 1352 704 1342 q 799 1363 768 1363 q 894 1335 861 1363 q 915 1247 926 1307 q 897 1213 911 1226 q 863 1188 882 1199 q 825 1166 843 1176 q 799 1142 807 1156 l 761 1142 z "},"Ư":{"ha":1017,"x_min":174,"x_max":1235,"o":"m 496 -18 q 261 48 347 -18 q 175 244 175 114 q 179 303 175 272 q 190 369 183 335 l 339 1047 l 501 1047 l 347 369 q 333 294 338 329 q 329 232 329 258 q 385 77 329 131 q 538 24 440 24 q 726 92 649 24 q 831 285 804 161 l 993 1047 l 1035 1047 l 879 321 q 817 148 858 225 q 700 26 776 71 q 496 -18 624 -18 m 174 1013 l 174 1047 l 622 1047 l 622 1013 l 174 1013 m 833 1013 l 833 1047 l 1169 1047 l 1169 1013 l 833 1013 m 1003 1010 l 1007 1047 q 1106 1074 1081 1047 q 1146 1157 1132 1100 l 1235 1157 q 1199 1067 1224 1100 q 1128 1022 1175 1035 q 1003 1010 1082 1010 z "},"Ứ":{"ha":1017,"x_min":174,"x_max":1235,"o":"m 496 -18 q 261 48 347 -18 q 175 244 175 114 q 179 303 175 272 q 190 369 183 335 l 339 1047 l 501 1047 l 347 369 q 333 294 338 329 q 329 232 329 258 q 385 77 329 131 q 538 24 440 24 q 726 92 649 24 q 831 285 804 161 l 993 1047 l 1035 1047 l 879 321 q 817 148 858 225 q 700 26 776 71 q 496 -18 624 -18 m 174 1013 l 174 1047 l 622 1047 l 622 1013 l 174 1013 m 833 1013 l 833 1047 l 1169 1047 l 1169 1013 l 833 1013 m 1003 1010 l 1007 1047 q 1106 1074 1081 1047 q 1146 1157 1132 1100 l 1235 1157 q 1199 1067 1224 1100 q 1128 1022 1175 1035 q 1003 1010 1082 1010 m 497 1169 l 736 1314 q 807 1353 781 1342 q 854 1364 833 1364 q 892 1350 878 1364 q 907 1310 907 1336 q 884 1257 907 1279 q 811 1224 861 1235 l 569 1169 l 497 1169 z "},"Ự":{"ha":1017,"x_min":174,"x_max":1235,"o":"m 496 -18 q 261 48 347 -18 q 175 244 175 114 q 179 303 175 272 q 190 369 183 335 l 339 1047 l 501 1047 l 347 369 q 333 294 338 329 q 329 232 329 258 q 385 77 329 131 q 538 24 440 24 q 726 92 649 24 q 831 285 804 161 l 993 1047 l 1035 1047 l 879 321 q 817 148 858 225 q 700 26 776 71 q 496 -18 624 -18 m 174 1013 l 174 1047 l 622 1047 l 622 1013 l 174 1013 m 833 1013 l 833 1047 l 1169 1047 l 1169 1013 l 833 1013 m 1003 1010 l 1007 1047 q 1106 1074 1081 1047 q 1146 1157 1132 1100 l 1235 1157 q 1199 1067 1224 1100 q 1128 1022 1175 1035 q 1003 1010 1082 1010 m 392 -282 q 326 -255 353 -282 q 299 -189 299 -228 q 326 -122 299 -149 q 392 -94 353 -94 q 459 -122 432 -94 q 486 -189 486 -149 q 459 -255 486 -228 q 392 -282 432 -282 z "},"Ừ":{"ha":1017,"x_min":174,"x_max":1235,"o":"m 496 -18 q 261 48 347 -18 q 175 244 175 114 q 179 303 175 272 q 190 369 183 335 l 339 1047 l 501 1047 l 347 369 q 333 294 338 329 q 329 232 329 258 q 385 77 329 131 q 538 24 440 24 q 726 92 649 24 q 831 285 804 161 l 993 1047 l 1035 1047 l 879 321 q 817 148 858 225 q 700 26 776 71 q 496 -18 624 -18 m 174 1013 l 174 1047 l 622 1047 l 622 1013 l 174 1013 m 833 1013 l 833 1047 l 1169 1047 l 1169 1013 l 833 1013 m 1003 1010 l 1007 1047 q 1106 1074 1081 1047 q 1146 1157 1132 1100 l 1235 1157 q 1199 1067 1224 1100 q 1128 1022 1175 1035 q 1003 1010 1082 1010 m 808 1169 l 578 1231 q 536 1253 550 1238 q 522 1290 522 1268 q 543 1342 522 1319 q 597 1364 564 1364 q 633 1353 615 1364 q 689 1314 650 1343 l 882 1169 l 808 1169 z "},"Ử":{"ha":1017,"x_min":174,"x_max":1235,"o":"m 496 -18 q 261 48 347 -18 q 175 244 175 114 q 179 303 175 272 q 190 369 183 335 l 339 1047 l 501 1047 l 347 369 q 333 294 338 329 q 329 232 329 258 q 385 77 329 131 q 538 24 440 24 q 726 92 649 24 q 831 285 804 161 l 993 1047 l 1035 1047 l 879 321 q 817 148 858 225 q 700 26 776 71 q 496 -18 624 -18 m 174 1013 l 174 1047 l 622 1047 l 622 1013 l 174 1013 m 833 1013 l 833 1047 l 1169 1047 l 1169 1013 l 833 1013 m 1003 1010 l 1007 1047 q 1106 1074 1081 1047 q 1146 1157 1132 1100 l 1235 1157 q 1199 1067 1224 1100 q 1128 1022 1175 1035 q 1003 1010 1082 1010 m 706 1142 q 720 1174 710 1161 q 743 1199 731 1188 q 765 1222 756 1211 q 778 1244 775 1232 q 771 1296 785 1285 q 735 1307 757 1307 q 697 1297 714 1307 q 678 1272 681 1288 q 680 1260 676 1264 q 687 1251 683 1257 q 688 1233 690 1246 q 673 1211 686 1219 q 638 1203 660 1203 q 601 1217 614 1203 q 593 1251 589 1231 q 625 1317 601 1293 q 681 1352 649 1342 q 743 1363 713 1363 q 838 1335 806 1363 q 860 1247 871 1307 q 841 1213 856 1226 q 807 1188 826 1199 q 769 1166 788 1176 q 743 1142 751 1156 l 706 1142 z "},"Ữ":{"ha":1017,"x_min":174,"x_max":1235,"o":"m 496 -18 q 261 48 347 -18 q 175 244 175 114 q 179 303 175 272 q 190 369 183 335 l 339 1047 l 501 1047 l 347 369 q 333 294 338 329 q 329 232 329 258 q 385 77 329 131 q 538 24 440 24 q 726 92 649 24 q 831 285 804 161 l 993 1047 l 1035 1047 l 879 321 q 817 148 858 225 q 700 26 776 71 q 496 -18 624 -18 m 174 1013 l 174 1047 l 622 1047 l 622 1013 l 174 1013 m 833 1013 l 833 1047 l 1169 1047 l 1169 1013 l 833 1013 m 1003 1010 l 1007 1047 q 1106 1074 1081 1047 q 1146 1157 1132 1100 l 1235 1157 q 1199 1067 1224 1100 q 1128 1022 1175 1035 q 1003 1010 1082 1010 m 469 1168 q 510 1258 483 1218 q 574 1319 538 1297 q 653 1342 611 1342 q 720 1325 693 1342 q 773 1292 747 1308 q 831 1275 799 1275 q 894 1299 868 1275 q 933 1346 919 1322 l 981 1346 q 904 1213 954 1256 q 796 1169 854 1169 q 725 1186 753 1169 q 673 1219 697 1203 q 615 1236 649 1236 q 554 1217 581 1236 q 514 1168 528 1197 l 469 1168 z "},"Ű":{"ha":1017,"x_min":174,"x_max":1169,"o":"m 496 -18 q 261 48 347 -18 q 175 244 175 114 q 179 303 175 272 q 190 369 183 335 l 339 1047 l 501 1047 l 347 369 q 333 294 338 329 q 329 232 329 258 q 385 77 329 131 q 538 24 440 24 q 726 92 649 24 q 831 285 804 161 l 993 1047 l 1035 1047 l 879 321 q 817 148 858 225 q 700 26 776 71 q 496 -18 624 -18 m 174 1013 l 174 1047 l 622 1047 l 622 1013 l 174 1013 m 833 1013 l 833 1047 l 1169 1047 l 1169 1013 l 833 1013 m 694 1169 l 946 1336 q 1006 1369 981 1360 q 1051 1378 1031 1378 q 1090 1365 1075 1378 q 1104 1324 1104 1351 q 1081 1272 1104 1293 q 1008 1238 1057 1251 l 767 1169 l 694 1169 m 408 1169 l 660 1336 q 719 1369 694 1360 q 765 1378 744 1378 q 803 1365 789 1378 q 818 1324 818 1351 q 794 1272 818 1293 q 722 1238 771 1251 l 481 1169 l 408 1169 z "},"Ȗ":{"ha":1017,"x_min":174,"x_max":1169,"o":"m 496 -18 q 261 48 347 -18 q 175 244 175 114 q 179 303 175 272 q 190 369 183 335 l 339 1047 l 501 1047 l 347 369 q 333 294 338 329 q 329 232 329 258 q 385 77 329 131 q 538 24 440 24 q 726 92 649 24 q 831 285 804 161 l 993 1047 l 1035 1047 l 879 321 q 817 148 858 225 q 700 26 776 71 q 496 -18 624 -18 m 174 1013 l 174 1047 l 622 1047 l 622 1013 l 174 1013 m 833 1013 l 833 1047 l 1169 1047 l 1169 1013 l 833 1013 m 526 1169 q 608 1305 542 1250 q 776 1360 675 1360 q 917 1317 867 1360 q 967 1213 967 1274 q 961 1169 967 1192 l 914 1169 q 877 1240 914 1222 q 772 1258 840 1258 q 638 1237 689 1258 q 574 1169 588 1215 l 526 1169 z "},"Ū":{"ha":1017,"x_min":174,"x_max":1169,"o":"m 496 -18 q 261 48 347 -18 q 175 244 175 114 q 179 303 175 272 q 190 369 183 335 l 339 1047 l 501 1047 l 347 369 q 333 294 338 329 q 329 232 329 258 q 385 77 329 131 q 538 24 440 24 q 726 92 649 24 q 831 285 804 161 l 993 1047 l 1035 1047 l 879 321 q 817 148 858 225 q 700 26 776 71 q 496 -18 624 -18 m 174 1013 l 174 1047 l 622 1047 l 622 1013 l 174 1013 m 833 1013 l 833 1047 l 1169 1047 l 1169 1013 l 833 1013 m 544 1189 l 565 1281 l 1010 1281 l 989 1189 l 544 1189 z "},"Ų":{"ha":1017,"x_min":174,"x_max":1169,"o":"m 496 -18 q 261 48 347 -18 q 175 244 175 114 q 179 303 175 272 q 190 369 183 335 l 339 1047 l 501 1047 l 347 369 q 333 294 338 329 q 329 232 329 258 q 385 77 329 131 q 538 24 440 24 q 726 92 649 24 q 831 285 804 161 l 993 1047 l 1035 1047 l 879 321 q 817 148 858 225 q 700 26 776 71 q 496 -18 624 -18 m 174 1013 l 174 1047 l 622 1047 l 622 1013 l 174 1013 m 833 1013 l 833 1047 l 1169 1047 l 1169 1013 l 833 1013 m 365 -344 q 288 -322 318 -344 q 258 -261 258 -299 q 329 -131 258 -203 q 518 3 400 -58 l 568 -6 q 424 -122 475 -62 q 374 -232 374 -181 q 388 -273 374 -258 q 426 -287 401 -287 q 462 -281 443 -287 q 506 -258 481 -274 l 522 -281 q 451 -326 494 -308 q 365 -344 408 -344 z "},"Ů":{"ha":1017,"x_min":174,"x_max":1169,"o":"m 496 -18 q 261 48 347 -18 q 175 244 175 114 q 179 303 175 272 q 190 369 183 335 l 339 1047 l 501 1047 l 347 369 q 333 294 338 329 q 329 232 329 258 q 385 77 329 131 q 538 24 440 24 q 726 92 649 24 q 831 285 804 161 l 993 1047 l 1035 1047 l 879 321 q 817 148 858 225 q 700 26 776 71 q 496 -18 624 -18 m 174 1013 l 174 1047 l 622 1047 l 622 1013 l 174 1013 m 833 1013 l 833 1047 l 1169 1047 l 1169 1013 l 833 1013 m 768 1142 q 696 1172 726 1142 q 665 1246 665 1203 q 696 1317 665 1288 q 768 1346 726 1346 q 840 1317 810 1346 q 869 1246 869 1289 q 840 1172 869 1203 q 768 1142 811 1142 m 768 1188 q 808 1203 792 1188 q 824 1242 824 1218 q 807 1283 824 1267 q 768 1300 790 1300 q 728 1283 746 1300 q 711 1242 711 1267 q 728 1203 711 1218 q 768 1188 746 1188 z "},"Ũ":{"ha":1017,"x_min":174,"x_max":1169,"o":"m 496 -18 q 261 48 347 -18 q 175 244 175 114 q 179 303 175 272 q 190 369 183 335 l 339 1047 l 501 1047 l 347 369 q 333 294 338 329 q 329 232 329 258 q 385 77 329 131 q 538 24 440 24 q 726 92 649 24 q 831 285 804 161 l 993 1047 l 1035 1047 l 879 321 q 817 148 858 225 q 700 26 776 71 q 496 -18 624 -18 m 174 1013 l 174 1047 l 622 1047 l 622 1013 l 174 1013 m 833 1013 l 833 1047 l 1169 1047 l 1169 1013 l 833 1013 m 525 1168 q 566 1258 539 1218 q 630 1319 593 1297 q 708 1342 667 1342 q 776 1325 749 1342 q 828 1292 803 1308 q 886 1275 854 1275 q 949 1299 924 1275 q 989 1346 975 1322 l 1036 1346 q 960 1213 1010 1256 q 851 1169 910 1169 q 781 1186 808 1169 q 728 1219 753 1203 q 671 1236 704 1236 q 610 1217 636 1236 q 569 1168 583 1197 l 525 1168 z "},"V":{"ha":783,"x_min":154,"x_max":1028,"o":"m 213 -14 l 368 282 l 872 1019 l 926 1019 l 219 -14 l 213 -14 m 188 -14 l 264 1033 l 435 1033 l 367 288 l 372 288 l 217 -14 l 188 -14 m 154 1013 l 154 1047 l 528 1047 l 528 1013 l 154 1013 m 731 1013 l 731 1047 l 1028 1047 l 1028 1013 l 731 1013 z "},"W":{"ha":1208,"x_min":146,"x_max":1461,"o":"m 588 -14 l 747 272 l 1314 1019 l 1360 1019 l 594 -14 l 588 -14 m 203 -14 l 367 275 l 649 636 l 694 636 l 208 -14 l 203 -14 m 179 -14 l 256 1033 l 426 1033 l 365 281 l 371 281 l 208 -14 l 179 -14 m 565 -14 l 642 1033 l 813 1033 l 746 278 l 751 278 l 594 -14 l 565 -14 m 146 1013 l 146 1047 l 1106 1047 l 1106 1013 l 146 1013 m 738 649 l 690 664 l 972 1025 l 1018 1025 l 738 649 m 1164 1013 l 1164 1047 l 1461 1047 l 1461 1013 l 1164 1013 z "},"Ẃ":{"ha":1208,"x_min":146,"x_max":1461,"o":"m 588 -14 l 747 272 l 1314 1019 l 1360 1019 l 594 -14 l 588 -14 m 203 -14 l 367 275 l 649 636 l 694 636 l 208 -14 l 203 -14 m 179 -14 l 256 1033 l 426 1033 l 365 281 l 371 281 l 208 -14 l 179 -14 m 565 -14 l 642 1033 l 813 1033 l 746 278 l 751 278 l 594 -14 l 565 -14 m 146 1013 l 146 1047 l 1106 1047 l 1106 1013 l 146 1013 m 738 649 l 690 664 l 972 1025 l 1018 1025 l 738 649 m 1164 1013 l 1164 1047 l 1461 1047 l 1461 1013 l 1164 1013 m 593 1169 l 832 1314 q 903 1353 876 1342 q 950 1364 929 1364 q 988 1350 974 1364 q 1003 1310 1003 1336 q 980 1257 1003 1279 q 907 1224 957 1235 l 665 1169 l 593 1169 z "},"Ŵ":{"ha":1208,"x_min":146,"x_max":1461,"o":"m 588 -14 l 747 272 l 1314 1019 l 1360 1019 l 594 -14 l 588 -14 m 203 -14 l 367 275 l 649 636 l 694 636 l 208 -14 l 203 -14 m 179 -14 l 256 1033 l 426 1033 l 365 281 l 371 281 l 208 -14 l 179 -14 m 565 -14 l 642 1033 l 813 1033 l 746 278 l 751 278 l 594 -14 l 565 -14 m 146 1013 l 146 1047 l 1106 1047 l 1106 1013 l 146 1013 m 738 649 l 690 664 l 972 1025 l 1018 1025 l 738 649 m 1164 1013 l 1164 1047 l 1461 1047 l 1461 1013 l 1164 1013 m 589 1169 l 810 1364 l 896 1364 l 1038 1169 l 978 1169 l 831 1254 l 647 1169 l 589 1169 z "},"Ẅ":{"ha":1208,"x_min":146,"x_max":1461,"o":"m 588 -14 l 747 272 l 1314 1019 l 1360 1019 l 594 -14 l 588 -14 m 203 -14 l 367 275 l 649 636 l 694 636 l 208 -14 l 203 -14 m 179 -14 l 256 1033 l 426 1033 l 365 281 l 371 281 l 208 -14 l 179 -14 m 565 -14 l 642 1033 l 813 1033 l 746 278 l 751 278 l 594 -14 l 565 -14 m 146 1013 l 146 1047 l 1106 1047 l 1106 1013 l 146 1013 m 738 649 l 690 664 l 972 1025 l 1018 1025 l 738 649 m 1164 1013 l 1164 1047 l 1461 1047 l 1461 1013 l 1164 1013 m 961 1164 q 899 1189 925 1164 q 874 1250 874 1214 q 899 1311 874 1286 q 961 1336 925 1336 q 1023 1311 997 1336 q 1049 1250 1049 1286 q 1023 1189 1049 1214 q 961 1164 997 1164 m 661 1164 q 599 1189 624 1164 q 574 1250 574 1214 q 599 1311 574 1286 q 661 1336 624 1336 q 723 1311 697 1336 q 749 1250 749 1286 q 723 1189 749 1214 q 661 1164 697 1164 z "},"Ẁ":{"ha":1208,"x_min":146,"x_max":1461,"o":"m 588 -14 l 747 272 l 1314 1019 l 1360 1019 l 594 -14 l 588 -14 m 203 -14 l 367 275 l 649 636 l 694 636 l 208 -14 l 203 -14 m 179 -14 l 256 1033 l 426 1033 l 365 281 l 371 281 l 208 -14 l 179 -14 m 565 -14 l 642 1033 l 813 1033 l 746 278 l 751 278 l 594 -14 l 565 -14 m 146 1013 l 146 1047 l 1106 1047 l 1106 1013 l 146 1013 m 738 649 l 690 664 l 972 1025 l 1018 1025 l 738 649 m 1164 1013 l 1164 1047 l 1461 1047 l 1461 1013 l 1164 1013 m 904 1169 l 674 1231 q 632 1253 646 1238 q 618 1290 618 1268 q 639 1342 618 1319 q 693 1364 660 1364 q 728 1353 711 1364 q 785 1314 746 1343 l 978 1169 l 904 1169 z "},"X":{"ha":838,"x_min":-76,"x_max":1017,"o":"m 604 0 l 207 1047 l 381 1047 l 772 0 l 604 0 m -76 0 l -76 35 l 281 35 l 281 0 l -76 0 m 53 28 l 454 540 l 503 540 l 435 449 l 429 449 l 101 28 l 53 28 m 446 0 l 446 35 l 903 35 l 903 0 l 446 0 m 86 1013 l 86 1047 l 529 1047 l 529 1013 l 86 1013 m 464 549 l 532 642 l 538 642 l 842 1019 l 890 1019 l 513 549 l 464 549 m 676 1013 l 676 1047 l 1017 1047 l 1017 1013 l 676 1013 z "},"Y":{"ha":810,"x_min":58,"x_max":1049,"o":"m 394 464 l 172 1047 l 346 1047 l 546 507 l 394 464 m 468 440 l 533 542 l 539 542 l 874 1019 l 922 1019 l 517 440 l 468 440 m 283 0 l 394 522 l 557 522 l 440 0 l 283 0 m 132 0 l 132 35 l 621 35 l 621 0 l 132 0 m 58 1013 l 58 1047 l 522 1047 l 522 1013 l 58 1013 m 708 1013 l 708 1047 l 1049 1047 l 1049 1013 l 708 1013 z "},"Ý":{"ha":810,"x_min":58,"x_max":1049,"o":"m 394 464 l 172 1047 l 346 1047 l 546 507 l 394 464 m 468 440 l 533 542 l 539 542 l 874 1019 l 922 1019 l 517 440 l 468 440 m 283 0 l 394 522 l 557 522 l 440 0 l 283 0 m 132 0 l 132 35 l 621 35 l 621 0 l 132 0 m 58 1013 l 58 1047 l 522 1047 l 522 1013 l 58 1013 m 708 1013 l 708 1047 l 1049 1047 l 1049 1013 l 708 1013 m 394 1169 l 633 1314 q 704 1353 678 1342 q 751 1364 731 1364 q 790 1350 775 1364 q 804 1310 804 1336 q 781 1257 804 1279 q 708 1224 758 1235 l 467 1169 l 394 1169 z "},"Ŷ":{"ha":810,"x_min":58,"x_max":1049,"o":"m 394 464 l 172 1047 l 346 1047 l 546 507 l 394 464 m 468 440 l 533 542 l 539 542 l 874 1019 l 922 1019 l 517 440 l 468 440 m 283 0 l 394 522 l 557 522 l 440 0 l 283 0 m 132 0 l 132 35 l 621 35 l 621 0 l 132 0 m 58 1013 l 58 1047 l 522 1047 l 522 1013 l 58 1013 m 708 1013 l 708 1047 l 1049 1047 l 1049 1013 l 708 1013 m 390 1169 l 611 1364 l 697 1364 l 839 1169 l 779 1169 l 632 1254 l 449 1169 l 390 1169 z "},"Ÿ":{"ha":810,"x_min":58,"x_max":1049,"o":"m 394 464 l 172 1047 l 346 1047 l 546 507 l 394 464 m 468 440 l 533 542 l 539 542 l 874 1019 l 922 1019 l 517 440 l 468 440 m 283 0 l 394 522 l 557 522 l 440 0 l 283 0 m 132 0 l 132 35 l 621 35 l 621 0 l 132 0 m 58 1013 l 58 1047 l 522 1047 l 522 1013 l 58 1013 m 708 1013 l 708 1047 l 1049 1047 l 1049 1013 l 708 1013 m 763 1164 q 701 1189 726 1164 q 675 1250 675 1214 q 701 1311 675 1286 q 763 1336 726 1336 q 824 1311 799 1336 q 850 1250 850 1286 q 824 1189 850 1214 q 763 1164 799 1164 m 463 1164 q 400 1189 425 1164 q 375 1250 375 1214 q 400 1311 375 1286 q 463 1336 425 1336 q 524 1311 499 1336 q 550 1250 550 1286 q 524 1189 550 1214 q 463 1164 499 1164 z "},"Ỵ":{"ha":810,"x_min":58,"x_max":1049,"o":"m 394 464 l 172 1047 l 346 1047 l 546 507 l 394 464 m 468 440 l 533 542 l 539 542 l 874 1019 l 922 1019 l 517 440 l 468 440 m 283 0 l 394 522 l 557 522 l 440 0 l 283 0 m 132 0 l 132 35 l 621 35 l 621 0 l 132 0 m 58 1013 l 58 1047 l 522 1047 l 522 1013 l 58 1013 m 708 1013 l 708 1047 l 1049 1047 l 1049 1013 l 708 1013 m 289 -282 q 223 -255 250 -282 q 196 -189 196 -228 q 223 -122 196 -149 q 289 -94 250 -94 q 356 -122 329 -94 q 383 -189 383 -149 q 356 -255 383 -228 q 289 -282 329 -282 z "},"Ỳ":{"ha":810,"x_min":58,"x_max":1049,"o":"m 394 464 l 172 1047 l 346 1047 l 546 507 l 394 464 m 468 440 l 533 542 l 539 542 l 874 1019 l 922 1019 l 517 440 l 468 440 m 283 0 l 394 522 l 557 522 l 440 0 l 283 0 m 132 0 l 132 35 l 621 35 l 621 0 l 132 0 m 58 1013 l 58 1047 l 522 1047 l 522 1013 l 58 1013 m 708 1013 l 708 1047 l 1049 1047 l 1049 1013 l 708 1013 m 706 1169 l 475 1231 q 433 1253 447 1238 q 419 1290 419 1268 q 440 1342 419 1319 q 494 1364 461 1364 q 530 1353 513 1364 q 586 1314 547 1343 l 779 1169 l 706 1169 z "},"Ỷ":{"ha":810,"x_min":58,"x_max":1049,"o":"m 394 464 l 172 1047 l 346 1047 l 546 507 l 394 464 m 468 440 l 533 542 l 539 542 l 874 1019 l 922 1019 l 517 440 l 468 440 m 283 0 l 394 522 l 557 522 l 440 0 l 283 0 m 132 0 l 132 35 l 621 35 l 621 0 l 132 0 m 58 1013 l 58 1047 l 522 1047 l 522 1013 l 58 1013 m 708 1013 l 708 1047 l 1049 1047 l 1049 1013 l 708 1013 m 603 1142 q 617 1174 607 1161 q 640 1199 628 1188 q 663 1222 653 1211 q 675 1244 672 1232 q 668 1296 682 1285 q 632 1307 654 1307 q 594 1297 611 1307 q 575 1272 578 1288 q 577 1260 574 1264 q 584 1251 581 1257 q 585 1233 588 1246 q 570 1211 583 1219 q 535 1203 557 1203 q 499 1217 511 1203 q 490 1251 486 1231 q 522 1317 499 1293 q 578 1352 546 1342 q 640 1363 610 1363 q 735 1335 703 1363 q 757 1247 768 1307 q 738 1213 753 1226 q 704 1188 724 1199 q 667 1166 685 1176 q 640 1142 649 1156 l 603 1142 z "},"Ỹ":{"ha":810,"x_min":58,"x_max":1049,"o":"m 394 464 l 172 1047 l 346 1047 l 546 507 l 394 464 m 468 440 l 533 542 l 539 542 l 874 1019 l 922 1019 l 517 440 l 468 440 m 283 0 l 394 522 l 557 522 l 440 0 l 283 0 m 132 0 l 132 35 l 621 35 l 621 0 l 132 0 m 58 1013 l 58 1047 l 522 1047 l 522 1013 l 58 1013 m 708 1013 l 708 1047 l 1049 1047 l 1049 1013 l 708 1013 m 367 1168 q 408 1258 381 1218 q 472 1319 435 1297 q 550 1342 508 1342 q 617 1325 590 1342 q 670 1292 644 1308 q 728 1275 696 1275 q 791 1299 765 1275 q 831 1346 817 1322 l 878 1346 q 801 1213 851 1256 q 693 1169 751 1169 q 622 1186 650 1169 q 570 1219 594 1203 q 513 1236 546 1236 q 451 1217 478 1236 q 411 1168 425 1197 l 367 1168 z "},"Z":{"ha":901,"x_min":13,"x_max":975,"o":"m 13 35 l 772 1007 l 772 1013 l 975 1013 l 207 40 l 207 35 l 13 35 m 13 0 l 13 35 l 490 35 q 604 58 553 35 q 704 144 656 82 q 806 322 753 206 l 847 322 l 764 0 l 13 0 m 208 753 l 292 1047 l 975 1047 l 975 1013 l 565 1013 q 452 992 504 1013 q 351 915 400 971 q 250 753 303 858 l 208 753 z "},"Ź":{"ha":901,"x_min":13,"x_max":975,"o":"m 13 35 l 772 1007 l 772 1013 l 975 1013 l 207 40 l 207 35 l 13 35 m 13 0 l 13 35 l 490 35 q 604 58 553 35 q 704 144 656 82 q 806 322 753 206 l 847 322 l 764 0 l 13 0 m 208 753 l 292 1047 l 975 1047 l 975 1013 l 565 1013 q 452 992 504 1013 q 351 915 400 971 q 250 753 303 858 l 208 753 m 440 1169 l 679 1314 q 750 1353 724 1342 q 797 1364 776 1364 q 835 1350 821 1364 q 850 1310 850 1336 q 827 1257 850 1279 q 754 1224 804 1235 l 513 1169 l 440 1169 z "},"Ž":{"ha":901,"x_min":13,"x_max":975,"o":"m 13 35 l 772 1007 l 772 1013 l 975 1013 l 207 40 l 207 35 l 13 35 m 13 0 l 13 35 l 490 35 q 604 58 553 35 q 704 144 656 82 q 806 322 753 206 l 847 322 l 764 0 l 13 0 m 208 753 l 292 1047 l 975 1047 l 975 1013 l 565 1013 q 452 992 504 1013 q 351 915 400 971 q 250 753 303 858 l 208 753 m 600 1169 l 458 1364 l 518 1364 l 665 1279 l 849 1364 l 908 1364 l 686 1169 l 600 1169 z "},"Ż":{"ha":901,"x_min":13,"x_max":975,"o":"m 13 35 l 772 1007 l 772 1013 l 975 1013 l 207 40 l 207 35 l 13 35 m 13 0 l 13 35 l 490 35 q 604 58 553 35 q 704 144 656 82 q 806 322 753 206 l 847 322 l 764 0 l 13 0 m 208 753 l 292 1047 l 975 1047 l 975 1013 l 565 1013 q 452 992 504 1013 q 351 915 400 971 q 250 753 303 858 l 208 753 m 653 1149 q 587 1176 614 1149 q 560 1242 560 1203 q 587 1309 560 1282 q 653 1336 614 1336 q 720 1309 693 1336 q 747 1242 747 1282 q 720 1176 747 1203 q 653 1149 693 1149 z "},"Ẓ":{"ha":901,"x_min":13,"x_max":975,"o":"m 13 35 l 772 1007 l 772 1013 l 975 1013 l 207 40 l 207 35 l 13 35 m 13 0 l 13 35 l 490 35 q 604 58 553 35 q 704 144 656 82 q 806 322 753 206 l 847 322 l 764 0 l 13 0 m 208 753 l 292 1047 l 975 1047 l 975 1013 l 565 1013 q 452 992 504 1013 q 351 915 400 971 q 250 753 303 858 l 208 753 m 335 -282 q 269 -255 296 -282 q 242 -189 242 -228 q 269 -122 242 -149 q 335 -94 296 -94 q 402 -122 375 -94 q 429 -189 429 -149 q 402 -255 429 -228 q 335 -282 375 -282 z "},"a":{"ha":769,"x_min":60,"x_max":772,"o":"m 274 -18 q 167 13 215 -18 q 89 103 118 44 q 60 240 60 161 q 90 393 60 321 q 172 522 121 465 q 285 610 222 578 q 414 642 349 642 q 508 613 478 642 q 553 540 539 583 l 561 540 l 532 414 q 535 440 533 429 q 536 465 536 451 q 506 563 536 525 q 431 601 476 601 q 355 570 389 601 q 294 488 321 539 q 250 377 268 436 q 223 261 232 318 q 214 163 214 204 q 236 61 214 96 q 301 26 258 26 q 363 44 331 26 q 427 108 394 63 q 489 236 460 154 l 472 97 l 464 97 q 382 12 433 42 q 274 -18 331 -18 m 569 -18 q 524 -6 547 -18 q 485 34 500 6 q 469 113 469 63 q 473 158 469 133 q 483 214 476 183 l 581 625 l 715 625 l 613 204 q 597 131 603 161 q 592 82 592 101 q 615 42 592 42 q 674 84 639 42 q 744 210 710 126 l 772 197 q 722 97 751 146 q 653 15 692 47 q 569 -18 615 -18 z "},"á":{"ha":769,"x_min":60,"x_max":788,"o":"m 274 -18 q 167 13 215 -18 q 89 103 118 44 q 60 240 60 161 q 90 393 60 321 q 172 522 121 465 q 285 610 222 578 q 414 642 349 642 q 508 613 478 642 q 553 540 539 583 l 561 540 l 532 414 q 535 440 533 429 q 536 465 536 451 q 506 563 536 525 q 431 601 476 601 q 355 570 389 601 q 294 488 321 539 q 250 377 268 436 q 223 261 232 318 q 214 163 214 204 q 236 61 214 96 q 301 26 258 26 q 363 44 331 26 q 427 108 394 63 q 489 236 460 154 l 472 97 l 464 97 q 382 12 433 42 q 274 -18 331 -18 m 569 -18 q 524 -6 547 -18 q 485 34 500 6 q 469 113 469 63 q 473 158 469 133 q 483 214 476 183 l 581 625 l 715 625 l 613 204 q 597 131 603 161 q 592 82 592 101 q 615 42 592 42 q 674 84 639 42 q 744 210 710 126 l 772 197 q 722 97 751 146 q 653 15 692 47 q 569 -18 615 -18 m 428 728 l 610 936 q 672 992 646 978 q 724 1006 697 1006 q 774 989 760 1006 q 788 953 788 972 q 774 915 788 935 q 732 876 761 894 l 486 728 l 428 728 z "},"ă":{"ha":769,"x_min":60,"x_max":772,"o":"m 274 -18 q 167 13 215 -18 q 89 103 118 44 q 60 240 60 161 q 90 393 60 321 q 172 522 121 465 q 285 610 222 578 q 414 642 349 642 q 508 613 478 642 q 553 540 539 583 l 561 540 l 532 414 q 535 440 533 429 q 536 465 536 451 q 506 563 536 525 q 431 601 476 601 q 355 570 389 601 q 294 488 321 539 q 250 377 268 436 q 223 261 232 318 q 214 163 214 204 q 236 61 214 96 q 301 26 258 26 q 363 44 331 26 q 427 108 394 63 q 489 236 460 154 l 472 97 l 464 97 q 382 12 433 42 q 274 -18 331 -18 m 569 -18 q 524 -6 547 -18 q 485 34 500 6 q 469 113 469 63 q 473 158 469 133 q 483 214 476 183 l 581 625 l 715 625 l 613 204 q 597 131 603 161 q 592 82 592 101 q 615 42 592 42 q 674 84 639 42 q 744 210 710 126 l 772 197 q 722 97 751 146 q 653 15 692 47 q 569 -18 615 -18 m 474 726 q 340 771 386 726 q 293 892 293 815 q 294 917 293 903 q 299 944 296 931 l 346 944 q 344 936 344 940 q 344 928 344 932 q 388 857 344 879 q 494 835 432 835 q 613 862 564 835 q 686 944 661 889 l 733 944 q 682 837 715 886 q 598 757 649 788 q 474 726 547 726 z "},"ắ":{"ha":769,"x_min":60,"x_max":863,"o":"m 274 -18 q 167 13 215 -18 q 89 103 118 44 q 60 240 60 161 q 90 393 60 321 q 172 522 121 465 q 285 610 222 578 q 414 642 349 642 q 508 613 478 642 q 553 540 539 583 l 561 540 l 532 414 q 535 440 533 429 q 536 465 536 451 q 506 563 536 525 q 431 601 476 601 q 355 570 389 601 q 294 488 321 539 q 250 377 268 436 q 223 261 232 318 q 214 163 214 204 q 236 61 214 96 q 301 26 258 26 q 363 44 331 26 q 427 108 394 63 q 489 236 460 154 l 472 97 l 464 97 q 382 12 433 42 q 274 -18 331 -18 m 569 -18 q 524 -6 547 -18 q 485 34 500 6 q 469 113 469 63 q 473 158 469 133 q 483 214 476 183 l 581 625 l 715 625 l 613 204 q 597 131 603 161 q 592 82 592 101 q 615 42 592 42 q 674 84 639 42 q 744 210 710 126 l 772 197 q 722 97 751 146 q 653 15 692 47 q 569 -18 615 -18 m 475 726 q 346 768 385 726 q 325 886 307 810 l 368 886 q 380 840 368 854 q 418 822 392 825 q 485 818 444 818 q 569 824 535 818 q 624 844 604 829 q 653 886 644 858 l 694 886 q 627 769 681 813 q 475 726 574 726 m 453 910 l 692 1054 q 763 1093 736 1082 q 810 1104 789 1104 q 848 1090 833 1104 q 863 1050 863 1076 q 840 997 863 1019 q 767 964 817 975 l 525 910 l 453 910 z "},"ặ":{"ha":769,"x_min":60,"x_max":772,"o":"m 274 -18 q 167 13 215 -18 q 89 103 118 44 q 60 240 60 161 q 90 393 60 321 q 172 522 121 465 q 285 610 222 578 q 414 642 349 642 q 508 613 478 642 q 553 540 539 583 l 561 540 l 532 414 q 535 440 533 429 q 536 465 536 451 q 506 563 536 525 q 431 601 476 601 q 355 570 389 601 q 294 488 321 539 q 250 377 268 436 q 223 261 232 318 q 214 163 214 204 q 236 61 214 96 q 301 26 258 26 q 363 44 331 26 q 427 108 394 63 q 489 236 460 154 l 472 97 l 464 97 q 382 12 433 42 q 274 -18 331 -18 m 569 -18 q 524 -6 547 -18 q 485 34 500 6 q 469 113 469 63 q 473 158 469 133 q 483 214 476 183 l 581 625 l 715 625 l 613 204 q 597 131 603 161 q 592 82 592 101 q 615 42 592 42 q 674 84 639 42 q 744 210 710 126 l 772 197 q 722 97 751 146 q 653 15 692 47 q 569 -18 615 -18 m 268 -282 q 202 -255 229 -282 q 175 -189 175 -228 q 202 -122 175 -149 q 268 -94 229 -94 q 335 -122 308 -94 q 363 -189 363 -149 q 335 -255 363 -228 q 268 -282 308 -282 m 474 726 q 340 771 386 726 q 293 892 293 815 q 294 917 293 903 q 299 944 296 931 l 346 944 q 344 936 344 940 q 344 928 344 932 q 388 857 344 879 q 494 835 432 835 q 613 862 564 835 q 686 944 661 889 l 733 944 q 682 837 715 886 q 598 757 649 788 q 474 726 547 726 z "},"ằ":{"ha":769,"x_min":60,"x_max":772,"o":"m 274 -18 q 167 13 215 -18 q 89 103 118 44 q 60 240 60 161 q 90 393 60 321 q 172 522 121 465 q 285 610 222 578 q 414 642 349 642 q 508 613 478 642 q 553 540 539 583 l 561 540 l 532 414 q 535 440 533 429 q 536 465 536 451 q 506 563 536 525 q 431 601 476 601 q 355 570 389 601 q 294 488 321 539 q 250 377 268 436 q 223 261 232 318 q 214 163 214 204 q 236 61 214 96 q 301 26 258 26 q 363 44 331 26 q 427 108 394 63 q 489 236 460 154 l 472 97 l 464 97 q 382 12 433 42 q 274 -18 331 -18 m 569 -18 q 524 -6 547 -18 q 485 34 500 6 q 469 113 469 63 q 473 158 469 133 q 483 214 476 183 l 581 625 l 715 625 l 613 204 q 597 131 603 161 q 592 82 592 101 q 615 42 592 42 q 674 84 639 42 q 744 210 710 126 l 772 197 q 722 97 751 146 q 653 15 692 47 q 569 -18 615 -18 m 475 726 q 346 768 385 726 q 325 886 307 810 l 368 886 q 380 840 368 854 q 418 822 392 825 q 485 818 444 818 q 569 824 535 818 q 624 844 604 829 q 653 886 644 858 l 694 886 q 627 769 681 813 q 475 726 574 726 m 499 922 l 268 983 q 226 1006 240 990 q 213 1043 213 1021 q 233 1094 213 1072 q 288 1117 254 1117 q 323 1106 306 1117 q 379 1067 340 1096 l 572 922 l 499 922 z "},"ẳ":{"ha":769,"x_min":60,"x_max":772,"o":"m 274 -18 q 167 13 215 -18 q 89 103 118 44 q 60 240 60 161 q 90 393 60 321 q 172 522 121 465 q 285 610 222 578 q 414 642 349 642 q 508 613 478 642 q 553 540 539 583 l 561 540 l 532 414 q 535 440 533 429 q 536 465 536 451 q 506 563 536 525 q 431 601 476 601 q 355 570 389 601 q 294 488 321 539 q 250 377 268 436 q 223 261 232 318 q 214 163 214 204 q 236 61 214 96 q 301 26 258 26 q 363 44 331 26 q 427 108 394 63 q 489 236 460 154 l 472 97 l 464 97 q 382 12 433 42 q 274 -18 331 -18 m 569 -18 q 524 -6 547 -18 q 485 34 500 6 q 469 113 469 63 q 473 158 469 133 q 483 214 476 183 l 581 625 l 715 625 l 613 204 q 597 131 603 161 q 592 82 592 101 q 615 42 592 42 q 674 84 639 42 q 744 210 710 126 l 772 197 q 722 97 751 146 q 653 15 692 47 q 569 -18 615 -18 m 469 726 q 340 768 379 726 q 319 886 301 810 l 363 886 q 374 840 363 854 q 413 822 386 825 q 479 818 439 818 q 564 824 529 818 q 619 844 599 829 q 647 886 639 858 l 689 886 q 622 769 675 813 q 469 726 568 726 m 481 889 q 502 931 486 914 q 534 961 518 947 q 553 992 550 975 q 546 1043 560 1032 q 510 1054 532 1054 q 472 1044 489 1054 q 453 1019 456 1035 q 455 1008 451 1011 q 462 999 458 1004 q 463 981 465 993 q 448 958 461 967 q 413 950 435 950 q 376 964 389 950 q 368 999 364 978 q 426 1085 379 1060 q 518 1110 472 1110 q 613 1082 581 1110 q 635 994 646 1054 q 616 960 631 974 q 582 935 601 946 q 544 913 563 924 q 518 889 526 903 l 481 889 z "},"ẵ":{"ha":769,"x_min":60,"x_max":814,"o":"m 274 -18 q 167 13 215 -18 q 89 103 118 44 q 60 240 60 161 q 90 393 60 321 q 172 522 121 465 q 285 610 222 578 q 414 642 349 642 q 508 613 478 642 q 553 540 539 583 l 561 540 l 532 414 q 535 440 533 429 q 536 465 536 451 q 506 563 536 525 q 431 601 476 601 q 355 570 389 601 q 294 488 321 539 q 250 377 268 436 q 223 261 232 318 q 214 163 214 204 q 236 61 214 96 q 301 26 258 26 q 363 44 331 26 q 427 108 394 63 q 489 236 460 154 l 472 97 l 464 97 q 382 12 433 42 q 274 -18 331 -18 m 569 -18 q 524 -6 547 -18 q 485 34 500 6 q 469 113 469 63 q 473 158 469 133 q 483 214 476 183 l 581 625 l 715 625 l 613 204 q 597 131 603 161 q 592 82 592 101 q 615 42 592 42 q 674 84 639 42 q 744 210 710 126 l 772 197 q 722 97 751 146 q 653 15 692 47 q 569 -18 615 -18 m 474 726 q 344 768 383 726 q 324 886 306 810 l 367 886 q 378 840 367 854 q 417 822 390 825 q 483 818 443 818 q 568 824 533 818 q 623 844 603 829 q 651 886 643 858 l 693 886 q 626 769 679 813 q 474 726 572 726 m 303 921 q 344 1010 317 971 q 408 1072 371 1050 q 486 1094 444 1094 q 553 1078 526 1094 q 606 1044 581 1061 q 664 1028 632 1028 q 727 1051 701 1028 q 767 1099 753 1075 l 814 1099 q 738 965 788 1008 q 629 922 688 922 q 558 939 586 922 q 506 972 531 956 q 449 989 482 989 q 388 969 414 989 q 347 921 361 950 l 303 921 z "},"â":{"ha":769,"x_min":60,"x_max":772,"o":"m 274 -18 q 167 13 215 -18 q 89 103 118 44 q 60 240 60 161 q 90 393 60 321 q 172 522 121 465 q 285 610 222 578 q 414 642 349 642 q 508 613 478 642 q 553 540 539 583 l 561 540 l 532 414 q 535 440 533 429 q 536 465 536 451 q 506 563 536 525 q 431 601 476 601 q 355 570 389 601 q 294 488 321 539 q 250 377 268 436 q 223 261 232 318 q 214 163 214 204 q 236 61 214 96 q 301 26 258 26 q 363 44 331 26 q 427 108 394 63 q 489 236 460 154 l 472 97 l 464 97 q 382 12 433 42 q 274 -18 331 -18 m 569 -18 q 524 -6 547 -18 q 485 34 500 6 q 469 113 469 63 q 473 158 469 133 q 483 214 476 183 l 581 625 l 715 625 l 613 204 q 597 131 603 161 q 592 82 592 101 q 615 42 592 42 q 674 84 639 42 q 744 210 710 126 l 772 197 q 722 97 751 146 q 653 15 692 47 q 569 -18 615 -18 m 258 728 l 499 1006 l 585 1006 l 707 728 l 647 728 l 514 875 l 317 728 l 258 728 z "},"ấ":{"ha":769,"x_min":60,"x_max":772,"o":"m 274 -18 q 167 13 215 -18 q 89 103 118 44 q 60 240 60 161 q 90 393 60 321 q 172 522 121 465 q 285 610 222 578 q 414 642 349 642 q 508 613 478 642 q 553 540 539 583 l 561 540 l 532 414 q 535 440 533 429 q 536 465 536 451 q 506 563 536 525 q 431 601 476 601 q 355 570 389 601 q 294 488 321 539 q 250 377 268 436 q 223 261 232 318 q 214 163 214 204 q 236 61 214 96 q 301 26 258 26 q 363 44 331 26 q 427 108 394 63 q 489 236 460 154 l 472 97 l 464 97 q 382 12 433 42 q 274 -18 331 -18 m 569 -18 q 524 -6 547 -18 q 485 34 500 6 q 469 113 469 63 q 473 158 469 133 q 483 214 476 183 l 581 625 l 715 625 l 613 204 q 597 131 603 161 q 592 82 592 101 q 615 42 592 42 q 674 84 639 42 q 744 210 710 126 l 772 197 q 722 97 751 146 q 653 15 692 47 q 569 -18 615 -18 m 274 719 l 453 858 l 539 858 l 667 719 l 607 719 l 488 776 l 332 719 l 274 719 m 304 906 l 543 1050 q 614 1089 588 1078 q 661 1100 640 1100 q 699 1086 685 1100 q 714 1046 714 1072 q 691 993 714 1015 q 618 960 668 971 l 376 906 l 304 906 z "},"ậ":{"ha":769,"x_min":60,"x_max":772,"o":"m 274 -18 q 167 13 215 -18 q 89 103 118 44 q 60 240 60 161 q 90 393 60 321 q 172 522 121 465 q 285 610 222 578 q 414 642 349 642 q 508 613 478 642 q 553 540 539 583 l 561 540 l 532 414 q 535 440 533 429 q 536 465 536 451 q 506 563 536 525 q 431 601 476 601 q 355 570 389 601 q 294 488 321 539 q 250 377 268 436 q 223 261 232 318 q 214 163 214 204 q 236 61 214 96 q 301 26 258 26 q 363 44 331 26 q 427 108 394 63 q 489 236 460 154 l 472 97 l 464 97 q 382 12 433 42 q 274 -18 331 -18 m 569 -18 q 524 -6 547 -18 q 485 34 500 6 q 469 113 469 63 q 473 158 469 133 q 483 214 476 183 l 581 625 l 715 625 l 613 204 q 597 131 603 161 q 592 82 592 101 q 615 42 592 42 q 674 84 639 42 q 744 210 710 126 l 772 197 q 722 97 751 146 q 653 15 692 47 q 569 -18 615 -18 m 268 -282 q 202 -255 229 -282 q 175 -189 175 -228 q 202 -122 175 -149 q 268 -94 229 -94 q 335 -122 308 -94 q 363 -189 363 -149 q 335 -255 363 -228 q 268 -282 308 -282 m 258 728 l 499 1006 l 585 1006 l 707 728 l 647 728 l 514 875 l 317 728 l 258 728 z "},"ầ":{"ha":769,"x_min":60,"x_max":772,"o":"m 274 -18 q 167 13 215 -18 q 89 103 118 44 q 60 240 60 161 q 90 393 60 321 q 172 522 121 465 q 285 610 222 578 q 414 642 349 642 q 508 613 478 642 q 553 540 539 583 l 561 540 l 532 414 q 535 440 533 429 q 536 465 536 451 q 506 563 536 525 q 431 601 476 601 q 355 570 389 601 q 294 488 321 539 q 250 377 268 436 q 223 261 232 318 q 214 163 214 204 q 236 61 214 96 q 301 26 258 26 q 363 44 331 26 q 427 108 394 63 q 489 236 460 154 l 472 97 l 464 97 q 382 12 433 42 q 274 -18 331 -18 m 569 -18 q 524 -6 547 -18 q 485 34 500 6 q 469 113 469 63 q 473 158 469 133 q 483 214 476 183 l 581 625 l 715 625 l 613 204 q 597 131 603 161 q 592 82 592 101 q 615 42 592 42 q 674 84 639 42 q 744 210 710 126 l 772 197 q 722 97 751 146 q 653 15 692 47 q 569 -18 615 -18 m 279 719 l 458 858 l 544 858 l 672 719 l 613 719 l 493 776 l 338 719 l 279 719 m 638 922 l 407 983 q 365 1006 379 990 q 351 1043 351 1021 q 372 1094 351 1072 q 426 1117 393 1117 q 462 1106 444 1117 q 518 1067 479 1096 l 711 922 l 638 922 z "},"ẩ":{"ha":769,"x_min":60,"x_max":779,"o":"m 274 -18 q 167 13 215 -18 q 89 103 118 44 q 60 240 60 161 q 90 393 60 321 q 172 522 121 465 q 285 610 222 578 q 414 642 349 642 q 508 613 478 642 q 553 540 539 583 l 561 540 l 532 414 q 535 440 533 429 q 536 465 536 451 q 506 563 536 525 q 431 601 476 601 q 355 570 389 601 q 294 488 321 539 q 250 377 268 436 q 223 261 232 318 q 214 163 214 204 q 236 61 214 96 q 301 26 258 26 q 363 44 331 26 q 427 108 394 63 q 489 236 460 154 l 472 97 l 464 97 q 382 12 433 42 q 274 -18 331 -18 m 569 -18 q 524 -6 547 -18 q 485 34 500 6 q 469 113 469 63 q 473 158 469 133 q 483 214 476 183 l 581 625 l 715 625 l 613 204 q 597 131 603 161 q 592 82 592 101 q 615 42 592 42 q 674 84 639 42 q 744 210 710 126 l 772 197 q 722 97 751 146 q 653 15 692 47 q 569 -18 615 -18 m 271 719 l 450 858 l 536 858 l 664 719 l 604 719 l 485 776 l 329 719 l 271 719 m 614 833 q 635 875 619 858 q 667 906 651 892 q 686 936 683 919 q 679 988 693 976 q 643 999 665 999 q 606 989 622 999 q 586 964 589 979 q 588 952 585 956 q 595 943 592 949 q 596 925 599 938 q 581 903 594 911 q 546 894 568 894 q 510 908 522 894 q 501 943 497 922 q 559 1029 513 1004 q 651 1054 606 1054 q 747 1026 714 1054 q 768 939 779 999 q 749 904 764 918 q 715 879 735 890 q 678 858 696 868 q 651 833 660 847 l 614 833 z "},"ẫ":{"ha":769,"x_min":60,"x_max":792,"o":"m 274 -18 q 167 13 215 -18 q 89 103 118 44 q 60 240 60 161 q 90 393 60 321 q 172 522 121 465 q 285 610 222 578 q 414 642 349 642 q 508 613 478 642 q 553 540 539 583 l 561 540 l 532 414 q 535 440 533 429 q 536 465 536 451 q 506 563 536 525 q 431 601 476 601 q 355 570 389 601 q 294 488 321 539 q 250 377 268 436 q 223 261 232 318 q 214 163 214 204 q 236 61 214 96 q 301 26 258 26 q 363 44 331 26 q 427 108 394 63 q 489 236 460 154 l 472 97 l 464 97 q 382 12 433 42 q 274 -18 331 -18 m 569 -18 q 524 -6 547 -18 q 485 34 500 6 q 469 113 469 63 q 473 158 469 133 q 483 214 476 183 l 581 625 l 715 625 l 613 204 q 597 131 603 161 q 592 82 592 101 q 615 42 592 42 q 674 84 639 42 q 744 210 710 126 l 772 197 q 722 97 751 146 q 653 15 692 47 q 569 -18 615 -18 m 274 719 l 453 858 l 539 858 l 667 719 l 607 719 l 488 776 l 332 719 l 274 719 m 281 896 q 322 985 294 946 q 385 1047 349 1025 q 464 1069 422 1069 q 531 1053 504 1069 q 584 1019 558 1036 q 642 1003 610 1003 q 705 1026 679 1003 q 744 1074 731 1050 l 792 1074 q 715 940 765 983 q 607 897 665 897 q 536 914 564 897 q 484 947 508 931 q 426 964 460 964 q 365 944 392 964 q 325 896 339 925 l 281 896 z "},"ȁ":{"ha":769,"x_min":60,"x_max":772,"o":"m 274 -18 q 167 13 215 -18 q 89 103 118 44 q 60 240 60 161 q 90 393 60 321 q 172 522 121 465 q 285 610 222 578 q 414 642 349 642 q 508 613 478 642 q 553 540 539 583 l 561 540 l 532 414 q 535 440 533 429 q 536 465 536 451 q 506 563 536 525 q 431 601 476 601 q 355 570 389 601 q 294 488 321 539 q 250 377 268 436 q 223 261 232 318 q 214 163 214 204 q 236 61 214 96 q 301 26 258 26 q 363 44 331 26 q 427 108 394 63 q 489 236 460 154 l 472 97 l 464 97 q 382 12 433 42 q 274 -18 331 -18 m 569 -18 q 524 -6 547 -18 q 485 34 500 6 q 469 113 469 63 q 473 158 469 133 q 483 214 476 183 l 581 625 l 715 625 l 613 204 q 597 131 603 161 q 592 82 592 101 q 615 42 592 42 q 674 84 639 42 q 744 210 710 126 l 772 197 q 722 97 751 146 q 653 15 692 47 q 569 -18 615 -18 m 600 728 l 413 858 q 356 909 369 889 q 343 947 343 929 q 360 989 343 972 q 407 1006 376 1006 q 451 994 429 1006 q 496 950 472 982 l 660 728 l 600 728 m 353 728 l 165 858 q 109 909 122 889 q 96 947 96 929 q 113 989 96 972 q 160 1006 129 1006 q 203 994 182 1006 q 249 950 225 982 l 413 728 l 353 728 z "},"ä":{"ha":769,"x_min":60,"x_max":772,"o":"m 274 -18 q 167 13 215 -18 q 89 103 118 44 q 60 240 60 161 q 90 393 60 321 q 172 522 121 465 q 285 610 222 578 q 414 642 349 642 q 508 613 478 642 q 553 540 539 583 l 561 540 l 532 414 q 535 440 533 429 q 536 465 536 451 q 506 563 536 525 q 431 601 476 601 q 355 570 389 601 q 294 488 321 539 q 250 377 268 436 q 223 261 232 318 q 214 163 214 204 q 236 61 214 96 q 301 26 258 26 q 363 44 331 26 q 427 108 394 63 q 489 236 460 154 l 472 97 l 464 97 q 382 12 433 42 q 274 -18 331 -18 m 569 -18 q 524 -6 547 -18 q 485 34 500 6 q 469 113 469 63 q 473 158 469 133 q 483 214 476 183 l 581 625 l 715 625 l 613 204 q 597 131 603 161 q 592 82 592 101 q 615 42 592 42 q 674 84 639 42 q 744 210 710 126 l 772 197 q 722 97 751 146 q 653 15 692 47 q 569 -18 615 -18 m 692 764 q 638 787 661 764 q 615 840 615 810 q 638 894 615 872 q 692 917 661 917 q 746 894 724 917 q 768 840 768 872 q 746 787 768 810 q 692 764 724 764 m 428 764 q 374 787 397 764 q 351 840 351 810 q 374 894 351 872 q 428 917 397 917 q 482 894 460 917 q 504 840 504 872 q 482 787 504 810 q 428 764 460 764 z "},"ạ":{"ha":769,"x_min":60,"x_max":772,"o":"m 274 -18 q 167 13 215 -18 q 89 103 118 44 q 60 240 60 161 q 90 393 60 321 q 172 522 121 465 q 285 610 222 578 q 414 642 349 642 q 508 613 478 642 q 553 540 539 583 l 561 540 l 532 414 q 535 440 533 429 q 536 465 536 451 q 506 563 536 525 q 431 601 476 601 q 355 570 389 601 q 294 488 321 539 q 250 377 268 436 q 223 261 232 318 q 214 163 214 204 q 236 61 214 96 q 301 26 258 26 q 363 44 331 26 q 427 108 394 63 q 489 236 460 154 l 472 97 l 464 97 q 382 12 433 42 q 274 -18 331 -18 m 569 -18 q 524 -6 547 -18 q 485 34 500 6 q 469 113 469 63 q 473 158 469 133 q 483 214 476 183 l 581 625 l 715 625 l 613 204 q 597 131 603 161 q 592 82 592 101 q 615 42 592 42 q 674 84 639 42 q 744 210 710 126 l 772 197 q 722 97 751 146 q 653 15 692 47 q 569 -18 615 -18 m 268 -282 q 202 -255 229 -282 q 175 -189 175 -228 q 202 -122 175 -149 q 268 -94 229 -94 q 335 -122 308 -94 q 363 -189 363 -149 q 335 -255 363 -228 q 268 -282 308 -282 z "},"à":{"ha":769,"x_min":60,"x_max":772,"o":"m 274 -18 q 167 13 215 -18 q 89 103 118 44 q 60 240 60 161 q 90 393 60 321 q 172 522 121 465 q 285 610 222 578 q 414 642 349 642 q 508 613 478 642 q 553 540 539 583 l 561 540 l 532 414 q 535 440 533 429 q 536 465 536 451 q 506 563 536 525 q 431 601 476 601 q 355 570 389 601 q 294 488 321 539 q 250 377 268 436 q 223 261 232 318 q 214 163 214 204 q 236 61 214 96 q 301 26 258 26 q 363 44 331 26 q 427 108 394 63 q 489 236 460 154 l 472 97 l 464 97 q 382 12 433 42 q 274 -18 331 -18 m 569 -18 q 524 -6 547 -18 q 485 34 500 6 q 469 113 469 63 q 473 158 469 133 q 483 214 476 183 l 581 625 l 715 625 l 613 204 q 597 131 603 161 q 592 82 592 101 q 615 42 592 42 q 674 84 639 42 q 744 210 710 126 l 772 197 q 722 97 751 146 q 653 15 692 47 q 569 -18 615 -18 m 531 728 l 343 858 q 287 909 300 889 q 274 947 274 929 q 290 989 274 972 q 338 1006 307 1006 q 381 994 360 1006 q 426 950 403 982 l 590 728 l 531 728 z "},"ả":{"ha":769,"x_min":60,"x_max":772,"o":"m 274 -18 q 167 13 215 -18 q 89 103 118 44 q 60 240 60 161 q 90 393 60 321 q 172 522 121 465 q 285 610 222 578 q 414 642 349 642 q 508 613 478 642 q 553 540 539 583 l 561 540 l 532 414 q 535 440 533 429 q 536 465 536 451 q 506 563 536 525 q 431 601 476 601 q 355 570 389 601 q 294 488 321 539 q 250 377 268 436 q 223 261 232 318 q 214 163 214 204 q 236 61 214 96 q 301 26 258 26 q 363 44 331 26 q 427 108 394 63 q 489 236 460 154 l 472 97 l 464 97 q 382 12 433 42 q 274 -18 331 -18 m 569 -18 q 524 -6 547 -18 q 485 34 500 6 q 469 113 469 63 q 473 158 469 133 q 483 214 476 183 l 581 625 l 715 625 l 613 204 q 597 131 603 161 q 592 82 592 101 q 615 42 592 42 q 674 84 639 42 q 744 210 710 126 l 772 197 q 722 97 751 146 q 653 15 692 47 q 569 -18 615 -18 m 485 719 q 499 752 489 739 q 522 777 510 765 q 544 799 535 789 q 557 822 554 810 q 550 874 564 863 q 514 885 536 885 q 476 875 493 885 q 457 850 460 865 q 459 838 456 842 q 466 829 463 835 q 467 811 469 824 q 452 789 465 797 q 417 781 439 781 q 381 794 393 781 q 372 829 368 808 q 404 895 381 871 q 460 930 428 919 q 522 940 492 940 q 617 913 585 940 q 639 825 650 885 q 620 790 635 804 q 586 765 606 776 q 549 744 567 754 q 522 719 531 733 l 485 719 z "},"ȃ":{"ha":769,"x_min":60,"x_max":772,"o":"m 274 -18 q 167 13 215 -18 q 89 103 118 44 q 60 240 60 161 q 90 393 60 321 q 172 522 121 465 q 285 610 222 578 q 414 642 349 642 q 508 613 478 642 q 553 540 539 583 l 561 540 l 532 414 q 535 440 533 429 q 536 465 536 451 q 506 563 536 525 q 431 601 476 601 q 355 570 389 601 q 294 488 321 539 q 250 377 268 436 q 223 261 232 318 q 214 163 214 204 q 236 61 214 96 q 301 26 258 26 q 363 44 331 26 q 427 108 394 63 q 489 236 460 154 l 472 97 l 464 97 q 382 12 433 42 q 274 -18 331 -18 m 569 -18 q 524 -6 547 -18 q 485 34 500 6 q 469 113 469 63 q 473 158 469 133 q 483 214 476 183 l 581 625 l 715 625 l 613 204 q 597 131 603 161 q 592 82 592 101 q 615 42 592 42 q 674 84 639 42 q 744 210 710 126 l 772 197 q 722 97 751 146 q 653 15 692 47 q 569 -18 615 -18 m 283 728 q 335 835 303 786 q 419 915 368 885 q 543 946 469 946 q 677 901 631 946 q 724 781 724 857 q 722 756 724 769 q 718 728 721 742 l 671 728 q 672 736 672 732 q 672 744 672 740 q 628 815 672 793 q 522 838 585 838 q 404 811 453 838 q 331 728 356 785 l 283 728 z "},"ā":{"ha":769,"x_min":60,"x_max":772,"o":"m 274 -18 q 167 13 215 -18 q 89 103 118 44 q 60 240 60 161 q 90 393 60 321 q 172 522 121 465 q 285 610 222 578 q 414 642 349 642 q 508 613 478 642 q 553 540 539 583 l 561 540 l 532 414 q 535 440 533 429 q 536 465 536 451 q 506 563 536 525 q 431 601 476 601 q 355 570 389 601 q 294 488 321 539 q 250 377 268 436 q 223 261 232 318 q 214 163 214 204 q 236 61 214 96 q 301 26 258 26 q 363 44 331 26 q 427 108 394 63 q 489 236 460 154 l 472 97 l 464 97 q 382 12 433 42 q 274 -18 331 -18 m 569 -18 q 524 -6 547 -18 q 485 34 500 6 q 469 113 469 63 q 473 158 469 133 q 483 214 476 183 l 581 625 l 715 625 l 613 204 q 597 131 603 161 q 592 82 592 101 q 615 42 592 42 q 674 84 639 42 q 744 210 710 126 l 772 197 q 722 97 751 146 q 653 15 692 47 q 569 -18 615 -18 m 278 843 l 299 935 l 743 935 l 722 843 l 278 843 z "},"ą":{"ha":769,"x_min":60,"x_max":772,"o":"m 274 -18 q 167 13 215 -18 q 89 103 118 44 q 60 240 60 161 q 90 393 60 321 q 172 522 121 465 q 285 610 222 578 q 414 642 349 642 q 508 613 478 642 q 553 540 539 583 l 561 540 l 532 414 q 535 440 533 429 q 536 465 536 451 q 506 563 536 525 q 431 601 476 601 q 355 570 389 601 q 294 488 321 539 q 250 377 268 436 q 223 261 232 318 q 214 163 214 204 q 236 61 214 96 q 301 26 258 26 q 363 44 331 26 q 427 108 394 63 q 489 236 460 154 l 472 97 l 464 97 q 382 12 433 42 q 274 -18 331 -18 m 569 -18 q 524 -6 547 -18 q 485 34 500 6 q 469 113 469 63 q 473 158 469 133 q 483 214 476 183 l 581 625 l 715 625 l 613 204 q 597 131 603 161 q 592 82 592 101 q 615 42 592 42 q 674 84 639 42 q 744 210 710 126 l 772 197 q 722 97 751 146 q 653 15 692 47 q 569 -18 615 -18 m 438 -322 q 360 -299 390 -322 q 331 -239 331 -276 q 401 -108 331 -181 q 590 25 472 -36 l 640 17 q 497 -99 547 -40 q 446 -210 446 -158 q 460 -251 446 -236 q 499 -265 474 -265 q 534 -258 515 -265 q 578 -236 553 -251 l 594 -258 q 524 -304 567 -286 q 438 -322 481 -322 z "},"å":{"ha":769,"x_min":60,"x_max":772,"o":"m 274 -18 q 167 13 215 -18 q 89 103 118 44 q 60 240 60 161 q 90 393 60 321 q 172 522 121 465 q 285 610 222 578 q 414 642 349 642 q 508 613 478 642 q 553 540 539 583 l 561 540 l 532 414 q 535 440 533 429 q 536 465 536 451 q 506 563 536 525 q 431 601 476 601 q 355 570 389 601 q 294 488 321 539 q 250 377 268 436 q 223 261 232 318 q 214 163 214 204 q 236 61 214 96 q 301 26 258 26 q 363 44 331 26 q 427 108 394 63 q 489 236 460 154 l 472 97 l 464 97 q 382 12 433 42 q 274 -18 331 -18 m 569 -18 q 524 -6 547 -18 q 485 34 500 6 q 469 113 469 63 q 473 158 469 133 q 483 214 476 183 l 581 625 l 715 625 l 613 204 q 597 131 603 161 q 592 82 592 101 q 615 42 592 42 q 674 84 639 42 q 744 210 710 126 l 772 197 q 722 97 751 146 q 653 15 692 47 q 569 -18 615 -18 m 526 750 q 427 792 469 750 q 385 892 385 833 q 427 990 385 949 q 526 1032 469 1032 q 626 991 583 1032 q 668 892 668 950 q 626 792 668 833 q 526 750 585 750 m 526 814 q 581 838 558 814 q 603 892 603 861 q 580 944 603 922 q 526 967 557 967 q 473 944 496 967 q 450 892 450 922 q 473 838 450 861 q 526 814 496 814 z "},"ǻ":{"ha":769,"x_min":60,"x_max":968,"o":"m 274 -18 q 167 13 215 -18 q 89 103 118 44 q 60 240 60 161 q 90 393 60 321 q 172 522 121 465 q 285 610 222 578 q 414 642 349 642 q 508 613 478 642 q 553 540 539 583 l 561 540 l 532 414 q 535 440 533 429 q 536 465 536 451 q 506 563 536 525 q 431 601 476 601 q 355 570 389 601 q 294 488 321 539 q 250 377 268 436 q 223 261 232 318 q 214 163 214 204 q 236 61 214 96 q 301 26 258 26 q 363 44 331 26 q 427 108 394 63 q 489 236 460 154 l 472 97 l 464 97 q 382 12 433 42 q 274 -18 331 -18 m 569 -18 q 524 -6 547 -18 q 485 34 500 6 q 469 113 469 63 q 473 158 469 133 q 483 214 476 183 l 581 625 l 715 625 l 613 204 q 597 131 603 161 q 592 82 592 101 q 615 42 592 42 q 674 84 639 42 q 744 210 710 126 l 772 197 q 722 97 751 146 q 653 15 692 47 q 569 -18 615 -18 m 526 750 q 427 792 469 750 q 385 892 385 833 q 427 990 385 949 q 526 1032 469 1032 q 626 991 583 1032 q 668 892 668 950 q 626 792 668 833 q 526 750 585 750 m 526 814 q 581 838 558 814 q 603 892 603 861 q 580 944 603 922 q 526 967 557 967 q 473 944 496 967 q 450 892 450 922 q 473 838 450 861 q 526 814 496 814 m 608 1065 l 790 1274 q 852 1329 826 1315 q 904 1343 878 1343 q 954 1326 940 1343 q 968 1290 968 1310 q 955 1252 968 1272 q 913 1214 942 1232 l 667 1065 l 608 1065 z "},"ã":{"ha":769,"x_min":60,"x_max":778,"o":"m 274 -18 q 167 13 215 -18 q 89 103 118 44 q 60 240 60 161 q 90 393 60 321 q 172 522 121 465 q 285 610 222 578 q 414 642 349 642 q 508 613 478 642 q 553 540 539 583 l 561 540 l 532 414 q 535 440 533 429 q 536 465 536 451 q 506 563 536 525 q 431 601 476 601 q 355 570 389 601 q 294 488 321 539 q 250 377 268 436 q 223 261 232 318 q 214 163 214 204 q 236 61 214 96 q 301 26 258 26 q 363 44 331 26 q 427 108 394 63 q 489 236 460 154 l 472 97 l 464 97 q 382 12 433 42 q 274 -18 331 -18 m 569 -18 q 524 -6 547 -18 q 485 34 500 6 q 469 113 469 63 q 473 158 469 133 q 483 214 476 183 l 581 625 l 715 625 l 613 204 q 597 131 603 161 q 592 82 592 101 q 615 42 592 42 q 674 84 639 42 q 744 210 710 126 l 772 197 q 722 97 751 146 q 653 15 692 47 q 569 -18 615 -18 m 267 742 q 308 831 281 792 q 372 893 335 871 q 450 915 408 915 q 517 899 490 915 q 570 865 544 882 q 628 849 596 849 q 691 872 665 849 q 731 919 717 896 l 778 919 q 701 786 751 829 q 593 743 651 743 q 522 760 550 743 q 470 793 494 776 q 413 810 446 810 q 351 790 378 810 q 311 742 325 771 l 267 742 z "},"æ":{"ha":1079,"x_min":60,"x_max":1063,"o":"m 761 -18 q 617 21 675 -18 q 531 122 560 60 q 503 249 503 183 q 533 389 503 319 q 614 515 563 458 q 731 607 665 572 q 868 642 796 642 q 967 621 924 642 q 1037 562 1011 600 q 1063 474 1063 524 q 1024 367 1063 414 q 919 294 986 321 q 767 268 853 268 q 701 271 736 268 q 640 278 667 274 q 603 283 613 282 l 610 318 q 658 308 633 311 q 711 304 683 304 q 846 331 796 304 q 918 401 896 357 q 940 493 940 444 q 917 575 940 550 q 854 600 893 600 q 777 575 811 600 q 717 507 743 550 q 674 410 692 464 q 649 301 657 357 q 640 193 640 244 q 670 61 640 99 q 768 24 700 24 q 898 60 835 24 q 1015 185 961 96 l 1043 165 q 920 28 992 74 q 761 -18 849 -18 m 274 -18 q 165 11 214 -18 q 88 96 117 40 q 60 228 60 151 q 90 384 60 310 q 173 516 121 458 q 289 608 225 574 q 418 642 353 642 q 511 613 479 642 q 557 543 543 585 l 565 543 l 535 417 q 538 443 538 431 q 538 465 538 456 q 508 564 538 526 q 435 601 479 601 q 357 569 392 601 q 296 483 322 536 q 251 369 269 431 q 223 250 232 308 q 214 150 214 192 q 236 56 214 86 q 301 26 258 26 q 376 47 339 26 q 442 110 413 68 q 486 218 472 153 l 519 199 l 519 153 l 511 153 q 447 60 485 99 q 366 2 410 22 q 274 -18 322 -18 m 468 142 l 583 625 l 718 625 l 613 204 l 468 142 z "},"ǽ":{"ha":1079,"x_min":60,"x_max":1063,"o":"m 761 -18 q 617 21 675 -18 q 531 122 560 60 q 503 249 503 183 q 533 389 503 319 q 614 515 563 458 q 731 607 665 572 q 868 642 796 642 q 967 621 924 642 q 1037 562 1011 600 q 1063 474 1063 524 q 1024 367 1063 414 q 919 294 986 321 q 767 268 853 268 q 701 271 736 268 q 640 278 667 274 q 603 283 613 282 l 610 318 q 658 308 633 311 q 711 304 683 304 q 846 331 796 304 q 918 401 896 357 q 940 493 940 444 q 917 575 940 550 q 854 600 893 600 q 777 575 811 600 q 717 507 743 550 q 674 410 692 464 q 649 301 657 357 q 640 193 640 244 q 670 61 640 99 q 768 24 700 24 q 898 60 835 24 q 1015 185 961 96 l 1043 165 q 920 28 992 74 q 761 -18 849 -18 m 274 -18 q 165 11 214 -18 q 88 96 117 40 q 60 228 60 151 q 90 384 60 310 q 173 516 121 458 q 289 608 225 574 q 418 642 353 642 q 511 613 479 642 q 557 543 543 585 l 565 543 l 535 417 q 538 443 538 431 q 538 465 538 456 q 508 564 538 526 q 435 601 479 601 q 357 569 392 601 q 296 483 322 536 q 251 369 269 431 q 223 250 232 308 q 214 150 214 192 q 236 56 214 86 q 301 26 258 26 q 376 47 339 26 q 442 110 413 68 q 486 218 472 153 l 519 199 l 519 153 l 511 153 q 447 60 485 99 q 366 2 410 22 q 274 -18 322 -18 m 468 142 l 583 625 l 718 625 l 613 204 l 468 142 m 625 728 l 807 936 q 869 992 843 978 q 921 1006 894 1006 q 971 989 957 1006 q 985 953 985 972 q 972 915 985 935 q 929 876 958 894 l 683 728 l 625 728 z "},"b":{"ha":717,"x_min":72,"x_max":676,"o":"m 279 -18 q 124 40 176 -18 q 72 182 72 97 q 76 219 72 199 q 89 283 79 240 l 269 1047 l 418 1047 l 213 192 q 207 161 210 178 q 204 125 204 144 q 226 49 204 75 q 288 22 249 22 q 378 60 335 22 q 455 160 421 97 q 508 303 489 224 q 528 465 528 382 q 510 567 528 536 q 449 597 493 597 q 356 563 400 597 q 274 456 311 528 l 303 578 l 313 578 q 380 623 339 604 q 468 642 421 642 q 571 613 524 642 q 647 528 618 583 q 676 394 676 472 q 644 238 676 313 q 556 106 611 164 q 428 15 500 49 q 279 -18 357 -18 m 131 1013 l 131 1047 l 401 1047 l 401 1013 l 131 1013 z "},"c":{"ha":653,"x_min":61,"x_max":639,"o":"m 322 -18 q 183 24 242 -18 q 92 130 124 65 q 61 265 61 194 q 92 405 61 338 q 178 526 124 472 q 305 610 233 579 q 456 642 376 642 q 552 626 511 642 q 616 581 593 610 q 639 513 639 551 q 617 453 639 474 q 558 432 594 432 q 504 449 526 432 q 482 499 482 465 q 492 536 482 524 q 513 556 503 549 q 524 572 524 563 q 500 594 524 588 q 453 600 476 600 q 360 572 400 600 q 290 497 319 543 q 243 395 261 450 q 216 285 225 340 q 207 186 207 231 q 235 67 207 110 q 333 24 264 24 q 451 60 392 24 q 561 185 510 96 l 589 165 q 474 29 542 76 q 322 -18 406 -18 z "},"ć":{"ha":653,"x_min":61,"x_max":771,"o":"m 322 -18 q 183 24 242 -18 q 92 130 124 65 q 61 265 61 194 q 92 405 61 338 q 178 526 124 472 q 305 610 233 579 q 456 642 376 642 q 552 626 511 642 q 616 581 593 610 q 639 513 639 551 q 617 453 639 474 q 558 432 594 432 q 504 449 526 432 q 482 499 482 465 q 492 536 482 524 q 513 556 503 549 q 524 572 524 563 q 500 594 524 588 q 453 600 476 600 q 360 572 400 600 q 290 497 319 543 q 243 395 261 450 q 216 285 225 340 q 207 186 207 231 q 235 67 207 110 q 333 24 264 24 q 451 60 392 24 q 561 185 510 96 l 589 165 q 474 29 542 76 q 322 -18 406 -18 m 411 728 l 593 936 q 655 992 629 978 q 707 1006 681 1006 q 757 989 743 1006 q 771 953 771 972 q 758 915 771 935 q 715 876 744 894 l 469 728 l 411 728 z "},"č":{"ha":653,"x_min":61,"x_max":750,"o":"m 322 -18 q 183 24 242 -18 q 92 130 124 65 q 61 265 61 194 q 92 405 61 338 q 178 526 124 472 q 305 610 233 579 q 456 642 376 642 q 552 626 511 642 q 616 581 593 610 q 639 513 639 551 q 617 453 639 474 q 558 432 594 432 q 504 449 526 432 q 482 499 482 465 q 492 536 482 524 q 513 556 503 549 q 524 572 524 563 q 500 594 524 588 q 453 600 476 600 q 360 572 400 600 q 290 497 319 543 q 243 395 261 450 q 216 285 225 340 q 207 186 207 231 q 235 67 207 110 q 333 24 264 24 q 451 60 392 24 q 561 185 510 96 l 589 165 q 474 29 542 76 q 322 -18 406 -18 m 422 728 l 300 1006 l 360 1006 l 493 858 l 690 1006 l 750 1006 l 508 728 l 422 728 z "},"ç":{"ha":653,"x_min":61,"x_max":639,"o":"m 322 -18 q 183 24 242 -18 q 92 130 124 65 q 61 265 61 194 q 92 405 61 338 q 178 526 124 472 q 305 610 233 579 q 456 642 376 642 q 552 626 511 642 q 616 581 593 610 q 639 513 639 551 q 617 453 639 474 q 558 432 594 432 q 504 449 526 432 q 482 499 482 465 q 492 536 482 524 q 513 556 503 549 q 524 572 524 563 q 500 594 524 588 q 453 600 476 600 q 360 572 400 600 q 290 497 319 543 q 243 395 261 450 q 216 285 225 340 q 207 186 207 231 q 235 67 207 110 q 333 24 264 24 q 451 60 392 24 q 561 185 510 96 l 589 165 q 474 29 542 76 q 322 -18 406 -18 m 194 -314 q 129 -306 156 -314 q 92 -290 103 -297 l 115 -256 q 146 -266 124 -261 q 189 -271 168 -271 q 260 -251 229 -271 q 292 -192 292 -232 q 271 -144 292 -161 q 204 -125 250 -126 l 286 14 l 328 14 l 268 -92 l 294 -92 q 378 -116 349 -92 q 408 -181 408 -140 q 374 -256 408 -226 q 290 -299 339 -285 q 194 -314 240 -314 z "},"ĉ":{"ha":653,"x_min":61,"x_max":690,"o":"m 322 -18 q 183 24 242 -18 q 92 130 124 65 q 61 265 61 194 q 92 405 61 338 q 178 526 124 472 q 305 610 233 579 q 456 642 376 642 q 552 626 511 642 q 616 581 593 610 q 639 513 639 551 q 617 453 639 474 q 558 432 594 432 q 504 449 526 432 q 482 499 482 465 q 492 536 482 524 q 513 556 503 549 q 524 572 524 563 q 500 594 524 588 q 453 600 476 600 q 360 572 400 600 q 290 497 319 543 q 243 395 261 450 q 216 285 225 340 q 207 186 207 231 q 235 67 207 110 q 333 24 264 24 q 451 60 392 24 q 561 185 510 96 l 589 165 q 474 29 542 76 q 322 -18 406 -18 m 242 728 l 482 1006 l 568 1006 l 690 728 l 631 728 l 497 875 l 300 728 l 242 728 z "},"ċ":{"ha":653,"x_min":61,"x_max":639,"o":"m 322 -18 q 183 24 242 -18 q 92 130 124 65 q 61 265 61 194 q 92 405 61 338 q 178 526 124 472 q 305 610 233 579 q 456 642 376 642 q 552 626 511 642 q 616 581 593 610 q 639 513 639 551 q 617 453 639 474 q 558 432 594 432 q 504 449 526 432 q 482 499 482 465 q 492 536 482 524 q 513 556 503 549 q 524 572 524 563 q 500 594 524 588 q 453 600 476 600 q 360 572 400 600 q 290 497 319 543 q 243 395 261 450 q 216 285 225 340 q 207 186 207 231 q 235 67 207 110 q 333 24 264 24 q 451 60 392 24 q 561 185 510 96 l 589 165 q 474 29 542 76 q 322 -18 406 -18 m 513 775 q 447 802 474 775 q 419 868 419 829 q 447 935 419 908 q 513 963 474 963 q 580 935 553 963 q 607 868 607 908 q 580 802 607 829 q 513 775 553 775 z "},"d":{"ha":778,"x_min":44,"x_max":832,"o":"m 575 -18 q 499 10 528 -18 q 469 103 469 38 q 473 151 469 124 q 485 213 476 179 l 683 1047 l 832 1047 l 607 135 q 601 106 603 117 q 600 88 600 94 q 632 53 600 53 q 706 93 667 53 q 796 231 746 133 l 824 218 q 758 103 793 157 q 678 15 722 49 q 575 -18 633 -18 m 275 -18 q 161 12 214 -18 q 76 98 108 42 q 44 235 44 154 q 77 389 44 315 q 163 519 110 463 q 281 609 217 576 q 410 642 346 642 q 504 613 471 642 q 556 540 538 585 l 565 540 l 533 414 q 537 440 536 428 q 538 463 538 453 q 504 561 538 521 q 422 601 471 601 q 346 571 381 601 q 285 491 311 540 q 240 383 258 442 q 212 268 221 325 q 203 167 203 211 q 228 59 203 92 q 301 26 254 26 q 360 41 328 26 q 426 101 392 56 q 490 236 460 146 l 474 97 l 464 97 q 390 15 438 49 q 275 -18 343 -18 m 544 1013 l 544 1047 l 815 1047 l 815 1013 l 544 1013 z "},"ð":{"ha":760,"x_min":43,"x_max":824,"o":"m 321 -18 q 177 17 240 -18 q 78 115 114 53 q 43 258 43 178 q 73 402 43 333 q 154 526 103 471 q 272 613 206 581 q 410 644 338 644 q 499 630 458 644 q 565 590 539 615 l 571 592 q 581 657 578 625 q 585 715 585 689 q 526 901 585 828 q 336 1007 468 974 l 357 1044 q 508 984 439 1026 q 629 877 578 942 q 709 728 681 813 q 738 542 738 643 q 709 342 738 442 q 626 162 681 243 q 495 31 572 81 q 321 -18 418 -18 m 319 19 q 416 48 378 19 q 481 140 454 76 q 529 307 507 204 q 549 412 540 356 q 560 533 557 468 q 509 584 542 565 q 440 603 476 603 q 343 562 386 603 q 271 456 300 521 q 226 315 242 390 q 211 174 211 240 q 225 75 211 108 q 263 31 239 42 q 319 19 288 19 m 371 779 l 357 819 l 811 965 l 824 925 l 371 779 z "},"ď":{"ha":778,"x_min":44,"x_max":1092,"o":"m 575 -18 q 499 10 528 -18 q 469 103 469 38 q 473 151 469 124 q 485 213 476 179 l 683 1047 l 832 1047 l 607 135 q 601 106 603 117 q 600 88 600 94 q 632 53 600 53 q 706 93 667 53 q 796 231 746 133 l 824 218 q 758 103 793 157 q 678 15 722 49 q 575 -18 633 -18 m 275 -18 q 161 12 214 -18 q 76 98 108 42 q 44 235 44 154 q 77 389 44 315 q 163 519 110 463 q 281 609 217 576 q 410 642 346 642 q 504 613 471 642 q 556 540 538 585 l 565 540 l 533 414 q 537 440 536 428 q 538 463 538 453 q 504 561 538 521 q 422 601 471 601 q 346 571 381 601 q 285 491 311 540 q 240 383 258 442 q 212 268 221 325 q 203 167 203 211 q 228 59 203 92 q 301 26 254 26 q 360 41 328 26 q 426 101 392 56 q 490 236 460 146 l 474 97 l 464 97 q 390 15 438 49 q 275 -18 343 -18 m 544 1013 l 544 1047 l 815 1047 l 815 1013 l 544 1013 m 874 674 l 856 706 q 998 806 954 754 q 1042 899 1042 858 q 1034 926 1042 918 q 1019 935 1026 935 q 1002 924 1010 935 q 981 903 994 914 q 942 892 968 892 q 887 913 907 892 q 867 968 867 933 q 894 1036 867 1008 q 969 1064 922 1064 q 1035 1047 1007 1064 q 1077 999 1063 1029 q 1092 933 1092 969 q 1032 792 1092 861 q 874 674 972 724 z "},"đ":{"ha":778,"x_min":44,"x_max":856,"o":"m 575 -18 q 499 10 528 -18 q 469 103 469 38 q 473 151 469 124 q 485 213 476 179 l 683 1047 l 832 1047 l 607 135 q 601 106 603 117 q 600 88 600 94 q 632 53 600 53 q 706 93 667 53 q 796 231 746 133 l 824 218 q 758 103 793 157 q 678 15 722 49 q 575 -18 633 -18 m 275 -18 q 161 12 214 -18 q 76 98 108 42 q 44 235 44 154 q 77 389 44 315 q 163 519 110 463 q 281 609 217 576 q 410 642 346 642 q 504 613 471 642 q 556 540 538 585 l 565 540 l 533 414 q 537 440 536 428 q 538 463 538 453 q 504 561 538 521 q 422 601 471 601 q 346 571 381 601 q 285 491 311 540 q 240 383 258 442 q 212 268 221 325 q 203 167 203 211 q 228 59 203 92 q 301 26 254 26 q 360 41 328 26 q 426 101 392 56 q 490 236 460 146 l 474 97 l 464 97 q 390 15 438 49 q 275 -18 343 -18 m 544 1013 l 544 1047 l 815 1047 l 815 1013 l 544 1013 m 349 769 l 349 818 l 856 818 l 856 769 l 349 769 z "},"ḍ":{"ha":778,"x_min":44,"x_max":832,"o":"m 575 -18 q 499 10 528 -18 q 469 103 469 38 q 473 151 469 124 q 485 213 476 179 l 683 1047 l 832 1047 l 607 135 q 601 106 603 117 q 600 88 600 94 q 632 53 600 53 q 706 93 667 53 q 796 231 746 133 l 824 218 q 758 103 793 157 q 678 15 722 49 q 575 -18 633 -18 m 275 -18 q 161 12 214 -18 q 76 98 108 42 q 44 235 44 154 q 77 389 44 315 q 163 519 110 463 q 281 609 217 576 q 410 642 346 642 q 504 613 471 642 q 556 540 538 585 l 565 540 l 533 414 q 537 440 536 428 q 538 463 538 453 q 504 561 538 521 q 422 601 471 601 q 346 571 381 601 q 285 491 311 540 q 240 383 258 442 q 212 268 221 325 q 203 167 203 211 q 228 59 203 92 q 301 26 254 26 q 360 41 328 26 q 426 101 392 56 q 490 236 460 146 l 474 97 l 464 97 q 390 15 438 49 q 275 -18 343 -18 m 544 1013 l 544 1047 l 815 1047 l 815 1013 l 544 1013 m 272 -282 q 206 -255 233 -282 q 179 -189 179 -228 q 206 -122 179 -149 q 272 -94 233 -94 q 340 -122 313 -94 q 367 -189 367 -149 q 340 -255 367 -228 q 272 -282 313 -282 z "},"ǳ":{"ha":1436,"x_min":44,"x_max":1407,"o":"m 575 -18 q 499 10 528 -18 q 469 103 469 38 q 473 151 469 124 q 485 213 476 179 l 683 1047 l 832 1047 l 607 135 q 601 106 603 117 q 600 88 600 94 q 632 53 600 53 q 706 93 667 53 q 796 231 746 133 l 824 218 q 758 103 793 157 q 678 15 722 49 q 575 -18 633 -18 m 275 -18 q 161 12 214 -18 q 76 98 108 42 q 44 235 44 154 q 77 389 44 315 q 163 519 110 463 q 281 609 217 576 q 410 642 346 642 q 504 613 471 642 q 556 540 538 585 l 565 540 l 533 414 q 537 440 536 428 q 538 463 538 453 q 504 561 538 521 q 422 601 471 601 q 346 571 381 601 q 285 491 311 540 q 240 383 258 442 q 212 268 221 325 q 203 167 203 211 q 228 59 203 92 q 301 26 254 26 q 360 41 328 26 q 426 101 392 56 q 490 236 460 146 l 474 97 l 464 97 q 390 15 438 49 q 275 -18 343 -18 m 544 1013 l 544 1047 l 815 1047 l 815 1013 l 544 1013 m 831 -11 q 808 -2 815 -11 q 801 21 801 7 q 822 72 801 42 q 897 156 842 101 l 1249 492 l 1246 496 q 1149 477 1193 483 q 1065 471 1104 471 q 1003 475 1033 471 q 942 492 974 479 l 892 399 l 868 408 l 971 625 l 992 625 q 1091 597 1050 607 q 1166 581 1132 586 q 1238 574 1200 575 q 1328 572 1275 572 q 1346 582 1342 572 q 1351 603 1350 592 q 1358 625 1353 615 q 1382 635 1364 635 q 1407 613 1407 635 q 1397 590 1407 606 q 1343 531 1388 574 l 963 167 l 963 161 q 1051 151 1007 161 q 1135 129 1096 142 q 1208 107 1175 117 q 1264 97 1242 97 q 1303 110 1292 97 q 1315 138 1315 124 q 1303 157 1315 153 q 1277 164 1292 161 q 1251 175 1263 167 q 1239 206 1239 183 q 1255 244 1239 232 q 1289 257 1271 257 q 1333 230 1318 257 q 1349 167 1349 203 q 1321 74 1349 115 q 1247 7 1293 32 q 1147 -18 1201 -18 q 1042 3 1093 -18 q 951 44 992 24 q 885 65 910 65 q 861 53 863 65 q 864 27 860 42 q 864 1 868 13 q 831 -11 860 -11 z "},"ǆ":{"ha":1436,"x_min":44,"x_max":1489,"o":"m 575 -18 q 499 10 528 -18 q 469 103 469 38 q 473 151 469 124 q 485 213 476 179 l 683 1047 l 832 1047 l 607 135 q 601 106 603 117 q 600 88 600 94 q 632 53 600 53 q 706 93 667 53 q 796 231 746 133 l 824 218 q 758 103 793 157 q 678 15 722 49 q 575 -18 633 -18 m 275 -18 q 161 12 214 -18 q 76 98 108 42 q 44 235 44 154 q 77 389 44 315 q 163 519 110 463 q 281 609 217 576 q 410 642 346 642 q 504 613 471 642 q 556 540 538 585 l 565 540 l 533 414 q 537 440 536 428 q 538 463 538 453 q 504 561 538 521 q 422 601 471 601 q 346 571 381 601 q 285 491 311 540 q 240 383 258 442 q 212 268 221 325 q 203 167 203 211 q 228 59 203 92 q 301 26 254 26 q 360 41 328 26 q 426 101 392 56 q 490 236 460 146 l 474 97 l 464 97 q 390 15 438 49 q 275 -18 343 -18 m 544 1013 l 544 1047 l 815 1047 l 815 1013 l 544 1013 m 831 -11 q 808 -2 815 -11 q 801 21 801 7 q 822 72 801 42 q 897 156 842 101 l 1249 492 l 1246 496 q 1149 477 1193 483 q 1065 471 1104 471 q 1003 475 1033 471 q 942 492 974 479 l 892 399 l 868 408 l 971 625 l 992 625 q 1091 597 1050 607 q 1166 581 1132 586 q 1238 574 1200 575 q 1328 572 1275 572 q 1346 582 1342 572 q 1351 603 1350 592 q 1358 625 1353 615 q 1382 635 1364 635 q 1407 613 1407 635 q 1397 590 1407 606 q 1343 531 1388 574 l 963 167 l 963 161 q 1051 151 1007 161 q 1135 129 1096 142 q 1208 107 1175 117 q 1264 97 1242 97 q 1303 110 1292 97 q 1315 138 1315 124 q 1303 157 1315 153 q 1277 164 1292 161 q 1251 175 1263 167 q 1239 206 1239 183 q 1255 244 1239 232 q 1289 257 1271 257 q 1333 230 1318 257 q 1349 167 1349 203 q 1321 74 1349 115 q 1247 7 1293 32 q 1147 -18 1201 -18 q 1042 3 1093 -18 q 951 44 992 24 q 885 65 910 65 q 861 53 863 65 q 864 27 860 42 q 864 1 868 13 q 831 -11 860 -11 m 1161 728 l 1039 1006 l 1099 1006 l 1232 858 l 1429 1006 l 1489 1006 l 1247 728 l 1161 728 z "},"e":{"ha":647,"x_min":46,"x_max":631,"o":"m 333 -18 q 182 22 247 -18 q 81 127 117 63 q 46 264 46 192 q 78 402 46 335 q 166 524 111 469 q 290 610 221 578 q 432 642 360 642 q 535 621 490 642 q 605 563 579 600 q 631 478 631 526 q 593 375 631 419 q 490 306 556 331 q 340 282 425 282 q 274 285 308 282 q 212 292 239 288 q 175 297 185 296 l 182 332 q 231 320 206 322 q 283 318 256 318 q 416 343 367 318 q 487 408 465 368 q 508 496 508 449 q 485 576 508 551 q 422 600 461 600 q 331 562 371 600 q 265 463 292 524 q 226 335 239 403 q 213 206 213 267 q 244 68 213 113 q 347 24 276 24 q 468 58 404 24 q 588 185 532 93 l 615 165 q 501 33 571 85 q 333 -18 432 -18 z "},"é":{"ha":647,"x_min":46,"x_max":726,"o":"m 333 -18 q 182 22 247 -18 q 81 127 117 63 q 46 264 46 192 q 78 402 46 335 q 166 524 111 469 q 290 610 221 578 q 432 642 360 642 q 535 621 490 642 q 605 563 579 600 q 631 478 631 526 q 593 375 631 419 q 490 306 556 331 q 340 282 425 282 q 274 285 308 282 q 212 292 239 288 q 175 297 185 296 l 182 332 q 231 320 206 322 q 283 318 256 318 q 416 343 367 318 q 487 408 465 368 q 508 496 508 449 q 485 576 508 551 q 422 600 461 600 q 331 562 371 600 q 265 463 292 524 q 226 335 239 403 q 213 206 213 267 q 244 68 213 113 q 347 24 276 24 q 468 58 404 24 q 588 185 532 93 l 615 165 q 501 33 571 85 q 333 -18 432 -18 m 367 728 l 549 936 q 610 992 585 978 q 663 1006 636 1006 q 713 989 699 1006 q 726 953 726 972 q 713 915 726 935 q 671 876 700 894 l 425 728 l 367 728 z "},"ĕ":{"ha":647,"x_min":46,"x_max":672,"o":"m 333 -18 q 182 22 247 -18 q 81 127 117 63 q 46 264 46 192 q 78 402 46 335 q 166 524 111 469 q 290 610 221 578 q 432 642 360 642 q 535 621 490 642 q 605 563 579 600 q 631 478 631 526 q 593 375 631 419 q 490 306 556 331 q 340 282 425 282 q 274 285 308 282 q 212 292 239 288 q 175 297 185 296 l 182 332 q 231 320 206 322 q 283 318 256 318 q 416 343 367 318 q 487 408 465 368 q 508 496 508 449 q 485 576 508 551 q 422 600 461 600 q 331 562 371 600 q 265 463 292 524 q 226 335 239 403 q 213 206 213 267 q 244 68 213 113 q 347 24 276 24 q 468 58 404 24 q 588 185 532 93 l 615 165 q 501 33 571 85 q 333 -18 432 -18 m 413 726 q 278 771 325 726 q 232 892 232 815 q 233 917 232 903 q 238 944 235 931 l 285 944 q 283 936 283 940 q 283 928 283 932 q 327 857 283 879 q 433 835 371 835 q 551 862 503 835 q 625 944 600 889 l 672 944 q 621 837 654 886 q 537 757 588 788 q 413 726 486 726 z "},"ě":{"ha":647,"x_min":46,"x_max":706,"o":"m 333 -18 q 182 22 247 -18 q 81 127 117 63 q 46 264 46 192 q 78 402 46 335 q 166 524 111 469 q 290 610 221 578 q 432 642 360 642 q 535 621 490 642 q 605 563 579 600 q 631 478 631 526 q 593 375 631 419 q 490 306 556 331 q 340 282 425 282 q 274 285 308 282 q 212 292 239 288 q 175 297 185 296 l 182 332 q 231 320 206 322 q 283 318 256 318 q 416 343 367 318 q 487 408 465 368 q 508 496 508 449 q 485 576 508 551 q 422 600 461 600 q 331 562 371 600 q 265 463 292 524 q 226 335 239 403 q 213 206 213 267 q 244 68 213 113 q 347 24 276 24 q 468 58 404 24 q 588 185 532 93 l 615 165 q 501 33 571 85 q 333 -18 432 -18 m 378 728 l 256 1006 l 315 1006 l 449 858 l 646 1006 l 706 1006 l 464 728 l 378 728 z "},"ê":{"ha":647,"x_min":46,"x_max":646,"o":"m 333 -18 q 182 22 247 -18 q 81 127 117 63 q 46 264 46 192 q 78 402 46 335 q 166 524 111 469 q 290 610 221 578 q 432 642 360 642 q 535 621 490 642 q 605 563 579 600 q 631 478 631 526 q 593 375 631 419 q 490 306 556 331 q 340 282 425 282 q 274 285 308 282 q 212 292 239 288 q 175 297 185 296 l 182 332 q 231 320 206 322 q 283 318 256 318 q 416 343 367 318 q 487 408 465 368 q 508 496 508 449 q 485 576 508 551 q 422 600 461 600 q 331 562 371 600 q 265 463 292 524 q 226 335 239 403 q 213 206 213 267 q 244 68 213 113 q 347 24 276 24 q 468 58 404 24 q 588 185 532 93 l 615 165 q 501 33 571 85 q 333 -18 432 -18 m 197 728 l 438 1006 l 524 1006 l 646 728 l 586 728 l 453 875 l 256 728 l 197 728 z "},"ế":{"ha":647,"x_min":46,"x_max":653,"o":"m 333 -18 q 182 22 247 -18 q 81 127 117 63 q 46 264 46 192 q 78 402 46 335 q 166 524 111 469 q 290 610 221 578 q 432 642 360 642 q 535 621 490 642 q 605 563 579 600 q 631 478 631 526 q 593 375 631 419 q 490 306 556 331 q 340 282 425 282 q 274 285 308 282 q 212 292 239 288 q 175 297 185 296 l 182 332 q 231 320 206 322 q 283 318 256 318 q 416 343 367 318 q 487 408 465 368 q 508 496 508 449 q 485 576 508 551 q 422 600 461 600 q 331 562 371 600 q 265 463 292 524 q 226 335 239 403 q 213 206 213 267 q 244 68 213 113 q 347 24 276 24 q 468 58 404 24 q 588 185 532 93 l 615 165 q 501 33 571 85 q 333 -18 432 -18 m 213 719 l 392 858 l 478 858 l 606 719 l 546 719 l 426 776 l 271 719 l 213 719 m 243 906 l 482 1050 q 553 1089 526 1078 q 600 1100 579 1100 q 638 1086 624 1100 q 653 1046 653 1072 q 630 993 653 1015 q 557 960 607 971 l 315 906 l 243 906 z "},"ệ":{"ha":647,"x_min":46,"x_max":646,"o":"m 333 -18 q 182 22 247 -18 q 81 127 117 63 q 46 264 46 192 q 78 402 46 335 q 166 524 111 469 q 290 610 221 578 q 432 642 360 642 q 535 621 490 642 q 605 563 579 600 q 631 478 631 526 q 593 375 631 419 q 490 306 556 331 q 340 282 425 282 q 274 285 308 282 q 212 292 239 288 q 175 297 185 296 l 182 332 q 231 320 206 322 q 283 318 256 318 q 416 343 367 318 q 487 408 465 368 q 508 496 508 449 q 485 576 508 551 q 422 600 461 600 q 331 562 371 600 q 265 463 292 524 q 226 335 239 403 q 213 206 213 267 q 244 68 213 113 q 347 24 276 24 q 468 58 404 24 q 588 185 532 93 l 615 165 q 501 33 571 85 q 333 -18 432 -18 m 207 -282 q 141 -255 168 -282 q 114 -189 114 -228 q 141 -122 114 -149 q 207 -94 168 -94 q 274 -122 247 -94 q 301 -189 301 -149 q 274 -255 301 -228 q 207 -282 247 -282 m 197 728 l 438 1006 l 524 1006 l 646 728 l 586 728 l 453 875 l 256 728 l 197 728 z "},"ề":{"ha":647,"x_min":46,"x_max":650,"o":"m 333 -18 q 182 22 247 -18 q 81 127 117 63 q 46 264 46 192 q 78 402 46 335 q 166 524 111 469 q 290 610 221 578 q 432 642 360 642 q 535 621 490 642 q 605 563 579 600 q 631 478 631 526 q 593 375 631 419 q 490 306 556 331 q 340 282 425 282 q 274 285 308 282 q 212 292 239 288 q 175 297 185 296 l 182 332 q 231 320 206 322 q 283 318 256 318 q 416 343 367 318 q 487 408 465 368 q 508 496 508 449 q 485 576 508 551 q 422 600 461 600 q 331 562 371 600 q 265 463 292 524 q 226 335 239 403 q 213 206 213 267 q 244 68 213 113 q 347 24 276 24 q 468 58 404 24 q 588 185 532 93 l 615 165 q 501 33 571 85 q 333 -18 432 -18 m 218 719 l 397 858 l 483 858 l 611 719 l 551 719 l 432 776 l 276 719 l 218 719 m 576 922 l 346 983 q 304 1006 318 990 q 290 1043 290 1021 q 311 1094 290 1072 q 365 1117 332 1117 q 401 1106 383 1117 q 457 1067 418 1096 l 650 922 l 576 922 z "}}}
